<?xml version="1.0" standalone="no"?>
<!DOCTYPE svg PUBLIC "-//W3C//DTD SVG 20010904//EN"
 "http://www.w3.org/TR/2001/REC-SVG-20010904/DTD/svg10.dtd">
<svg version="1.0" xmlns="http://www.w3.org/2000/svg"
 width="4601.000000pt" height="4528.000000pt" viewBox="0 0 4601.000000 4528.000000"
 preserveAspectRatio="xMidYMid meet">

<g transform="translate(0.000000,4528.000000) scale(0.100000,-0.100000)"
fill="#000000" stroke="none">
<path d="M5530 44635 c-801 -111 -1398 -794 -1400 -1600 -1 -393 145 -779 407
-1078 262 -299 648 -496 1052 -537 64 -6 483 -10 1107 -10 l1004 0 0 -1285 0
-1285 -86 0 c-47 0 -84 -3 -82 -7 86 -171 142 -314 184 -463 l28 -99 22 89
c30 114 89 271 147 388 l46 92 -85 0 -84 0 0 1285 0 1284 1073 4 1072 3 121
27 c504 111 893 408 1124 859 189 366 224 827 94 1230 -79 245 -207 453 -398
643 -234 233 -501 376 -832 447 l-109 23 -2155 2 c-1731 1 -2174 -1 -2250 -12z
m4508 -102 c144 -33 247 -70 377 -134 334 -164 602 -453 740 -798 190 -477
133 -998 -156 -1431 -83 -124 -273 -316 -394 -397 -177 -120 -360 -197 -578
-245 l-102 -23 -2175 0 c-2419 0 -2221 -5 -2455 66 -304 94 -605 310 -788 567
-119 166 -213 382 -259 596 -30 137 -32 446 -5 576 71 332 201 574 432 805
156 156 317 261 527 344 92 36 250 77 345 90 38 5 1020 8 2233 7 l2165 -2 93
-21z"/>
<path d="M7230 43313 c0 -35 -31 -102 -56 -125 -11 -9 -31 -21 -47 -27 -40
-15 -33 -29 16 -33 l42 -3 5 -165 c5 -178 11 -200 60 -225 64 -33 130 -11 156
51 19 46 19 124 -1 124 -11 0 -15 -13 -15 -54 0 -61 -27 -106 -63 -106 -58 1
-67 32 -67 219 l0 161 70 0 c56 0 70 3 70 15 0 12 -14 15 -70 15 l-70 0 0 90
c0 73 -3 90 -15 90 -10 0 -15 -10 -15 -27z"/>
<path d="M8546 43296 c-9 -58 -42 -107 -89 -129 -20 -10 -37 -23 -37 -27 0 -5
19 -10 43 -12 l42 -3 5 -165 c5 -178 11 -200 60 -225 61 -32 125 -13 155 45
20 39 20 130 0 130 -11 0 -15 -12 -15 -50 0 -83 -33 -123 -88 -106 -34 11 -42
50 -42 216 l0 160 70 0 c56 0 70 3 70 15 0 12 -14 15 -70 15 l-70 0 0 90 c0
70 -3 90 -14 90 -9 0 -16 -16 -20 -44z"/>
<path d="M6828 43171 c-52 -11 -87 -37 -105 -78 -12 -31 -13 -41 -1 -72 18
-47 62 -75 150 -95 40 -9 80 -22 89 -29 56 -43 43 -116 -25 -142 -82 -31 -161
14 -186 106 -17 64 -35 43 -38 -46 -3 -89 8 -114 37 -78 l18 22 39 -19 c103
-53 228 2 240 106 10 78 -48 131 -171 159 -84 18 -108 38 -103 86 4 42 34 59
104 59 64 0 99 -25 114 -81 17 -60 30 -46 30 31 0 69 -10 86 -36 60 -6 -6 -24
-4 -49 5 -44 16 -53 16 -107 6z"/>
<path d="M7665 43173 c-97 -24 -147 -110 -84 -143 44 -24 84 35 48 71 -25 25
-25 25 12 38 90 31 158 -8 166 -96 l5 -50 -64 -6 c-83 -8 -168 -45 -198 -87
-26 -37 -31 -99 -10 -125 36 -44 144 -68 202 -46 13 5 35 21 48 35 28 29 40
33 40 12 0 -8 12 -24 27 -36 52 -41 116 1 128 83 5 39 4 47 -9 47 -11 0 -16
-9 -16 -29 0 -45 -17 -81 -39 -81 -27 0 -31 18 -31 143 0 62 -4 129 -9 150
-10 42 -41 81 -81 102 -29 15 -106 25 -135 18z m144 -282 c-4 -67 -8 -83 -28
-105 -54 -57 -144 -50 -170 12 -28 68 31 142 130 161 76 15 71 19 68 -68z"/>
<path d="M8068 43163 c-42 -5 -55 -33 -15 -33 49 0 52 -9 55 -174 4 -174 -2
-196 -48 -196 -20 0 -30 -5 -30 -15 0 -12 20 -15 120 -15 100 0 120 3 120 15
0 10 -10 15 -29 15 -61 0 -61 1 -61 139 0 138 15 193 61 225 33 23 53 21 46
-5 -3 -13 2 -28 14 -40 23 -23 33 -24 53 -3 22 21 20 50 -4 74 -42 42 -126 14
-162 -52 l-17 -33 -1 53 0 52 -32 -2 c-18 -1 -50 -3 -70 -5z"/>
<path d="M1341 37498 c-101 -420 -275 -1145 -387 -1611 -112 -467 -204 -853
-204 -858 0 -5 1344 -9 3475 -9 l3475 0 0 -1285 0 -1285 -86 0 c-47 0 -84 -3
-82 -7 78 -152 147 -326 187 -472 11 -41 22 -75 24 -77 2 -2 10 22 17 53 21
95 89 281 144 396 l53 107 -84 0 -83 0 0 1285 0 1285 3085 0 c1697 0 3085 3
3085 7 0 3 52 223 116 487 63 265 171 715 240 1001 187 779 235 978 324 1345
45 184 84 350 87 368 l6 32 -6605 0 -6604 0 -183 -762z m13279 668 c0 -3 -50
-211 -110 -463 -133 -554 -341 -1421 -485 -2018 -58 -242 -113 -470 -121 -507
l-16 -68 -6515 0 -6515 0 7 28 c7 29 495 2056 641 2665 l88 367 6513 0 c3582
0 6513 -2 6513 -4z"/>
<path d="M2206 37075 c-84 -34 -145 -89 -186 -170 -33 -64 -35 -74 -35 -164 0
-89 3 -102 33 -163 18 -36 51 -82 73 -103 116 -105 310 -126 403 -45 l33 29
28 -29 c16 -17 32 -30 37 -30 4 0 8 47 8 104 0 57 3 111 6 120 4 10 18 16 35
16 19 0 29 5 29 15 0 13 -23 15 -146 15 -112 0 -145 -3 -142 -12 3 -7 22 -14
44 -16 85 -5 84 -5 84 -81 0 -59 -4 -74 -25 -99 -47 -56 -167 -67 -252 -24
-96 49 -143 137 -151 277 -5 108 11 178 60 251 55 81 173 124 263 94 74 -24
143 -111 159 -202 4 -24 13 -38 21 -38 12 0 15 24 15 140 0 85 -4 140 -10 140
-5 0 -22 -18 -36 -40 -30 -45 -36 -47 -55 -23 -8 9 -36 27 -64 39 -68 32 -150
32 -229 -1z"/>
<path d="M7825 37081 c-39 -8 -35 -25 7 -31 41 -6 44 16 -43 -334 -39 -154
-69 -289 -67 -300 4 -27 43 -34 56 -9 5 10 19 61 32 113 13 52 24 98 26 101 7
12 83 -13 100 -33 14 -15 18 -33 16 -79 -2 -55 0 -63 27 -89 36 -36 77 -39
116 -8 29 22 64 89 65 121 0 33 -22 13 -40 -36 -24 -64 -37 -77 -72 -77 l-29
0 3 79 c3 95 -9 114 -88 137 l-52 15 41 38 c23 21 60 55 82 75 59 54 152 74
99 21 -13 -13 -24 -28 -24 -34 0 -17 32 -42 47 -37 8 3 18 6 23 6 4 0 13 13
20 29 13 33 2 64 -30 81 -48 26 -93 5 -196 -91 -69 -63 -94 -80 -94 -62 0 3
23 93 50 200 28 106 50 198 50 203 0 11 -77 11 -125 1z"/>
<path d="M11275 37081 c-39 -8 -35 -25 7 -31 41 -6 44 16 -43 -334 -39 -154
-69 -289 -67 -300 4 -27 43 -34 56 -9 5 10 20 62 33 116 22 91 24 97 48 97 34
0 91 -35 92 -57 1 -10 1 -39 -1 -65 -2 -41 2 -52 28 -78 37 -36 78 -39 117 -8
29 22 64 89 65 121 0 33 -22 12 -41 -38 -22 -58 -50 -85 -79 -78 -19 5 -21 12
-18 83 4 101 -14 122 -116 145 -17 3 -25 9 -19 13 6 4 43 36 82 72 69 62 123
93 147 83 7 -3 3 -13 -12 -28 -13 -13 -24 -28 -24 -34 0 -12 29 -41 41 -41 16
0 59 48 59 65 0 25 -46 65 -75 65 -40 0 -80 -25 -161 -101 -68 -62 -94 -80
-94 -63 0 3 23 94 50 202 28 108 50 200 50 204 0 9 -81 9 -125 -1z"/>
<path d="M2832 37054 c-27 -18 -29 -55 -4 -77 35 -32 85 -10 85 37 0 45 -43
67 -81 40z"/>
<path d="M13220 37049 c-43 -17 -89 -71 -111 -128 -43 -113 -35 -349 14 -435
81 -143 273 -142 346 3 55 109 55 354 1 461 -22 43 -66 85 -103 99 -35 13
-113 13 -147 0z m124 -24 c51 -25 67 -63 78 -192 13 -144 -1 -317 -29 -366
-25 -43 -80 -72 -117 -63 -40 10 -82 55 -95 102 -14 49 -15 387 -1 433 16 55
65 99 113 100 11 1 33 -6 51 -14z"/>
<path d="M3705 36835 c-86 -23 -155 -119 -155 -217 0 -151 161 -269 293 -214
39 16 97 79 97 106 0 30 -13 24 -34 -15 -39 -73 -130 -97 -197 -52 -41 27 -66
76 -71 137 l-3 45 155 5 155 5 -2 25 c-6 63 -16 92 -40 120 -48 58 -117 77
-198 55z m113 -31 c28 -20 48 -58 57 -111 l7 -43 -121 0 -121 0 0 25 c0 44 32
106 64 126 38 23 84 24 114 3z"/>
<path d="M6760 36830 c-97 -33 -145 -110 -104 -168 15 -21 14 -24 -15 -51 -35
-32 -51 -68 -51 -113 0 -88 121 -141 243 -107 42 11 107 63 107 85 0 19 -5 18
-33 -10 -46 -46 -215 -50 -262 -6 -38 35 -34 83 10 127 33 33 36 34 90 28 30
-4 71 -4 90 -1 30 6 36 11 33 29 -3 19 -10 22 -57 25 -29 2 -66 -1 -82 -7 -25
-8 -31 -7 -48 15 -34 43 -4 86 72 109 64 19 134 19 171 0 36 -19 62 -19 69 -1
7 18 -8 31 -56 51 -48 20 -110 19 -177 -5z m58 -191 c-12 -7 -24 -7 -35 0 -15
9 -12 10 17 10 29 0 32 -1 18 -10z"/>
<path d="M2808 36833 c-47 -5 -49 -26 -5 -38 l32 -10 3 -169 c3 -180 1 -186
-45 -186 -14 0 -23 -6 -23 -15 0 -12 18 -15 105 -15 87 0 105 3 105 15 0 9 -9
15 -23 15 -44 0 -47 13 -47 217 l0 193 -32 -2 c-18 -1 -50 -3 -70 -5z"/>
<path d="M4053 36833 c-29 -3 -43 -9 -43 -19 0 -8 9 -14 21 -14 11 0 29 -5 40
-10 18 -10 19 -23 19 -179 0 -182 0 -181 -56 -181 -15 0 -24 -6 -24 -15 0 -12
19 -15 115 -15 93 0 115 3 115 14 0 9 -12 16 -32 18 l-33 3 -3 135 c-3 148 4
176 50 215 22 18 41 25 74 25 70 0 75 -15 72 -211 l-3 -164 -32 -3 c-21 -2
-33 -9 -33 -18 0 -11 22 -14 115 -14 72 0 115 4 115 10 0 11 -7 14 -52 24
l-28 6 0 146 c0 195 -21 241 -113 251 -60 7 -110 -11 -147 -53 l-30 -35 0 46
c0 50 7 48 -107 38z"/>
<path d="M5055 36824 c-16 -8 -38 -23 -49 -32 -19 -18 -56 -84 -56 -102 0 -22
21 -8 39 28 56 108 162 131 169 35 3 -38 -32 -199 -57 -265 -17 -46 -47 -68
-91 -68 l-40 0 20 20 c39 39 14 93 -32 69 -69 -36 -42 -106 45 -116 40 -5 48
-2 82 29 l38 35 26 -29 c64 -72 175 -36 232 74 23 44 23 48 6 48 -8 0 -22 -18
-32 -39 -43 -97 -152 -131 -171 -54 -10 37 51 284 78 319 24 30 58 45 86 37
l21 -5 -20 -27 c-31 -43 -2 -84 42 -60 45 23 40 86 -8 108 -50 23 -101 10
-139 -36 l-22 -26 -11 22 c-25 47 -101 64 -156 35z"/>
<path d="M3030 36816 c0 -8 15 -17 34 -20 37 -7 35 -4 162 -313 36 -90 51
-107 71 -80 6 6 40 86 77 176 81 196 82 198 124 213 60 22 40 38 -48 38 -64 0
-80 -3 -80 -15 0 -8 9 -19 20 -25 11 -6 20 -18 20 -28 0 -27 -103 -273 -110
-265 -18 20 -111 259 -108 277 2 13 12 22 26 24 12 2 22 10 22 18 0 11 -21 14
-105 14 -83 0 -105 -3 -105 -14z"/>
<path d="M12020 36750 c0 -20 4 -20 338 -18 292 3 337 5 337 18 0 13 -45 15
-337 18 -334 2 -338 2 -338 -18z"/>
<path d="M5591 36708 c-50 -34 -74 -87 -79 -178 -6 -97 15 -174 58 -215 26
-25 40 -30 93 -33 103 -5 150 39 167 159 5 33 5 87 0 121 -16 113 -58 159
-150 166 -45 3 -61 0 -89 -20z m128 -13 c40 -20 51 -61 51 -192 0 -159 -22
-203 -99 -203 -70 0 -100 63 -100 210 0 166 54 234 148 185z"/>
<path d="M8990 36583 c-58 -11 -84 -78 -30 -78 21 0 25 5 25 28 -1 26 1 27 47
27 55 0 88 -24 88 -64 0 -21 -6 -24 -52 -30 -108 -15 -178 -66 -164 -121 14
-54 140 -78 195 -37 27 20 28 20 39 1 15 -23 59 -25 90 -3 15 11 22 25 22 50
0 19 -4 34 -10 34 -5 0 -10 -9 -10 -19 0 -32 -11 -51 -30 -51 -15 0 -18 12
-22 101 -4 96 -5 103 -31 125 -27 23 -88 45 -117 43 -8 -1 -26 -4 -40 -6z
m130 -177 c0 -62 -31 -98 -84 -98 -50 0 -81 29 -72 66 7 29 42 55 89 66 64 16
67 14 67 -34z"/>
<path d="M8237 36573 c-13 -12 -7 -22 16 -25 21 -3 22 -7 25 -115 3 -108 2
-112 -19 -115 -13 -2 -24 -9 -27 -15 -3 -10 17 -13 77 -13 65 0 81 3 81 15 0
9 -10 15 -26 15 l-26 0 4 95 c4 109 18 133 84 141 64 8 69 -1 69 -123 0 -104
-1 -108 -22 -111 -13 -2 -23 -10 -23 -18 0 -11 17 -14 81 -14 60 0 80 3 77 13
-3 6 -14 13 -26 15 -28 4 -36 36 -29 120 4 58 9 70 36 94 38 34 95 39 111 9 5
-11 10 -65 10 -120 l0 -101 -25 0 c-16 0 -25 -6 -25 -15 0 -12 16 -15 80 -15
64 0 80 3 80 15 0 9 -9 15 -25 15 -25 0 -25 0 -25 95 0 100 -13 147 -45 159
-38 14 -103 6 -139 -19 l-36 -24 -24 24 c-35 35 -107 35 -159 -1 l-38 -25 5
25 c4 25 3 26 -43 26 -26 0 -51 -3 -54 -7z"/>
<path d="M9290 36563 c0 -7 9 -13 20 -13 22 0 80 -48 111 -92 l22 -30 -49 -49
c-27 -27 -62 -53 -78 -57 -16 -4 -31 -13 -34 -20 -3 -9 15 -12 63 -12 l67 0
-7 28 c-4 22 1 33 28 60 l33 32 33 -34 c26 -27 31 -38 25 -60 l-6 -26 71 0
c56 0 71 3 71 15 0 9 -9 15 -23 15 -16 0 -43 20 -80 59 -32 33 -57 64 -57 69
0 18 90 93 120 99 54 10 34 28 -31 27 -67 -2 -77 -7 -60 -28 10 -12 6 -21 -18
-48 l-30 -33 -31 30 c-23 23 -29 35 -25 55 5 25 5 25 -65 25 -49 0 -70 -4 -70
-12z"/>
<path d="M12027 36563 c-4 -3 -7 -12 -7 -20 0 -11 60 -13 338 -11 292 3 337 5
337 18 0 13 -45 15 -331 18 -182 1 -333 -1 -337 -5z"/>
<path d="M6042 36494 c-45 -32 -15 -101 40 -90 25 5 28 3 28 -22 0 -34 -34
-110 -62 -139 -12 -13 -19 -26 -15 -29 23 -23 81 64 97 144 11 62 5 103 -22
131 -23 25 -36 26 -66 5z"/>
<path d="M7142 36494 c-45 -31 -16 -100 40 -92 25 4 28 1 28 -21 0 -33 -35
-109 -62 -138 -12 -13 -18 -26 -14 -30 13 -14 41 14 70 71 39 75 41 163 6 201
-27 29 -38 31 -68 9z"/>
<path d="M2190 30255 l0 -1615 2755 0 2755 0 0 -1290 0 -1290 -86 0 c-47 0
-84 -3 -82 -7 86 -166 159 -356 199 -513 l12 -45 23 85 c33 125 80 251 135
369 27 57 49 106 49 107 0 2 -36 4 -80 4 l-80 0 0 1290 0 1290 2755 0 2755 0
0 1615 0 1615 -5555 0 -5555 0 0 -1615z m11020 0 l0 -1535 -5470 0 -5470 0 0
1535 0 1535 5470 0 5470 0 0 -1535z"/>
<path d="M10435 30704 c-107 -109 -160 -258 -159 -449 1 -190 52 -331 161
-442 61 -63 91 -63 40 0 -84 103 -120 195 -137 347 -13 108 -6 213 21 317 21
86 47 139 105 215 24 32 39 60 34 63 -5 3 -34 -20 -65 -51z"/>
<path d="M11720 30749 c0 -6 15 -28 34 -49 48 -54 81 -114 108 -200 20 -66 23
-95 23 -240 0 -145 -3 -174 -23 -240 -27 -86 -60 -146 -108 -200 -33 -36 -43
-60 -26 -60 13 0 89 77 120 122 72 104 106 231 105 388 -1 179 -50 313 -155
425 -59 64 -78 77 -78 54z"/>
<path d="M3615 30702 c-114 -40 -166 -161 -115 -267 29 -61 74 -89 185 -116
114 -28 148 -48 170 -101 39 -99 -27 -198 -133 -198 -106 0 -191 66 -212 164
-6 31 -16 56 -21 56 -5 0 -9 -55 -9 -125 0 -72 4 -125 9 -125 6 0 18 14 28 30
19 33 34 38 53 15 17 -21 104 -45 160 -45 63 0 128 35 165 88 27 39 30 52 30
117 0 65 -3 78 -30 116 -37 52 -92 81 -196 104 -84 18 -121 40 -144 85 -20 39
-19 79 5 117 25 42 68 63 125 63 91 0 153 -54 179 -156 7 -26 17 -49 24 -52 9
-3 12 28 12 117 0 117 -7 142 -29 104 -27 -46 -26 -46 -71 -17 -33 22 -56 29
-104 31 -33 1 -70 -1 -81 -5z"/>
<path d="M9963 30688 c-38 -27 -66 -87 -83 -180 l-12 -68 -49 0 c-37 0 -49 -4
-49 -15 0 -11 12 -15 45 -15 25 0 45 -3 45 -6 0 -19 -83 -448 -95 -490 -18
-64 -44 -89 -82 -79 -24 6 -25 8 -10 16 45 26 41 79 -7 79 -31 0 -46 -19 -46
-56 0 -41 30 -64 81 -64 84 0 134 90 178 320 17 85 35 183 42 218 l12 62 58 0
c46 0 59 3 59 15 0 12 -13 15 -55 15 -30 0 -55 4 -55 9 0 5 9 53 20 107 24
117 53 154 99 125 11 -7 9 -11 -8 -20 -25 -14 -29 -66 -5 -75 25 -9 33 -7 54
14 27 27 25 56 -5 85 -32 33 -88 33 -132 3z"/>
<path d="M8760 30683 c0 -5 80 -163 178 -353 136 -264 182 -346 197 -348 16
-2 31 20 82 120 34 68 114 223 178 346 63 122 115 227 115 232 0 6 -140 10
-375 10 -206 0 -375 -3 -375 -7z m680 -71 c0 -9 -258 -514 -268 -524 -4 -4
-48 70 -96 165 -49 94 -111 213 -137 264 -27 50 -49 94 -49 97 0 3 124 6 275
6 151 0 275 -3 275 -8z"/>
<path d="M4596 30576 c-9 -58 -42 -107 -89 -129 -20 -10 -37 -23 -37 -27 0 -5
19 -10 43 -12 l42 -3 5 -165 c5 -178 11 -200 60 -225 64 -33 130 -11 156 51
19 46 19 124 -1 124 -11 0 -15 -12 -15 -50 0 -83 -33 -123 -88 -106 -34 11
-42 50 -42 216 l0 160 70 0 c56 0 70 3 70 15 0 12 -14 15 -70 15 l-70 0 0 90
c0 70 -3 90 -14 90 -9 0 -16 -16 -20 -44z"/>
<path d="M4182 30448 c-57 -13 -136 -87 -151 -143 -43 -158 62 -305 218 -305
71 0 161 69 161 124 0 27 -14 18 -35 -21 -25 -46 -69 -73 -121 -73 -80 0 -139
65 -146 160 l-3 45 153 3 152 3 0 39 c0 121 -102 196 -228 168z m106 -34 c28
-20 48 -58 57 -111 l7 -43 -121 0 -121 0 0 25 c0 44 32 106 64 126 38 23 84
24 114 3z"/>
<path d="M5623 30435 c-12 -8 -31 -40 -42 -70 -24 -65 -26 -75 -8 -75 7 0 18
21 25 46 14 52 53 97 76 88 11 -4 16 -19 16 -45 0 -38 -100 -459 -120 -506 -5
-13 -20 -23 -36 -25 -15 -2 -29 -9 -32 -16 -3 -10 20 -12 105 -10 63 2 108 7
108 13 0 6 -11 11 -25 13 -54 6 -54 9 -14 150 l16 52 31 -26 c85 -72 247 30
293 185 19 62 14 140 -11 178 -45 69 -135 80 -203 26 l-37 -30 -31 34 c-35 37
-75 43 -111 18z m292 -17 c35 -16 48 -69 35 -139 -18 -94 -43 -159 -77 -199
-58 -68 -117 -70 -154 -5 -16 29 -16 34 13 144 34 131 51 160 110 190 51 25
41 24 73 9z"/>
<path d="M10730 30431 c-61 -33 -128 -141 -87 -141 8 0 18 11 21 25 3 13 20
40 36 59 61 69 132 65 138 -8 4 -49 -44 -250 -70 -293 -19 -33 -58 -51 -95
-45 -22 3 -22 3 -2 23 24 24 25 55 2 67 -53 27 -98 -52 -53 -93 10 -9 39 -20
63 -22 40 -5 49 -2 82 29 l37 34 33 -33 c40 -40 91 -44 145 -12 40 25 53 39
80 91 24 44 24 48 7 48 -8 0 -22 -18 -32 -39 -31 -70 -92 -109 -140 -91 -35
13 -40 48 -20 137 47 220 72 260 158 254 16 -1 16 -3 -3 -29 -32 -43 -4 -85
40 -62 67 36 27 120 -56 120 -33 0 -64 -16 -90 -47 l-22 -26 -11 22 c-15 26
-61 51 -98 51 -16 0 -44 -8 -63 -19z"/>
<path d="M6890 30360 c0 -20 4 -20 338 -18 292 3 337 5 337 18 0 13 -45 15
-337 18 -334 2 -338 2 -338 -18z"/>
<path d="M6168 30343 c-24 -6 -23 -23 1 -23 11 0 22 -4 25 -8 2 -4 -17 -96
-44 -202 -27 -107 -50 -200 -50 -206 0 -19 28 -24 43 -9 8 7 20 41 27 75 7 34
18 64 25 66 15 6 67 -14 77 -29 4 -7 8 -28 8 -48 0 -87 99 -100 141 -17 22 44
23 48 7 48 -7 0 -21 -18 -30 -40 -13 -32 -22 -40 -42 -40 -25 0 -26 3 -26 55
0 59 -13 75 -74 89 l-28 7 63 49 c37 29 74 50 89 50 19 0 21 -3 12 -12 -19
-19 -15 -58 7 -58 48 0 53 74 6 86 -39 10 -67 -2 -136 -57 -35 -28 -65 -46
-67 -41 -1 5 11 64 28 130 16 67 30 126 30 131 0 11 -58 13 -92 4z"/>
<path d="M11273 30343 c-20 -7 -15 -23 6 -23 11 0 22 -4 25 -8 2 -4 -18 -97
-45 -207 -47 -188 -52 -225 -30 -225 21 0 39 31 51 90 7 34 18 64 25 66 15 6
67 -14 77 -29 4 -7 8 -28 8 -47 0 -43 8 -56 43 -69 38 -15 74 4 98 51 22 44
23 48 7 48 -7 0 -21 -18 -30 -40 -13 -32 -22 -40 -42 -40 -25 0 -26 3 -26 55
0 59 -13 75 -73 89 l-28 7 42 35 c48 40 91 64 114 64 14 0 15 -2 1 -21 -17
-25 -11 -49 14 -49 47 0 51 74 5 86 -39 10 -67 -2 -136 -57 -35 -28 -65 -46
-67 -41 -1 5 11 64 28 130 16 67 30 126 30 131 0 11 -74 14 -97 4z"/>
<path d="M8000 30260 c0 -20 4 -20 308 -18 265 3 307 5 307 18 0 13 -42 15
-307 18 -304 2 -308 2 -308 -18z"/>
<path d="M6897 30173 c-4 -3 -7 -12 -7 -20 0 -11 60 -13 338 -11 292 3 337 5
337 18 0 13 -45 15 -331 18 -182 1 -333 -1 -337 -5z"/>
<path d="M2190 23870 l0 -1620 2755 0 2755 0 0 -1290 0 -1290 -84 0 -85 0 54
-112 c47 -97 128 -326 151 -423 l7 -30 9 40 c19 90 93 297 144 404 30 63 54
116 54 117 0 2 -36 4 -80 4 l-80 0 0 1290 0 1290 2755 0 2755 0 0 1620 0 1620
-5555 0 -5555 0 0 -1620z m11020 0 l0 -1530 -5470 0 -5470 0 0 1530 0 1530
5470 0 5470 0 0 -1530z"/>
<path d="M10086 24316 c-62 -65 -105 -142 -137 -246 -31 -97 -33 -289 -5 -390
25 -93 82 -195 143 -257 68 -70 87 -60 29 15 -79 102 -110 186 -126 337 -22
202 25 407 118 517 50 60 54 66 42 73 -6 3 -34 -19 -64 -49z"/>
<path d="M11370 24359 c0 -6 19 -32 41 -57 87 -98 129 -241 129 -440 0 -185
-43 -326 -130 -425 -66 -75 -50 -94 20 -24 132 131 196 335 170 544 -20 157
-64 256 -158 356 -54 56 -72 68 -72 46z"/>
<path d="M9627 24302 c-36 -22 -72 -98 -87 -184 l-12 -68 -49 0 c-37 0 -49 -4
-49 -15 0 -11 12 -15 45 -15 25 0 45 -4 45 -8 0 -27 -93 -490 -104 -516 -18
-44 -40 -60 -73 -51 -24 6 -25 8 -10 16 45 25 43 79 -3 79 -33 0 -52 -21 -52
-57 0 -61 94 -85 150 -38 46 39 78 126 115 315 19 96 38 194 42 218 l7 42 59
0 c46 0 59 3 59 15 0 12 -13 15 -55 15 l-56 0 7 38 c3 20 12 68 20 105 8 38
14 70 14 72 0 13 52 36 69 30 20 -6 20 -6 0 -26 -23 -23 -25 -64 -4 -73 21 -8
61 9 69 29 11 29 7 45 -19 70 -29 30 -86 33 -128 7z"/>
<path d="M5533 24303 c-39 -5 -46 -33 -9 -33 45 0 46 -10 44 -321 l-3 -294
-32 -3 c-21 -2 -33 -9 -33 -18 0 -11 21 -14 110 -14 91 0 110 3 110 15 0 10
-10 15 -30 15 -19 0 -33 7 -40 19 -6 12 -10 135 -10 330 l0 311 -37 -2 c-21 0
-53 -3 -70 -5z"/>
<path d="M3810 24285 c0 -9 9 -15 24 -15 14 0 36 -4 50 -10 l26 -10 0 -289 c0
-277 -1 -291 -19 -301 -11 -5 -33 -10 -50 -10 -21 0 -31 -5 -31 -15 0 -13 39
-15 293 -15 l293 0 18 125 c17 113 17 150 0 133 -3 -4 -12 -36 -21 -72 -18
-80 -58 -128 -121 -145 -23 -7 -92 -10 -154 -9 l-113 3 -3 153 -3 152 59 0
c104 0 142 -26 142 -96 0 -15 6 -24 15 -24 13 0 15 21 15 130 0 109 -2 130
-15 130 -10 0 -15 -10 -15 -30 0 -19 -9 -40 -25 -55 -21 -22 -33 -25 -100 -25
l-75 0 0 135 0 135 26 6 c14 4 74 4 133 2 156 -8 191 -31 212 -140 8 -38 16
-58 26 -58 10 0 12 9 9 33 -6 32 -26 185 -26 193 0 2 -128 4 -285 4 -247 0
-285 -2 -285 -15z"/>
<path d="M8412 24288 c9 -38 352 -690 365 -695 8 -3 20 1 28 8 15 17 355 676
355 690 0 5 -150 9 -376 9 -295 0 -375 -3 -372 -12z m678 -67 c0 -10 -258
-512 -269 -524 -6 -6 -252 458 -279 525 -2 4 120 8 272 8 152 0 276 -4 276 -9z"/>
<path d="M6980 24203 c0 -35 -31 -102 -56 -125 -11 -9 -31 -21 -47 -27 -40
-15 -33 -29 16 -33 l42 -3 5 -165 c6 -183 12 -203 65 -226 96 -40 165 15 165
131 0 33 -4 45 -15 45 -11 0 -15 -12 -15 -50 0 -83 -33 -123 -88 -106 -34 11
-42 50 -42 216 l0 160 70 0 c56 0 70 3 70 15 0 12 -14 15 -70 15 l-70 0 0 90
c0 73 -3 90 -15 90 -10 0 -15 -10 -15 -27z"/>
<path d="M5127 24059 c-55 -13 -75 -26 -92 -60 -27 -51 10 -103 55 -79 24 13
28 68 5 76 -24 9 -18 21 16 33 90 31 158 -8 166 -96 l5 -50 -64 -6 c-203 -19
-302 -172 -158 -244 74 -38 156 -28 204 26 l19 21 27 -32 c53 -64 132 -29 145
65 6 39 5 47 -9 47 -12 0 -16 -10 -16 -38 0 -46 -19 -76 -46 -70 -17 3 -20 15
-25 148 -4 80 -7 150 -8 157 -2 19 -51 73 -80 87 -37 19 -100 26 -144 15z
m152 -278 c-4 -88 -18 -113 -77 -138 -45 -19 -97 -2 -117 37 -19 36 -19 44 1
86 18 39 63 70 120 83 79 18 77 20 73 -68z"/>
<path d="M6487 24059 c-55 -13 -75 -26 -92 -60 -27 -51 10 -103 55 -79 24 13
28 68 5 76 -24 9 -18 21 16 33 90 31 158 -8 166 -96 l5 -50 -64 -6 c-203 -19
-302 -172 -158 -244 74 -38 156 -28 204 26 l19 21 27 -32 c53 -64 132 -29 145
65 6 39 5 47 -9 47 -12 0 -16 -10 -16 -38 0 -46 -19 -76 -46 -70 -17 3 -20 15
-25 148 -4 80 -7 150 -8 157 -2 19 -51 73 -80 87 -37 19 -100 26 -144 15z
m152 -278 c-4 -88 -18 -113 -77 -138 -45 -19 -97 -2 -117 37 -19 36 -19 44 1
86 18 39 63 70 120 83 79 18 77 20 73 -68z"/>
<path d="M7411 24058 c-56 -12 -134 -88 -150 -144 -25 -91 -6 -169 59 -235 63
-65 149 -86 223 -55 39 16 97 79 97 106 0 30 -13 24 -34 -15 -39 -73 -130 -97
-197 -52 -41 27 -66 76 -71 137 l-3 45 153 3 c151 3 155 3 154 37 -4 127 -104
201 -231 173z m107 -34 c28 -20 48 -58 57 -111 l7 -43 -121 0 -121 0 0 25 c0
44 32 106 64 126 38 23 84 24 114 3z"/>
<path d="M5828 24053 c-34 -3 -48 -8 -48 -19 0 -8 10 -14 23 -14 51 0 55 -13
59 -181 3 -140 5 -159 23 -179 27 -31 76 -50 125 -50 47 0 73 11 113 48 l27
26 0 -39 0 -38 67 7 c71 7 104 28 55 34 -51 7 -52 10 -52 220 l0 195 -52 -7
c-29 -3 -63 -6 -75 -6 -37 0 -27 -27 12 -34 l35 -7 0 -143 c0 -132 -2 -146
-23 -177 -29 -43 -81 -62 -130 -48 -19 5 -38 16 -41 24 -3 8 -6 101 -6 205
l-1 190 -32 -2 c-18 -1 -53 -3 -79 -5z"/>
<path d="M10385 24044 c-43 -22 -64 -44 -86 -86 -23 -44 -24 -58 -5 -58 8 0
17 11 20 25 9 34 61 91 95 103 46 16 75 -4 79 -55 3 -45 -38 -224 -65 -281
-18 -38 -61 -62 -98 -54 -23 4 -23 4 -4 23 25 25 24 55 -1 69 -43 23 -85 -33
-60 -80 27 -50 106 -53 156 -7 l36 33 33 -33 c26 -26 41 -33 72 -33 66 0 144
65 167 138 13 39 -20 25 -39 -17 -20 -46 -49 -75 -87 -90 -38 -14 -76 1 -84
35 -9 36 52 286 78 319 24 31 58 46 86 38 l21 -5 -20 -27 c-31 -42 -2 -84 41
-61 54 29 42 93 -21 111 -48 15 -84 5 -120 -31 -28 -27 -30 -28 -39 -9 -24 45
-101 61 -155 33z"/>
<path d="M4490 24035 c0 -8 8 -15 18 -15 40 0 60 -33 137 -219 43 -105 84
-191 91 -191 19 0 27 16 98 190 66 163 103 220 141 220 8 0 15 7 15 15 0 12
-16 15 -80 15 -64 0 -80 -3 -80 -15 0 -8 9 -19 20 -25 11 -6 20 -19 20 -30 0
-28 -103 -272 -110 -263 -7 8 -63 138 -99 231 l-21 54 30 11 c16 6 30 17 30
24 0 10 -26 13 -105 13 -87 0 -105 -3 -105 -15z"/>
<path d="M10928 23963 c-24 -6 -23 -23 1 -23 11 0 22 -4 25 -8 2 -4 -17 -96
-44 -202 -27 -107 -50 -200 -50 -206 0 -19 28 -24 43 -9 8 7 20 41 27 75 7 34
18 64 25 66 15 6 67 -14 77 -29 4 -7 8 -28 8 -48 0 -36 17 -60 53 -72 30 -11
65 11 87 52 23 47 24 51 8 51 -7 0 -21 -18 -30 -40 -13 -32 -22 -40 -42 -40
-25 0 -26 3 -26 55 0 59 -13 75 -73 89 l-28 7 42 35 c49 41 91 64 116 64 13 0
14 -3 5 -12 -19 -19 -15 -58 7 -58 48 0 53 74 6 86 -39 10 -67 -2 -136 -57
-35 -28 -65 -46 -67 -41 -1 5 11 64 28 130 16 67 30 126 30 131 0 11 -58 13
-92 4z"/>
<path d="M19600 24700 l0 -790 -2865 0 -2865 0 0 85 0 85 -87 -44 c-106 -53
-245 -105 -377 -142 l-97 -28 83 -22 c122 -33 249 -80 367 -135 57 -27 106
-49 107 -49 2 0 4 36 4 80 l0 80 2865 0 2865 0 0 -785 0 -785 5755 0 5755 0 0
1620 0 1620 -5755 0 -5755 0 0 -790z m11420 -830 l0 -1530 -5665 0 -5665 0 0
1530 0 1530 5665 0 5665 0 0 -1530z"/>
<path d="M28355 25000 c-3 -5 7 -12 22 -16 15 -3 31 -6 35 -7 5 -2 -64 -294
-86 -364 -6 -18 -15 -23 -42 -23 -24 0 -34 -5 -34 -15 0 -12 19 -15 111 -15
84 0 110 3 107 13 -3 6 -21 13 -41 15 -20 2 -37 6 -37 9 0 3 6 31 14 62 8 31
17 69 20 84 7 28 7 28 74 25 l67 -3 0 -32 c0 -18 5 -33 11 -33 15 0 56 162 44
174 -6 6 -14 -2 -21 -22 -14 -42 -35 -52 -104 -52 -42 0 -56 3 -52 13 2 6 12
47 22 90 l19 77 106 0 c124 0 140 -9 140 -78 0 -23 5 -42 10 -42 14 0 17 12
25 88 l6 62 -205 0 c-122 0 -207 -4 -211 -10z"/>
<path d="M28975 25000 c-4 -6 6 -10 24 -10 16 0 32 -4 35 -8 2 -4 -17 -93 -43
-197 l-47 -190 -34 -5 c-18 -3 -35 -11 -38 -17 -3 -10 21 -13 97 -13 83 0 101
3 101 15 0 10 -10 15 -30 15 -16 0 -30 5 -30 10 0 6 10 49 22 97 l21 85 66 -4
c37 -3 77 -11 90 -17 22 -12 23 -16 17 -89 -4 -43 -3 -82 1 -88 15 -20 51 -34
91 -34 33 0 45 6 66 31 14 17 26 35 26 40 0 18 -17 9 -39 -22 -17 -23 -29 -29
-49 -27 -27 3 -27 3 -27 86 0 77 -2 85 -26 106 l-26 22 44 18 c76 31 111 94
82 148 -23 43 -83 58 -241 58 -87 0 -149 -4 -153 -10z m311 -35 c49 -32 22
-122 -46 -149 -38 -15 -180 -23 -180 -10 0 12 42 169 47 178 9 14 151 -1 179
-19z"/>
<path d="M24666 24810 c-39 -35 -58 -78 -76 -172 l-12 -68 -49 0 c-37 0 -49
-4 -49 -15 0 -11 12 -15 45 -15 25 0 45 -3 45 -6 0 -19 -83 -448 -95 -490 -18
-64 -44 -89 -82 -79 -24 6 -25 8 -10 16 23 13 38 44 31 63 -7 19 -57 21 -72 4
-39 -50 -4 -108 66 -108 53 0 84 27 121 103 28 58 41 111 102 435 l12 62 58 0
c46 0 59 3 59 15 0 12 -13 15 -55 15 l-56 0 7 38 c24 136 36 178 55 195 24 19
37 21 58 8 11 -7 9 -11 -8 -20 -45 -25 -16 -90 31 -72 72 27 32 121 -51 121
-31 0 -49 -7 -75 -30z"/>
<path d="M27898 24811 c-54 -34 -89 -78 -121 -152 -19 -41 -126 -447 -181
-681 -5 -20 -3 -28 8 -28 9 0 24 40 46 130 18 72 34 130 36 130 2 0 19 -17 38
-37 34 -37 36 -38 108 -38 78 1 112 13 180 67 96 76 117 239 40 316 l-21 21
25 16 c44 28 84 103 84 156 0 114 -133 169 -242 100z m164 -21 c35 -43 16
-154 -35 -208 -19 -20 -27 -22 -73 -16 -74 9 -116 -2 -112 -29 3 -20 9 -22 82
-22 72 0 80 -2 95 -24 26 -40 18 -142 -16 -209 -37 -74 -87 -113 -152 -120
-90 -8 -141 34 -141 117 0 53 73 338 100 391 28 54 88 120 125 137 41 18 105
10 127 -17z m-134 -257 c-10 -2 -26 -2 -35 0 -10 3 -2 5 17 5 19 0 27 -2 18
-5z"/>
<path d="M23470 24813 c0 -5 80 -163 178 -353 136 -265 182 -346 197 -348 17
-2 47 51 195 338 96 188 176 347 178 355 3 13 -48 15 -372 15 -207 0 -376 -3
-376 -7z m680 -72 c0 -10 -258 -512 -269 -524 -6 -6 -257 466 -279 524 -2 5
120 9 272 9 152 0 276 -4 276 -9z"/>
<path d="M26917 24724 c-4 -4 -7 -76 -7 -161 l0 -153 -160 0 c-153 0 -160 -1
-160 -20 0 -18 8 -20 158 -22 l157 -3 3 -158 c2 -144 4 -158 20 -155 15 3 17
21 20 160 l3 157 157 3 c132 3 157 5 157 18 0 13 -25 15 -157 18 l-157 3 -3
156 c-3 146 -9 178 -31 157z"/>
<path d="M20107 24569 c-36 -21 -83 -149 -55 -149 8 0 19 20 26 46 14 52 53
97 76 88 11 -4 16 -19 16 -45 0 -38 -100 -459 -120 -506 -5 -13 -20 -23 -36
-25 -15 -2 -29 -9 -32 -16 -3 -10 20 -12 105 -10 65 2 107 7 106 13 -1 6 -17
12 -35 15 -18 3 -32 10 -32 15 2 14 35 157 40 173 3 10 13 7 35 -12 115 -97
327 102 306 287 -7 58 -26 91 -70 118 -45 28 -107 21 -155 -18 l-37 -30 -31
34 c-33 34 -71 43 -107 22z m300 -33 c24 -21 27 -31 27 -78 -1 -66 -35 -181
-66 -228 -31 -46 -86 -82 -112 -74 -36 10 -69 50 -68 81 1 47 53 226 73 254
16 23 90 69 111 69 4 0 19 -11 35 -24z"/>
<path d="M29763 24565 c-12 -8 -31 -40 -42 -70 -24 -65 -26 -75 -8 -75 7 0 18
21 25 46 15 57 56 101 77 84 8 -7 15 -28 15 -47 0 -33 -101 -457 -120 -500 -5
-13 -20 -23 -36 -25 -15 -2 -29 -9 -32 -16 -3 -10 20 -12 105 -10 63 2 108 7
108 13 0 6 -11 11 -25 13 -54 7 -54 -7 -9 165 l10 38 32 -27 c26 -22 38 -25
77 -22 126 12 243 173 227 311 -7 58 -26 91 -70 118 -45 28 -107 21 -155 -18
l-37 -30 -31 34 c-35 37 -75 43 -111 18z m314 -37 c24 -26 22 -106 -5 -195
-45 -147 -132 -214 -198 -153 -31 30 -31 62 2 187 30 114 48 143 104 171 45
22 70 20 97 -10z"/>
<path d="M22400 24490 c0 -20 4 -20 338 -18 292 3 337 5 337 18 0 13 -45 15
-337 18 -334 2 -338 2 -338 -18z"/>
<path d="M20643 24473 c-20 -7 -15 -23 6 -23 11 0 22 -4 25 -8 2 -4 -17 -96
-44 -202 -27 -107 -50 -200 -50 -206 0 -19 28 -24 43 -9 8 7 20 41 27 74 7 34
16 64 20 66 11 7 73 -13 82 -27 4 -7 8 -29 8 -49 0 -87 99 -100 141 -17 22 44
23 48 7 48 -7 0 -21 -18 -30 -40 -13 -32 -22 -40 -42 -40 -25 0 -26 3 -26 55
0 59 -13 75 -73 89 l-28 7 28 23 c53 44 106 76 126 76 16 0 18 -3 9 -12 -19
-19 -15 -58 7 -58 48 0 53 74 6 86 -39 10 -67 -2 -136 -57 -35 -28 -65 -46
-67 -41 -1 5 11 64 28 130 16 67 30 126 30 131 0 11 -74 14 -97 4z"/>
<path d="M24898 24473 c-24 -6 -23 -23 1 -23 11 0 22 -4 25 -8 2 -4 -17 -96
-44 -202 -27 -107 -50 -200 -50 -206 0 -19 28 -24 43 -9 8 7 20 41 27 74 7 34
16 64 20 66 11 7 73 -13 82 -27 4 -7 8 -29 8 -49 0 -36 17 -60 53 -72 30 -11
65 11 87 52 23 47 24 51 8 51 -7 0 -21 -18 -31 -40 -14 -31 -24 -40 -43 -40
-22 0 -24 4 -24 54 0 59 -7 69 -62 89 l-35 12 52 42 c29 24 67 46 86 49 28 6
32 4 22 -7 -31 -33 2 -78 34 -46 22 22 9 65 -22 73 -39 10 -67 -2 -136 -57
-35 -28 -65 -46 -67 -41 -1 5 11 64 28 130 16 67 30 126 30 131 0 11 -58 13
-92 4z"/>
<path d="M30308 24473 c-24 -6 -23 -23 1 -23 11 0 22 -4 25 -8 2 -4 -17 -96
-44 -202 -27 -107 -50 -200 -50 -206 0 -19 28 -24 43 -9 8 7 20 41 27 74 7 34
16 64 20 66 11 7 73 -13 82 -27 4 -7 8 -29 8 -49 0 -36 17 -60 53 -72 30 -11
65 11 87 52 23 47 24 51 8 51 -7 0 -21 -18 -31 -40 -14 -31 -24 -40 -43 -40
-22 0 -24 4 -24 55 0 59 -13 75 -73 89 l-28 7 28 23 c53 44 106 76 126 76 16
0 18 -3 9 -12 -7 -7 -12 -23 -12 -36 0 -18 5 -23 21 -20 32 5 45 31 31 62 -23
51 -92 30 -192 -57 -18 -16 -36 -25 -37 -20 -2 6 10 65 27 131 16 67 30 126
30 131 0 11 -58 13 -92 4z"/>
<path d="M21765 24439 c-22 -10 -52 -19 -67 -19 -19 0 -28 -5 -28 -16 0 -13 7
-15 36 -10 19 4 42 10 50 13 12 5 14 -20 12 -173 l-3 -179 -45 -5 c-25 -3 -44
-9 -42 -15 1 -6 50 -10 122 -10 72 0 121 4 123 10 1 6 -19 11 -45 13 l-48 3 0
205 c0 157 -3 204 -12 203 -7 0 -31 -9 -53 -20z"/>
<path d="M26015 24439 c-22 -10 -52 -19 -67 -19 -19 0 -28 -5 -28 -16 0 -15
22 -15 83 2 16 5 17 -8 17 -175 l0 -180 -47 -3 c-26 -2 -48 -9 -51 -15 -3 -10
27 -13 127 -13 112 0 130 2 125 15 -4 10 -20 15 -50 15 l-44 0 0 205 c0 158
-3 205 -12 204 -7 0 -31 -9 -53 -20z"/>
<path d="M21267 24434 c-4 -4 -7 -58 -7 -120 l0 -113 -115 -3 c-152 -4 -152
-22 0 -26 l114 -3 3 -117 c2 -96 6 -117 18 -117 12 0 16 21 18 117 l3 117 114
3 c68 2 115 7 115 13 0 6 -47 11 -115 13 l-114 3 -3 116 c-3 108 -11 137 -31
117z"/>
<path d="M25517 24434 c-4 -4 -7 -58 -7 -120 l0 -113 -115 -3 c-152 -4 -152
-22 0 -26 l114 -3 3 -117 c2 -96 6 -117 18 -117 12 0 16 21 18 117 l3 117 114
3 c68 2 115 7 115 13 0 6 -47 11 -115 13 l-114 3 -3 116 c-3 108 -11 137 -31
117z"/>
<path d="M28258 24383 c-24 -6 -23 -23 1 -23 11 0 22 -4 25 -8 2 -4 -17 -96
-44 -202 -27 -107 -50 -200 -50 -206 0 -19 28 -24 43 -9 8 7 20 41 27 75 7 34
18 64 25 66 15 6 67 -14 77 -29 4 -7 8 -28 8 -47 0 -43 8 -56 43 -69 39 -15
73 1 97 48 23 47 24 51 8 51 -7 0 -21 -18 -31 -40 -14 -31 -24 -40 -43 -40
-22 0 -24 4 -24 55 0 59 -13 75 -73 89 l-28 7 42 35 c49 41 91 64 116 64 13 0
14 -3 5 -12 -17 -17 -15 -48 4 -55 24 -9 48 21 40 51 -7 28 -41 42 -79 32 -13
-3 -53 -29 -88 -57 -35 -28 -65 -46 -67 -41 -1 5 11 64 28 130 16 67 30 126
30 131 0 11 -58 13 -92 4z"/>
<path d="M29385 24349 c-22 -10 -52 -19 -67 -19 -19 0 -28 -5 -28 -16 0 -13 7
-15 36 -10 19 4 42 10 50 13 12 4 14 -23 14 -175 l0 -181 -47 -3 c-26 -2 -48
-9 -51 -15 -3 -10 27 -13 128 -13 101 0 131 3 128 13 -3 6 -25 13 -51 15 l-47
3 0 205 c0 157 -3 204 -12 203 -7 0 -31 -9 -53 -20z"/>
<path d="M28887 24344 c-4 -4 -7 -58 -7 -120 l0 -113 -115 -3 c-152 -4 -152
-22 0 -26 l114 -3 3 -117 c2 -96 6 -117 18 -117 12 0 16 21 18 117 l3 117 114
3 c68 2 115 7 115 13 0 6 -47 11 -115 13 l-114 3 -3 116 c-3 108 -11 137 -31
117z"/>
<path d="M22407 24303 c-4 -3 -7 -12 -7 -20 0 -11 60 -13 338 -11 292 3 337 5
337 18 0 13 -45 15 -331 18 -182 1 -333 -1 -337 -5z"/>
<path d="M23385 23501 c-39 -8 -35 -25 7 -31 27 -4 33 -9 31 -27 -1 -12 -34
-149 -73 -304 -39 -155 -70 -292 -68 -303 4 -28 43 -34 57 -8 5 10 20 62 32
115 21 92 24 97 48 97 31 0 91 -34 92 -52 0 -7 1 -39 2 -71 2 -51 6 -62 30
-83 35 -30 76 -31 112 -2 29 22 64 89 65 121 0 34 -21 12 -43 -43 -22 -55 -55
-84 -84 -73 -11 4 -13 24 -11 83 4 100 -14 122 -115 144 -27 6 -25 8 55 81 77
70 126 98 154 88 7 -3 2 -14 -12 -28 -13 -13 -24 -28 -24 -34 0 -17 32 -42 47
-37 8 3 18 6 23 6 4 0 13 13 20 29 13 33 2 64 -30 81 -48 26 -95 4 -196 -91
-40 -38 -78 -69 -84 -69 -12 0 -14 -12 46 229 24 96 44 178 44 183 0 9 -80 9
-125 -1z"/>
<path d="M25315 23501 c-39 -8 -35 -25 7 -31 27 -4 33 -9 31 -27 -1 -12 -34
-149 -73 -304 -39 -155 -70 -292 -68 -303 4 -27 43 -34 56 -9 5 10 20 62 33
116 22 91 24 97 48 97 34 0 91 -35 92 -57 1 -10 1 -39 -1 -65 -2 -41 2 -52 28
-78 37 -36 78 -39 117 -8 29 22 64 89 65 121 0 33 -22 13 -40 -36 -24 -64 -37
-77 -72 -77 l-29 0 3 79 c4 101 -14 123 -114 145 -26 6 -26 6 30 59 98 91 121
107 157 107 l34 0 -24 -25 c-29 -28 -31 -38 -9 -59 21 -22 31 -20 60 9 19 19
23 31 18 48 -17 57 -65 72 -126 41 -17 -9 -64 -47 -104 -85 -67 -63 -94 -81
-94 -61 0 4 23 94 50 201 28 107 50 198 50 202 0 10 -80 10 -125 0z"/>
<path d="M27193 23454 c-23 -14 -65 -27 -92 -31 -36 -4 -51 -10 -51 -21 0 -12
9 -14 48 -9 26 4 57 9 70 13 l22 6 0 -263 c0 -145 -4 -270 -9 -278 -5 -8 -32
-16 -65 -19 -39 -3 -56 -9 -56 -18 0 -11 32 -14 165 -14 133 0 165 3 165 14 0
9 -17 15 -56 18 -33 3 -60 11 -65 19 -5 8 -9 148 -9 312 0 231 -3 297 -12 296
-7 -1 -32 -12 -55 -25z"/>
<path d="M26320 23251 l0 -161 -160 0 c-153 0 -160 -1 -160 -20 0 -19 7 -20
160 -20 l160 0 0 -161 c0 -147 1 -160 18 -157 15 3 17 20 20 160 l3 157 157 3
c132 3 157 5 157 18 0 13 -25 15 -157 18 l-157 3 -3 157 c-3 140 -5 157 -20
160 -17 3 -18 -10 -18 -157z"/>
<path d="M24130 23170 c0 -20 4 -20 338 -18 292 3 337 5 337 18 0 13 -45 15
-337 18 -334 2 -338 2 -338 -18z"/>
<path d="M24137 22983 c-4 -3 -7 -12 -7 -20 0 -11 60 -13 338 -11 292 3 337 5
337 18 0 13 -45 15 -331 18 -182 1 -333 -1 -337 -5z"/>
<path d="M37410 24700 l0 -790 -2860 0 -2860 0 0 85 c0 47 -2 85 -5 85 -2 0
-44 -20 -92 -44 -106 -53 -244 -105 -377 -142 l-97 -28 98 -26 c122 -34 274
-91 375 -141 43 -22 82 -39 88 -39 6 0 10 32 10 80 l0 80 2860 0 2860 0 0
-785 0 -785 3980 0 3980 0 0 1620 0 1620 -3980 0 -3980 0 0 -790z m7870 -830
l0 -1530 -3890 0 -3890 0 0 1530 0 1530 3890 0 3890 0 0 -1530z"/>
<path d="M43420 24450 c0 -5 12 -12 28 -16 15 -3 30 -6 34 -7 3 -1 -11 -69
-32 -152 -65 -257 -56 -235 -95 -235 -24 0 -35 -5 -35 -15 0 -12 19 -15 111
-15 84 0 110 3 107 13 -3 6 -21 13 -41 15 -40 3 -42 8 -28 62 6 19 15 54 21
78 l11 43 67 -3 67 -3 0 -32 c0 -18 5 -33 11 -33 15 0 56 162 44 174 -6 6 -14
-2 -21 -22 -14 -42 -35 -52 -104 -52 -42 0 -56 3 -52 13 2 6 12 47 22 90 l19
77 106 0 c124 0 140 -9 140 -78 0 -23 5 -42 10 -42 14 0 17 12 25 88 l6 62
-211 0 c-130 0 -210 -4 -210 -10z"/>
<path d="M44050 24450 c0 -5 8 -10 18 -10 42 -1 42 -11 6 -155 -63 -255 -59
-245 -99 -245 -24 0 -35 -5 -35 -15 0 -12 18 -15 100 -15 82 0 100 3 100 15 0
10 -10 15 -30 15 -16 0 -30 5 -30 10 0 6 10 49 21 95 l21 85 55 0 c29 0 70 -7
89 -15 l36 -15 -7 -77 c-8 -100 1 -114 77 -121 51 -4 56 -2 81 28 45 53 31 72
-16 19 -18 -21 -34 -29 -49 -27 -22 3 -23 7 -23 86 0 77 -2 85 -26 106 l-26
22 44 18 c76 31 111 94 82 148 -23 43 -83 58 -241 58 -92 0 -148 -4 -148 -10z
m306 -35 c41 -27 27 -107 -25 -142 -26 -17 -201 -33 -201 -18 0 12 41 169 47
179 9 14 151 -1 179 -19z"/>
<path d="M42969 24252 c-52 -34 -92 -83 -123 -155 -17 -38 -186 -677 -186
-703 0 -2 6 -4 14 -4 10 0 24 42 47 135 l33 135 24 -30 c48 -62 120 -76 212
-41 108 41 180 135 180 233 0 51 -20 110 -47 140 -14 16 -13 19 16 44 68 57
93 164 50 218 -50 63 -145 75 -220 28z m163 -22 c35 -43 16 -154 -34 -207 -19
-20 -28 -22 -69 -17 -26 4 -64 3 -84 0 -30 -6 -36 -11 -33 -29 3 -21 8 -22 82
-22 71 0 80 -2 94 -23 26 -40 19 -143 -15 -210 -39 -77 -87 -114 -159 -120
-91 -8 -134 31 -134 120 0 55 71 332 100 387 28 55 87 121 125 138 41 18 105
10 127 -17z m-139 -257 c-7 -2 -21 -2 -30 0 -10 3 -4 5 12 5 17 0 24 -2 18 -5z"/>
<path d="M39793 24263 c-36 -5 -47 -33 -14 -33 53 0 51 10 51 -310 0 -320 2
-310 -51 -310 -10 0 -19 -7 -19 -15 0 -12 19 -15 110 -15 91 0 110 3 110 15 0
10 -10 15 -30 15 -19 0 -33 7 -40 19 -6 12 -10 135 -10 330 l0 311 -37 -2
c-21 0 -53 -3 -70 -5z"/>
<path d="M38070 24245 c0 -9 9 -15 24 -15 14 0 36 -4 50 -10 l26 -10 0 -289
c0 -277 -1 -291 -19 -301 -11 -5 -33 -10 -50 -10 -21 0 -31 -5 -31 -15 0 -13
37 -15 292 -13 l293 3 19 122 c18 114 17 157 -4 124 -4 -8 -11 -33 -14 -55 -9
-58 -45 -116 -86 -140 -31 -18 -52 -21 -170 -21 l-135 0 -3 153 -3 152 53 0
c109 0 148 -26 148 -96 0 -15 6 -24 15 -24 13 0 15 21 15 130 0 109 -2 130
-15 130 -10 0 -15 -10 -15 -30 0 -19 -9 -40 -25 -55 -21 -22 -33 -25 -100 -25
l-75 0 0 135 0 134 36 7 c20 4 81 4 134 1 145 -8 180 -32 202 -139 7 -36 17
-58 25 -58 10 0 12 9 9 33 -6 32 -26 185 -26 193 0 2 -128 4 -285 4 -247 0
-285 -2 -285 -15z"/>
<path d="M41240 24164 c0 -14 -9 -47 -21 -74 -17 -40 -30 -53 -65 -71 -24 -11
-44 -25 -44 -30 0 -5 20 -9 45 -9 l45 0 0 -160 c0 -178 8 -208 60 -235 64 -33
130 -11 156 51 19 46 19 124 -1 124 -11 0 -15 -12 -15 -50 0 -83 -33 -123 -88
-106 -34 11 -42 50 -42 216 l0 160 70 0 c56 0 70 3 70 15 0 12 -14 15 -70 15
l-70 0 0 90 c0 73 -3 90 -15 90 -9 0 -15 -10 -15 -26z"/>
<path d="M39390 24021 c-68 -14 -120 -72 -103 -117 9 -24 40 -36 63 -24 24 13
28 68 5 76 -24 9 -18 21 16 33 91 31 158 -8 167 -97 l5 -52 -39 0 c-83 0 -187
-40 -222 -85 -49 -62 -34 -126 38 -162 73 -38 153 -29 200 21 28 29 40 33 40
13 0 -23 39 -50 71 -50 43 0 76 37 84 96 6 39 5 47 -9 47 -11 0 -16 -9 -16
-29 0 -45 -17 -81 -39 -81 -27 0 -31 18 -31 143 0 62 -5 129 -9 151 -13 52
-55 93 -115 111 -53 16 -54 16 -106 6z m149 -280 c-4 -88 -18 -113 -77 -138
-45 -19 -97 -2 -117 37 -19 36 -19 44 1 86 18 39 63 70 120 83 79 18 77 20 73
-68z"/>
<path d="M40757 24019 c-52 -12 -84 -35 -96 -70 -12 -35 -6 -56 20 -70 29 -15
59 6 59 42 0 17 -6 32 -15 35 -22 9 -18 19 10 32 47 21 102 15 136 -16 25 -23
33 -38 36 -79 l5 -50 -64 -6 c-70 -6 -150 -37 -186 -70 -32 -30 -46 -90 -30
-125 17 -36 90 -72 146 -72 47 0 116 30 125 55 9 21 21 19 32 -7 6 -13 22 -29
37 -36 24 -11 33 -11 63 4 19 9 38 26 41 38 10 43 9 89 -3 93 -9 3 -13 -6 -13
-26 0 -45 -17 -81 -39 -81 -27 0 -31 18 -31 143 0 62 -4 129 -9 150 -21 88
-121 140 -224 116z m152 -278 c-4 -88 -18 -113 -77 -138 -45 -19 -97 -2 -117
37 -19 36 -19 44 1 86 18 39 63 70 120 83 79 18 77 20 73 -68z"/>
<path d="M41678 24018 c-84 -22 -158 -125 -158 -219 0 -133 118 -241 248 -226
68 7 142 71 142 121 0 27 -14 18 -38 -24 -30 -53 -71 -74 -134 -68 -79 8 -122
62 -130 163 l-3 40 153 3 c151 3 155 3 154 37 -4 126 -111 205 -234 173z m110
-34 c28 -20 48 -58 57 -111 l7 -43 -121 0 -121 0 0 25 c0 44 32 106 64 126 38
23 84 24 114 3z"/>
<path d="M40086 24011 c-48 -7 -61 -31 -18 -31 16 0 34 -6 40 -12 6 -7 12 -82
14 -169 3 -140 5 -159 23 -179 27 -31 76 -50 125 -50 47 0 73 11 113 48 l27
26 0 -39 0 -38 53 7 c28 3 62 6 74 6 16 0 21 4 17 15 -4 8 -16 15 -28 15 -43
0 -46 14 -46 218 l0 195 -52 -7 c-29 -3 -63 -6 -75 -6 -37 0 -27 -27 12 -34
l35 -7 0 -143 c0 -132 -2 -146 -23 -177 -29 -43 -86 -64 -133 -49 -18 6 -35
18 -38 26 -3 9 -6 101 -6 205 l0 189 -37 -1 c-21 -1 -56 -5 -77 -8z"/>
<path d="M38750 23995 c0 -9 9 -15 24 -15 14 0 31 -6 39 -14 8 -8 47 -95 87
-193 39 -98 78 -185 86 -193 22 -23 34 -3 108 179 81 196 82 198 123 212 18 6
33 17 33 25 0 11 -17 14 -80 14 -64 0 -80 -3 -80 -15 0 -8 9 -19 20 -25 11 -6
20 -19 20 -30 0 -28 -103 -272 -110 -263 -14 16 -110 255 -110 273 0 13 9 22
25 26 14 3 25 12 25 20 0 11 -22 14 -105 14 -87 0 -105 -3 -105 -15z"/>
<path d="M43328 23833 c-24 -6 -23 -23 1 -23 11 0 22 -4 25 -8 2 -4 -17 -96
-44 -202 -27 -107 -50 -200 -50 -206 0 -19 28 -24 43 -9 8 7 20 41 27 74 7 34
17 64 22 67 4 3 24 0 43 -6 35 -12 43 -25 43 -78 1 -46 52 -79 97 -62 13 5 33
27 45 49 23 47 24 51 8 51 -7 0 -21 -18 -31 -40 -14 -31 -24 -40 -43 -40 -22
0 -24 4 -24 54 0 58 -6 67 -61 86 l-37 13 54 44 c29 24 68 46 86 49 27 6 31 4
21 -7 -20 -21 -16 -59 6 -59 48 0 53 74 6 86 -39 10 -67 -2 -136 -57 -35 -28
-65 -46 -67 -41 -1 5 11 64 28 130 16 67 30 126 30 131 0 11 -58 13 -92 4z"/>
<path d="M44455 23799 c-22 -10 -52 -19 -67 -19 -19 0 -28 -5 -28 -16 0 -13 7
-15 36 -10 19 4 42 10 50 13 12 4 14 -23 14 -175 l0 -181 -47 -3 c-26 -2 -48
-9 -51 -15 -3 -10 27 -13 128 -13 101 0 131 3 128 13 -3 6 -25 13 -51 15 l-47
3 0 205 c0 157 -3 204 -12 203 -7 0 -31 -9 -53 -20z"/>
<path d="M43957 23794 c-4 -4 -7 -58 -7 -120 l0 -113 -115 -3 c-152 -4 -152
-22 0 -26 l114 -3 3 -117 c2 -96 6 -117 18 -117 12 0 16 21 18 117 l3 117 114
3 c68 2 115 7 115 13 0 6 -47 11 -115 13 l-114 3 -3 116 c-3 108 -11 137 -31
117z"/>
<path d="M41387 22220 c-3 -8 -18 -57 -32 -109 -32 -113 -83 -248 -136 -353
-22 -43 -39 -80 -39 -83 0 -3 38 -5 85 -5 l85 0 0 -3495 0 -3495 -6105 0
-6105 0 0 785 0 785 -3985 0 -3985 0 0 -805 c0 -443 -2 -805 -5 -805 -3 0
-104 50 -225 110 -121 61 -220 108 -220 106 0 -2 29 -42 64 -90 l65 -86 -815
0 -814 0 0 -45 0 -45 814 -2 814 -3 -64 -84 c-35 -47 -62 -87 -60 -89 2 -2
103 47 225 107 l221 111 0 -810 0 -810 3985 0 3985 0 0 790 0 790 6145 0 6145
0 0 3540 0 3540 85 0 c47 0 85 2 85 4 0 2 -22 50 -49 107 -52 109 -110 267
-141 384 -10 39 -20 63 -23 55z m-12337 -7590 l0 -1530 -3895 0 -3895 0 0
1530 0 1530 3895 0 3895 0 0 -1530z"/>
<path d="M21919 15074 c-30 -9 -59 -28 -83 -54 -35 -39 -36 -42 -36 -120 l0
-80 -40 0 c-29 0 -40 -4 -40 -15 0 -11 11 -15 40 -15 l40 0 0 -166 c0 -95 -4
-174 -10 -185 -7 -12 -21 -19 -40 -19 -20 0 -30 -5 -30 -15 0 -12 19 -15 110
-15 89 0 110 3 110 14 0 9 -12 16 -32 18 l-33 3 -3 183 -2 182 93 0 c59 0 97
-4 105 -12 8 -8 12 -62 12 -179 0 -180 0 -179 -56 -179 -15 0 -24 -6 -24 -15
0 -12 19 -15 115 -15 96 0 115 3 115 15 0 10 -10 15 -28 15 -50 0 -52 9 -52
217 l0 192 -147 -6 -146 -6 5 74 c4 41 12 86 19 102 24 54 112 87 174 67 37
-12 44 -24 20 -34 -25 -9 -19 -65 8 -75 45 -18 82 32 57 79 -30 56 -123 75
-221 44z"/>
<path d="M23173 15073 c-42 -5 -45 -33 -5 -33 47 0 52 -14 52 -141 l0 -116
-47 23 c-63 32 -117 31 -183 -3 -154 -81 -166 -286 -24 -386 73 -51 171 -47
237 11 16 14 17 13 17 -16 0 -36 4 -37 98 -26 34 5 52 11 52 20 0 8 -10 14
-24 14 -55 0 -56 4 -56 346 l0 314 -42 -2 c-24 0 -58 -3 -75 -5z m13 -308 l34
-32 0 -121 c0 -121 0 -121 -31 -156 -54 -62 -137 -66 -191 -9 -33 37 -48 83
-48 152 0 109 33 171 103 195 52 18 92 9 133 -29z"/>
<path d="M24733 15073 c-39 -5 -46 -33 -9 -33 55 0 56 -5 56 -341 0 -327 3
-347 44 -278 l18 30 25 -25 c33 -34 86 -50 139 -42 122 16 201 118 192 246 -6
80 -43 135 -117 173 -69 34 -123 35 -185 2 l-46 -24 0 149 0 150 -42 -2 c-24
0 -58 -3 -75 -5z m321 -294 c46 -36 60 -76 61 -169 0 -108 -21 -154 -87 -188
-40 -21 -50 -22 -86 -13 -24 7 -51 24 -66 42 -25 29 -26 36 -26 150 0 66 5
129 11 140 30 57 141 79 193 38z"/>
<path d="M26130 15055 c0 -10 10 -15 34 -15 70 0 66 19 66 -310 0 -329 4 -310
-66 -310 -24 0 -34 -5 -34 -16 0 -14 27 -15 238 -12 220 3 240 5 277 25 156
84 143 256 -25 313 l-50 17 44 17 c54 21 103 73 111 120 13 66 -45 140 -132
172 -27 9 -99 13 -250 14 -183 0 -213 -2 -213 -15z m425 -29 c71 -30 97 -130
52 -197 -36 -54 -77 -69 -189 -69 l-98 0 0 133 c0 74 3 137 7 140 13 13 193 7
228 -7z m25 -315 c49 -26 83 -93 77 -150 -5 -47 -27 -83 -71 -115 -24 -18 -42
-21 -144 -21 l-117 0 -3 153 -3 152 113 0 c91 0 120 -4 148 -19z"/>
<path d="M28357 14961 c-9 -67 -35 -108 -83 -131 -24 -12 -44 -26 -44 -31 0
-5 20 -9 45 -9 l45 0 0 -160 c0 -178 8 -208 60 -235 64 -33 130 -11 156 51 19
46 19 124 -1 124 -11 0 -15 -12 -15 -50 0 -83 -33 -123 -88 -106 -34 11 -42
50 -42 216 l0 160 70 0 c56 0 70 3 70 15 0 12 -14 15 -70 15 l-70 0 0 90 c0
69 -3 90 -14 90 -8 0 -15 -15 -19 -39z"/>
<path d="M27401 14828 c-31 -7 -57 -23 -90 -56 -95 -96 -95 -226 -1 -323 51
-53 108 -74 178 -66 68 7 142 71 142 121 0 27 -18 18 -36 -19 -24 -52 -74 -79
-135 -73 -80 8 -123 61 -131 163 l-3 40 153 3 152 3 0 39 c0 121 -102 196
-229 168z m107 -34 c28 -20 48 -58 57 -111 l7 -43 -121 0 -121 0 0 25 c0 44
32 106 64 126 38 23 84 24 114 3z"/>
<path d="M22336 14821 c-42 -6 -63 -31 -26 -31 12 0 30 -5 41 -10 18 -10 19
-23 19 -179 0 -182 0 -181 -56 -181 -15 0 -24 -6 -24 -15 0 -12 19 -15 115
-15 96 0 115 3 115 15 0 10 -10 15 -29 15 -17 0 -33 5 -36 11 -4 6 -6 70 -6
142 2 142 10 171 61 209 38 28 99 27 122 -2 17 -21 18 -39 16 -189 l-3 -166
-32 -3 c-21 -2 -33 -9 -33 -18 0 -11 21 -14 109 -14 63 0 112 4 116 10 6 10
-1 14 -47 24 l-28 6 0 146 c0 195 -21 241 -113 251 -60 7 -110 -11 -147 -53
l-30 -35 0 46 c0 44 0 45 -32 44 -18 -1 -51 -5 -72 -8z"/>
<path d="M23867 14800 c-48 -30 -107 -109 -107 -142 0 -27 18 -22 35 11 65
126 250 110 293 -25 29 -88 27 -171 -7 -295 -34 -128 -38 -169 -17 -169 14 0
45 100 65 210 12 69 55 187 115 315 48 103 52 115 36 115 -11 0 -76 -127 -111
-217 -13 -35 -27 -63 -30 -63 -3 0 -9 25 -13 55 -23 196 -134 284 -259 205z"/>
<path d="M26878 14823 c-42 -5 -55 -33 -15 -33 49 0 52 -9 55 -174 4 -174 -2
-196 -48 -196 -20 0 -30 -5 -30 -15 0 -12 20 -15 120 -15 100 0 120 3 120 15
0 9 -9 15 -22 15 -13 0 -33 3 -45 6 -22 6 -23 10 -23 133 0 138 15 193 61 225
33 23 53 21 46 -5 -5 -20 22 -59 42 -59 16 0 41 31 41 50 0 26 -39 60 -68 60
-39 0 -86 -28 -107 -63 l-20 -32 -3 48 c-3 52 0 51 -104 40z"/>
<path d="M27748 14823 c-44 -5 -62 -33 -20 -33 49 0 52 -11 52 -191 0 -181 1
-179 -57 -179 -15 0 -23 -5 -21 -12 3 -9 38 -14 116 -16 95 -2 112 0 112 13 0
10 -10 15 -29 15 -17 0 -32 4 -35 9 -3 4 -6 68 -7 140 -1 143 8 173 61 213 38
28 99 27 122 -2 17 -21 18 -39 16 -189 l-3 -166 -32 -3 c-21 -2 -33 -9 -33
-18 0 -21 215 -21 224 1 4 11 -2 15 -22 15 -15 0 -32 4 -39 8 -7 5 -12 61 -15
169 l-3 163 -31 31 c-58 58 -165 50 -224 -17 l-30 -35 0 46 c0 50 3 49 -102
38z"/>
<path d="M25230 14805 c0 -8 9 -15 19 -15 11 0 26 -3 34 -6 14 -5 177 -368
177 -393 0 -6 -13 -40 -29 -74 -39 -88 -95 -127 -139 -98 -11 7 -11 9 2 14 10
4 16 18 16 36 0 24 -5 32 -25 37 -54 13 -74 -48 -30 -91 18 -18 35 -25 65 -25
81 0 101 27 214 293 118 277 122 284 162 299 62 22 43 38 -46 38 -64 0 -80 -3
-80 -15 0 -8 9 -19 20 -25 11 -6 20 -18 20 -28 0 -27 -102 -264 -111 -255 -13
15 -109 247 -109 265 0 10 10 20 25 24 14 3 25 12 25 20 0 11 -22 14 -105 14
-87 0 -105 -3 -105 -15z"/>
<path d="M7469 18918 c-151 -94 -476 -297 -724 -451 -829 -516 -1257 -783
-1685 -1049 -234 -146 -803 -500 -1265 -788 -839 -522 -1784 -1111 -2710
-1688 -269 -167 -491 -306 -493 -307 -2 -2 30 -23 70 -47 40 -25 318 -198 618
-385 300 -187 968 -603 1485 -925 517 -322 1188 -739 1490 -928 303 -188 836
-520 1185 -738 349 -217 808 -503 1020 -635 351 -219 578 -361 1098 -684 l183
-114 32 19 c18 10 289 179 602 374 314 195 746 464 960 598 215 133 536 334
715 445 1149 716 1368 852 1570 978 124 77 482 300 795 495 314 195 779 486
1035 645 256 159 678 422 939 585 275 171 476 291 479 284 3 -9 242 -12 983
-12 l979 0 0 45 0 45 -979 0 c-833 0 -980 -2 -983 -14 -2 -9 -192 104 -573
341 -313 196 -856 533 -1205 751 -349 218 -862 537 -1140 710 -278 173 -633
394 -790 492 -157 98 -807 503 -1445 900 -638 397 -1306 814 -1485 925 -179
111 -362 225 -406 253 l-81 50 -274 -170z m916 -335 c341 -213 829 -517 1085
-676 256 -160 584 -364 730 -455 146 -91 465 -290 710 -442 833 -519 2814
-1753 3010 -1875 776 -482 801 -498 788 -510 -7 -7 -384 -243 -838 -525 -823
-512 -1200 -746 -1857 -1157 -397 -247 -1460 -909 -1788 -1113 -189 -117
-1424 -887 -2228 -1388 -216 -134 -252 -153 -271 -144 -12 5 -252 153 -532
327 -280 175 -810 505 -1179 735 -368 229 -899 560 -1180 735 -280 174 -692
431 -915 570 -223 139 -729 454 -1125 700 -396 247 -846 527 -1000 623 -154
96 -450 280 -658 410 -208 129 -376 236 -375 237 2 2 314 196 693 432 710 442
1823 1135 2510 1563 215 134 489 305 610 380 121 75 670 417 1220 760 550 343
1074 669 1165 725 91 56 302 188 470 293 170 107 311 189 320 186 8 -3 293
-179 635 -391z"/>
<path d="M4542 15718 c-9 -9 -12 -131 -12 -489 0 -415 2 -478 15 -489 9 -7 19
-10 23 -6 12 12 9 973 -3 986 -8 7 -15 6 -23 -2z"/>
<path d="M4747 15723 c-4 -3 -7 -226 -7 -494 0 -479 3 -531 31 -488 5 8 9 228
9 490 0 387 -3 479 -13 488 -8 6 -17 8 -20 4z"/>
<path d="M6637 15676 c-62 -64 -106 -141 -138 -246 -31 -97 -33 -289 -5 -389
31 -114 104 -236 172 -288 50 -38 52 -22 4 38 -79 100 -114 193 -130 344 -22
202 25 407 118 517 49 59 53 66 43 72 -6 4 -34 -18 -64 -48z"/>
<path d="M7920 15719 c0 -6 15 -28 34 -49 48 -54 81 -114 108 -200 20 -66 23
-95 23 -240 0 -145 -3 -174 -23 -240 -27 -86 -60 -146 -108 -200 -33 -36 -43
-60 -26 -60 15 0 94 84 129 136 75 113 114 302 93 455 -22 158 -77 276 -169
362 -53 49 -61 54 -61 36z"/>
<path d="M8402 15718 c-15 -15 -17 -954 -2 -978 9 -13 12 -12 25 4 13 17 15
90 15 486 0 360 -3 470 -13 483 -10 14 -15 15 -25 5z"/>
<path d="M8607 15723 c-4 -3 -7 -226 -7 -494 0 -479 3 -531 31 -488 5 8 9 228
9 490 0 387 -3 479 -13 488 -8 6 -17 8 -20 4z"/>
<path d="M6166 15650 c-39 -35 -58 -78 -76 -172 l-12 -68 -49 0 c-37 0 -49 -4
-49 -15 0 -11 12 -15 45 -15 25 0 45 -4 45 -8 0 -27 -93 -490 -104 -516 -18
-44 -40 -60 -73 -51 -24 6 -25 8 -10 16 45 25 43 79 -3 79 -33 0 -52 -21 -52
-57 0 -61 94 -85 150 -38 46 39 79 127 116 316 19 96 37 193 41 217 l7 42 59
0 c46 0 59 3 59 15 0 12 -13 15 -55 15 l-56 0 7 38 c3 20 12 68 20 105 8 38
14 70 14 72 0 14 52 36 70 30 l22 -7 -21 -15 c-34 -23 -22 -83 16 -83 20 0 53
38 53 60 0 12 -11 32 -25 45 -36 37 -94 34 -139 -5z"/>
<path d="M4960 15653 c0 -5 80 -163 178 -353 135 -264 182 -346 197 -348 16
-2 30 18 77 110 31 62 111 218 178 346 66 128 120 237 120 242 0 6 -142 10
-375 10 -206 0 -375 -3 -375 -7z m680 -69 c0 -8 -194 -393 -237 -472 l-36 -63
-23 41 c-22 39 -245 472 -252 492 -2 4 120 8 272 8 152 0 276 -3 276 -6z"/>
<path d="M9903 15387 c-206 -99 -293 -146 -293 -158 0 -19 584 -303 606 -295
17 7 18 21 2 33 -7 5 -129 65 -270 133 -142 68 -258 127 -258 130 0 4 116 62
258 129 141 68 263 129 271 136 15 14 7 36 -12 34 -7 0 -144 -64 -304 -142z"/>
<path d="M10793 15409 c-92 -36 -136 -111 -97 -167 15 -22 14 -24 -16 -55
-125 -126 4 -269 195 -216 46 13 129 89 106 97 -8 3 -17 0 -19 -7 -8 -25 -81
-51 -140 -51 -118 0 -162 23 -162 86 0 28 8 44 34 70 33 33 36 34 89 28 31 -4
72 -3 92 0 30 6 36 11 33 29 -3 19 -10 22 -57 25 -29 2 -66 -1 -82 -7 -25 -8
-31 -7 -48 15 -33 42 -9 82 68 109 61 21 138 19 183 -5 34 -18 38 -18 53 -4
19 20 9 35 -39 58 -46 22 -130 19 -193 -5z m58 -190 c-16 -6 -28 -6 -35 1 -7
7 1 10 25 9 32 0 33 -1 10 -10z"/>
<path d="M6940 15409 c-14 -6 -36 -20 -48 -32 -24 -22 -62 -88 -62 -107 0 -23
21 -8 39 29 28 53 75 91 115 91 73 0 74 -47 6 -301 -16 -57 -52 -89 -100 -89
l-40 0 20 20 c39 39 13 88 -37 69 -46 -17 -37 -90 13 -109 47 -18 83 -12 120
23 l36 33 33 -33 c40 -40 88 -44 144 -12 56 31 124 139 88 139 -8 0 -22 -18
-32 -39 -31 -69 -93 -108 -142 -90 -38 14 -39 53 -3 197 39 159 60 192 121
192 l40 0 -21 -28 c-32 -43 -4 -85 41 -61 45 23 40 86 -8 108 -49 22 -115 5
-147 -40 l-14 -21 -11 21 c-24 43 -95 62 -151 40z"/>
<path d="M7473 15313 c-20 -7 -15 -23 6 -23 11 0 22 -4 25 -8 2 -4 -17 -96
-44 -202 -27 -107 -50 -200 -50 -206 0 -19 28 -24 43 -9 8 7 20 41 27 74 7 34
17 64 22 67 4 3 24 0 43 -6 35 -12 43 -25 43 -78 1 -46 52 -79 97 -62 13 5 33
27 45 49 23 47 24 51 8 51 -7 0 -21 -18 -31 -40 -14 -31 -24 -40 -43 -40 -22
0 -24 4 -24 55 0 59 -13 75 -73 89 l-28 7 42 35 c49 41 91 64 116 64 13 0 14
-3 5 -12 -19 -19 -15 -58 7 -58 48 0 53 74 6 86 -39 10 -67 -2 -136 -57 -35
-28 -65 -46 -67 -41 -1 5 11 64 28 130 16 67 30 126 30 131 0 11 -74 14 -97 4z"/>
<path d="M8894 15296 c-40 -18 -74 -62 -74 -97 0 -33 26 -52 52 -38 22 12 24
47 3 55 -43 17 18 66 83 66 72 0 116 -66 94 -140 -11 -36 -127 -162 -204 -222
-56 -43 -41 -50 116 -50 l143 0 10 60 c7 46 7 60 -3 60 -7 0 -15 -13 -19 -30
l-7 -30 -96 0 -97 0 30 25 c17 14 60 48 98 77 105 82 130 154 75 224 -40 51
-136 69 -204 40z"/>
<path d="M6095 14381 c-39 -8 -35 -25 7 -31 41 -6 44 16 -43 -334 -39 -154
-69 -289 -67 -300 4 -27 43 -34 56 -9 5 10 19 61 32 113 13 52 24 98 26 101 7
12 83 -13 100 -33 14 -15 18 -33 16 -79 -2 -55 0 -63 27 -89 39 -40 87 -41
124 -2 41 43 75 140 46 130 -6 -2 -19 -25 -29 -51 -24 -64 -38 -79 -69 -75
-25 3 -26 5 -26 80 -1 99 -19 121 -117 142 l-27 6 42 39 c23 21 60 55 82 75
59 54 152 74 99 21 -13 -13 -24 -28 -24 -34 0 -12 29 -41 41 -41 16 0 59 48
59 65 0 25 -46 65 -75 65 -40 0 -80 -25 -161 -101 -69 -63 -94 -80 -94 -62 0
4 23 93 50 199 28 106 50 197 50 203 0 12 -74 13 -125 2z"/>
<path d="M8015 14381 c-39 -8 -35 -25 7 -31 41 -6 44 16 -43 -334 -39 -154
-69 -289 -67 -300 4 -27 43 -34 56 -9 5 10 19 61 32 113 13 52 24 98 26 101 7
12 83 -13 100 -33 14 -15 18 -33 16 -79 -2 -55 0 -63 27 -89 39 -40 87 -41
124 -2 41 43 75 140 46 130 -6 -2 -19 -25 -29 -51 -24 -64 -38 -79 -69 -75
-25 3 -26 5 -26 80 -1 99 -19 121 -117 142 l-27 6 42 39 c23 21 60 55 82 75
59 54 152 74 99 21 -13 -13 -24 -28 -24 -34 0 -12 29 -41 41 -41 16 0 59 48
59 65 0 25 -46 65 -75 65 -40 0 -80 -25 -161 -101 -69 -63 -94 -80 -94 -62 0
4 23 93 50 199 28 106 50 197 50 203 0 12 -74 13 -125 2z"/>
<path d="M6860 14332 c0 -17 158 -99 477 -248 35 -16 63 -31 63 -34 0 -3 -121
-64 -270 -135 -207 -98 -270 -133 -270 -147 0 -10 6 -18 13 -18 8 0 121 52
253 115 343 165 349 169 349 184 0 14 -574 300 -602 301 -7 0 -13 -8 -13 -18z"/>
<path d="M4701 14134 c-88 -32 -132 -81 -151 -170 -20 -92 21 -188 98 -232 52
-29 143 -42 216 -31 71 12 101 27 143 71 41 42 54 78 54 148 1 95 -38 157
-122 201 -58 29 -175 36 -238 13z m163 -34 c49 -18 66 -64 66 -173 0 -145 -29
-187 -127 -187 -44 0 -58 5 -85 29 l-33 29 0 125 c0 111 2 127 20 147 11 12
29 26 40 31 28 11 89 11 119 -1z"/>
<path d="M5193 14143 c-48 -4 -53 -6 -53 -28 0 -19 6 -24 33 -27 l32 -3 3
-167 2 -168 -35 0 c-31 0 -35 -3 -35 -25 l0 -25 130 0 130 0 0 25 c0 23 -4 25
-40 25 l-40 0 0 108 c1 134 20 196 69 229 19 13 37 23 41 23 4 0 6 -19 6 -42
-1 -36 3 -44 27 -57 24 -14 30 -14 55 -1 40 23 43 80 7 109 -61 48 -147 31
-192 -38 l-23 -34 0 52 0 51 -32 -2 c-18 -1 -57 -3 -85 -5z"/>
<path d="M9177 13880 c-55 -17 -74 -53 -42 -80 21 -17 48 6 42 36 -3 19 1 24
22 26 60 8 110 -23 111 -68 0 -18 -8 -22 -52 -28 -112 -15 -179 -67 -161 -123
19 -56 135 -77 193 -35 29 22 29 22 40 2 13 -24 56 -27 88 -4 15 11 22 25 22
50 0 43 -18 45 -22 2 -2 -25 -8 -34 -24 -36 -21 -3 -22 2 -26 97 -4 116 -19
141 -93 160 -50 13 -59 13 -98 1z m131 -181 c-2 -43 -8 -56 -30 -72 -55 -41
-138 -9 -124 47 7 29 42 55 89 66 67 16 68 15 65 -41z"/>
<path d="M8437 13874 c-13 -13 -7 -23 16 -26 21 -3 22 -7 25 -115 3 -108 2
-112 -19 -115 -13 -2 -24 -9 -27 -15 -3 -10 17 -13 77 -13 65 0 81 3 81 15 0
9 -9 15 -25 15 -25 0 -25 1 -25 79 0 44 4 91 10 105 16 43 92 70 130 46 12 -7
15 -32 15 -117 0 -104 -1 -108 -22 -111 -13 -2 -23 -10 -23 -18 0 -11 17 -14
81 -14 60 0 80 3 77 13 -3 6 -14 13 -26 15 -28 4 -36 36 -29 120 4 58 9 70 36
94 34 30 87 38 109 16 8 -8 12 -49 12 -120 l0 -108 -25 0 c-16 0 -25 -6 -25
-15 0 -12 16 -15 80 -15 64 0 80 3 80 15 0 9 -9 15 -25 15 -25 0 -25 0 -25 95
0 108 -15 151 -56 161 -42 11 -114 -2 -137 -24 l-22 -21 -28 25 c-21 18 -40
24 -74 24 -42 0 -103 -25 -103 -42 0 -4 -4 -8 -10 -8 -5 0 -9 10 -7 23 2 20
-3 22 -43 25 -25 2 -49 0 -53 -4z"/>
<path d="M9490 13863 c0 -7 9 -13 20 -13 22 0 80 -48 111 -92 l22 -30 -49 -49
c-27 -27 -62 -53 -78 -57 -16 -4 -31 -13 -34 -20 -3 -9 15 -12 63 -12 l67 0
-7 28 c-4 22 1 33 28 60 l33 32 33 -34 c26 -27 31 -38 25 -60 l-6 -26 71 0
c56 0 71 3 71 15 0 9 -9 15 -23 15 -16 0 -43 20 -81 60 -48 50 -55 63 -47 78
17 32 78 80 110 87 55 12 36 30 -30 28 -68 -1 -77 -6 -60 -27 10 -12 6 -21
-18 -48 l-30 -33 -31 30 c-24 23 -29 35 -25 55 5 25 5 25 -65 25 -49 0 -70 -4
-70 -12z"/>
<path d="M6867 13583 c-4 -3 -7 -12 -7 -20 0 -11 55 -13 308 -11 265 3 307 5
307 18 0 13 -41 15 -301 18 -165 1 -303 -1 -307 -5z"/>
<path d="M17420 14965 c0 -10 10 -15 34 -15 70 0 66 18 66 -295 0 -313 1 -307
-68 -321 -18 -4 -32 -13 -32 -20 0 -11 24 -14 115 -14 91 0 115 3 115 14 0 8
-15 17 -34 20 -67 13 -67 13 -64 311 l3 269 214 -308 c117 -169 218 -305 225
-303 8 3 12 94 16 311 5 336 2 319 68 332 18 3 32 12 32 20 0 11 -24 14 -115
14 -91 0 -115 -3 -115 -14 0 -8 15 -17 35 -20 62 -12 65 -25 65 -269 0 -135
-4 -216 -9 -212 -6 3 -90 120 -187 260 l-177 255 -93 0 c-77 0 -94 -3 -94 -15z"/>
<path d="M18357 14739 c-135 -32 -215 -190 -158 -314 53 -117 193 -167 308
-110 112 56 154 188 98 302 -48 95 -149 145 -248 122z m121 -39 c47 -29 65
-78 65 -180 0 -102 -18 -151 -65 -180 -69 -42 -158 -16 -193 56 -27 57 -27
195 1 249 36 70 125 96 192 55z"/>
<path d="M7700 9040 l0 -1130 45 0 45 0 0 1130 0 1130 -45 0 -45 0 0 -1130z"/>
<path d="M6980 7345 c0 -10 10 -15 33 -15 18 0 42 -7 53 -14 12 -8 71 -93 132
-189 l112 -174 0 -111 c0 -123 -5 -132 -69 -132 -21 0 -31 -5 -31 -15 0 -13
23 -15 145 -15 122 0 145 2 145 15 0 10 -10 15 -34 15 -66 0 -66 0 -66 129 l0
116 105 165 c57 90 114 172 127 181 12 10 37 20 55 24 19 3 33 12 33 20 0 12
-20 15 -105 15 -83 0 -105 -3 -105 -14 0 -8 11 -17 24 -20 37 -9 39 -34 9 -85
-69 -118 -155 -243 -162 -235 -5 5 -50 73 -100 152 -74 116 -90 146 -80 158 6
8 22 14 35 14 15 0 24 6 24 15 0 13 -22 15 -140 15 -118 0 -140 -2 -140 -15z"/>
<path d="M7843 7118 c-58 -12 -127 -76 -147 -135 -32 -94 -14 -175 54 -244 98
-98 247 -88 309 22 19 33 19 49 0 49 -5 0 -16 -16 -25 -36 -25 -53 -67 -76
-132 -71 -83 6 -124 56 -136 164 l-4 43 156 2 157 3 -3 35 c-11 127 -104 195
-229 168z m103 -34 c31 -21 49 -56 59 -111 l7 -43 -121 0 -121 0 0 25 c0 103
102 177 176 129z"/>
<path d="M8247 7120 c-52 -10 -90 -40 -104 -84 -26 -75 26 -134 137 -157 113
-23 156 -65 130 -128 -12 -30 -21 -36 -74 -52 -69 -20 -144 30 -166 112 -17
64 -35 43 -38 -46 -3 -89 9 -114 36 -77 l17 22 40 -20 c100 -51 222 -2 241 96
15 80 -38 135 -156 164 -104 26 -125 44 -121 102 3 46 136 66 184 27 15 -11
31 -38 37 -60 17 -60 30 -46 30 31 0 69 -10 86 -36 60 -6 -6 -24 -4 -49 5 -44
16 -53 16 -108 5z"/>
<path d="M7700 5165 c0 -531 -3 -965 -7 -965 -5 0 -44 27 -87 60 -44 33 -81
59 -82 57 -2 -2 46 -102 106 -223 l109 -219 -1092 -6 c-1166 -6 -1124 -4
-1320 -55 -401 -103 -776 -395 -990 -772 -218 -382 -266 -873 -126 -1297 188
-568 651 -969 1259 -1092 78 -16 252 -17 2200 -21 1542 -2 2146 0 2230 8 276
28 543 128 775 292 115 81 302 267 384 383 73 104 179 314 216 429 58 183 70
263 70 506 0 195 -3 238 -23 326 -32 148 -66 243 -137 389 -84 172 -165 285
-310 430 -265 266 -595 424 -967 464 -62 7 -472 11 -1128 11 -566 0 -1030 2
-1030 5 0 3 50 104 110 225 61 121 108 220 104 220 -3 0 -41 -27 -84 -60 -43
-33 -81 -60 -84 -60 -3 0 -6 434 -6 965 l0 965 -45 0 -45 0 0 -965z m2245
-1400 c202 -30 373 -88 537 -181 798 -451 1027 -1483 494 -2227 -201 -282
-517 -499 -850 -586 -205 -54 -118 -52 -2436 -49 l-2145 4 -96 22 c-144 33
-241 67 -374 132 -158 76 -276 161 -405 290 -128 128 -213 247 -291 405 -68
139 -99 228 -130 375 -20 89 -23 135 -23 300 0 165 3 211 22 300 46 213 134
415 255 587 77 110 246 279 354 356 201 143 462 245 703 276 36 5 1015 9 2175
10 1829 1 2123 -1 2210 -14z"/>
<path d="M6626 2576 c-9 -58 -42 -107 -89 -129 -20 -10 -37 -23 -37 -27 0 -5
19 -10 43 -12 l42 -3 5 -165 c5 -178 11 -200 60 -225 61 -32 125 -13 155 45
20 39 20 130 0 130 -11 0 -15 -12 -15 -50 0 -83 -33 -123 -88 -106 -34 11 -42
50 -42 216 l0 160 70 0 c56 0 70 3 70 15 0 12 -14 15 -70 15 l-70 0 0 90 c0
70 -3 90 -14 90 -9 0 -16 -16 -20 -44z"/>
<path d="M6222 2448 c-60 -13 -136 -87 -152 -148 -28 -104 8 -201 99 -265 37
-26 51 -30 110 -30 55 0 74 4 103 25 38 25 68 67 68 94 0 26 -14 18 -34 -19
-39 -73 -130 -97 -197 -52 -41 27 -66 76 -71 137 l-3 45 153 3 c111 2 152 6
153 15 12 134 -94 224 -229 195z m106 -34 c28 -20 48 -58 57 -111 l7 -43 -121
0 -121 0 0 25 c0 44 32 106 64 126 38 23 84 24 114 3z"/>
<path d="M5698 2443 c-43 -5 -55 -33 -14 -33 50 0 56 -19 56 -181 0 -85 -5
-159 -10 -170 -7 -12 -21 -19 -40 -19 -20 0 -30 -5 -30 -15 0 -12 20 -15 120
-15 100 0 120 3 120 15 0 10 -10 15 -29 15 -61 0 -61 1 -61 139 0 138 15 193
61 225 33 23 53 21 46 -5 -5 -20 22 -59 42 -59 16 0 41 31 41 50 0 38 -55 68
-103 56 -25 -6 -64 -40 -84 -72 -10 -16 -12 -13 -12 29 -1 52 3 51 -103 40z"/>
<path d="M6953 2443 c-46 -4 -63 -33 -20 -33 51 0 55 -13 59 -181 3 -140 5
-159 23 -179 27 -31 76 -50 125 -50 47 0 73 11 113 48 l27 26 0 -37 c0 -41 2
-42 98 -31 34 5 52 11 52 20 0 8 -9 14 -21 14 -11 0 -29 5 -40 10 -18 10 -19
23 -19 207 l0 196 -52 -7 c-29 -3 -63 -6 -75 -6 -37 0 -27 -27 12 -34 l35 -7
0 -143 c0 -132 -2 -146 -23 -177 -29 -43 -81 -62 -130 -48 -19 5 -38 17 -42
27 -4 9 -6 101 -6 205 l1 187 -37 -2 c-21 -1 -57 -3 -80 -5z"/>
<path d="M7518 2443 c-43 -5 -55 -33 -14 -33 50 0 56 -19 56 -181 0 -85 -5
-159 -10 -170 -7 -12 -21 -19 -40 -19 -20 0 -30 -5 -30 -15 0 -12 20 -15 120
-15 100 0 120 3 120 15 0 10 -10 15 -29 15 -61 0 -61 1 -61 139 0 138 15 193
61 225 33 23 53 21 46 -5 -5 -20 22 -59 42 -59 16 0 41 30 41 48 0 23 -11 37
-37 51 -49 25 -107 2 -142 -58 l-21 -36 0 53 0 52 -32 -2 c-18 -1 -50 -3 -70
-5z"/>
<path d="M7925 2441 c-41 -6 -61 -31 -24 -31 11 0 29 -5 40 -10 18 -10 19 -23
19 -179 0 -182 0 -181 -54 -181 -13 0 -23 -6 -23 -15 0 -12 20 -15 114 -15 92
0 113 3 113 14 0 9 -12 16 -32 18 l-33 3 -5 105 c-6 128 1 183 27 218 41 55
122 72 155 32 17 -20 18 -39 16 -189 l-3 -166 -32 -3 c-21 -2 -33 -9 -33 -18
0 -11 21 -14 113 -14 94 0 114 3 114 15 0 9 -10 15 -23 15 -53 0 -54 1 -54
156 0 165 -10 202 -62 234 -62 38 -151 20 -201 -39 l-27 -33 0 46 c0 46 0 46
-32 44 -18 0 -51 -4 -73 -7z"/>
<path d="M8925 2434 c-43 -22 -64 -44 -86 -86 -22 -44 -24 -58 -6 -58 7 0 19
15 25 34 18 49 75 96 115 96 43 0 57 -16 57 -64 -1 -54 -52 -255 -74 -288 -20
-30 -61 -47 -94 -39 l-23 6 21 17 c36 32 14 85 -30 70 -44 -13 -51 -62 -15
-97 37 -38 95 -35 141 8 l36 33 33 -33 c26 -26 41 -33 71 -33 56 0 115 39 147
98 31 57 32 62 14 62 -8 0 -22 -18 -32 -39 -31 -69 -93 -108 -142 -90 -33 12
-38 52 -19 138 48 210 71 251 139 251 l38 0 -21 -28 c-32 -43 -4 -85 41 -61
45 23 40 86 -8 108 -50 23 -101 10 -139 -36 l-22 -26 -11 22 c-25 47 -101 64
-156 35z"/>
<path d="M9468 2343 c-24 -6 -23 -23 1 -23 11 0 22 -4 25 -8 2 -4 -17 -96 -44
-202 -27 -107 -50 -200 -50 -206 0 -19 28 -24 43 -9 8 7 20 41 27 74 7 34 16
64 20 66 11 7 73 -13 82 -27 4 -7 8 -29 8 -49 0 -87 99 -100 141 -17 22 44 23
48 7 48 -7 0 -21 -18 -31 -40 -14 -31 -24 -40 -43 -40 -22 0 -24 4 -24 55 0
59 -13 75 -73 89 l-28 7 42 35 c49 41 91 64 116 64 13 0 14 -3 5 -12 -19 -19
-15 -58 7 -58 48 0 53 74 6 86 -39 10 -65 -1 -135 -55 -36 -28 -66 -47 -68
-42 -2 5 11 63 28 129 16 67 30 126 30 131 0 11 -58 13 -92 4z"/>
</g>
</svg>
