<?xml version="1.0" standalone="no"?>
<!DOCTYPE svg PUBLIC "-//W3C//DTD SVG 20010904//EN"
 "http://www.w3.org/TR/2001/REC-SVG-20010904/DTD/svg10.dtd">
<svg version="1.0" xmlns="http://www.w3.org/2000/svg"
 width="3965.000000pt" height="3894.000000pt" viewBox="0 0 3965.000000 3894.000000"
 preserveAspectRatio="xMidYMid meet">

<g transform="translate(0.000000,3894.000000) scale(0.100000,-0.100000)"
fill="#ffffff" stroke="none">
<path d="M5990 38299 c-562 -73 -1040 -420 -1275 -924 -337 -723 -95 -1588
570 -2031 176 -117 356 -192 579 -241 l121 -27 1073 -3 1072 -4 0 -1284 0
-1285 -85 0 -85 0 35 -70 c68 -134 152 -368 171 -472 l6 -38 -3388 0 -3389 0
-227 -948 c-125 -521 -298 -1237 -383 -1592 -86 -355 -158 -657 -162 -672 l-5
-28 3756 0 3756 0 0 -1285 0 -1285 -84 0 -85 0 54 -112 c57 -119 124 -304 146
-402 l13 -58 22 83 c34 127 80 252 139 377 l54 112 -85 0 -84 0 0 1285 0 1285
3367 2 3367 3 82 340 c45 187 140 585 212 885 73 300 210 873 307 1274 96 401
175 731 175 732 0 2 -1699 4 -3775 4 l-3776 0 7 38 c14 78 96 311 149 420 30
63 55 116 55 118 0 2 -38 4 -85 4 l-85 0 0 1285 0 1285 1008 0 c583 0 1046 4
1100 10 565 60 1040 390 1298 901 43 87 107 275 129 382 78 384 16 777 -175
1121 -69 124 -152 233 -262 345 -238 240 -517 388 -865 458 -82 17 -225 18
-2243 19 -1185 1 -2184 -2 -2220 -7z m4500 -111 c152 -38 220 -62 355 -128
298 -144 524 -366 686 -674 58 -110 121 -296 145 -426 25 -131 25 -410 1 -535
-123 -635 -575 -1094 -1217 -1238 -95 -21 -97 -21 -2220 -25 -1500 -2 -2154 0
-2222 8 -926 105 -1545 996 -1318 1897 150 593 645 1042 1256 1137 74 12 446
14 2259 12 l2170 -1 105 -27z m5125 -6370 c-2 -7 -63 -258 -134 -558 -72 -300
-236 -981 -364 -1515 l-233 -970 -7078 -3 c-6737 -2 -7077 -1 -7072 15 2 10
32 131 65 268 96 403 426 1773 506 2105 40 168 92 387 116 488 l44 182 7077 0
c5657 0 7077 -3 7073 -12z"/>
<path d="M7666 36956 c-9 -58 -42 -107 -89 -129 -20 -10 -37 -23 -37 -27 0 -5
19 -10 43 -12 l42 -3 5 -165 c5 -178 11 -200 60 -225 61 -32 125 -13 155 45
20 39 20 130 0 130 -11 0 -15 -12 -15 -50 0 -83 -33 -123 -88 -106 -34 11 -42
50 -42 216 l0 160 70 0 c56 0 70 3 70 15 0 12 -14 15 -70 15 l-70 0 0 90 c0
70 -3 90 -14 90 -9 0 -16 -16 -20 -44z"/>
<path d="M8980 36972 c0 -15 -11 -51 -25 -78 -23 -47 -42 -63 -87 -78 -32 -10
-19 -25 25 -28 l42 -3 5 -165 c5 -178 11 -200 60 -225 64 -33 130 -11 156 51
19 46 19 124 -1 124 -11 0 -15 -12 -15 -50 0 -83 -33 -123 -88 -106 -34 11
-42 50 -42 216 l0 160 70 0 c56 0 70 3 70 15 0 12 -14 15 -70 15 l-70 0 0 90
c0 73 -3 90 -15 90 -10 0 -15 -10 -15 -28z"/>
<path d="M7258 36831 c-52 -11 -87 -37 -105 -78 -31 -74 26 -142 135 -163 77
-14 118 -37 132 -71 30 -72 -51 -134 -142 -108 -45 12 -84 56 -98 110 -17 64
-35 43 -38 -46 -3 -89 9 -114 36 -77 l17 22 40 -20 c100 -51 222 -2 241 96 15
79 -37 134 -156 164 -99 25 -120 40 -120 86 0 42 37 64 109 64 60 0 99 -28
110 -79 3 -19 12 -36 19 -39 9 -3 12 16 12 67 0 71 -10 87 -36 61 -7 -7 -22
-6 -47 5 -39 16 -51 17 -109 6z"/>
<path d="M8101 36830 c-51 -12 -81 -31 -97 -63 -26 -49 12 -101 56 -77 24 13
28 68 5 76 -24 9 -18 21 16 33 90 31 158 -8 166 -96 l5 -50 -58 -6 c-126 -13
-205 -58 -224 -127 -15 -55 2 -89 60 -117 74 -38 156 -28 204 26 22 24 36 27
36 8 0 -23 39 -50 71 -50 55 0 84 46 80 131 -1 33 -21 16 -21 -18 0 -45 -17
-80 -39 -80 -27 0 -31 18 -31 138 -1 133 -11 186 -41 218 -45 48 -120 70 -188
54z m148 -279 c-4 -88 -18 -113 -77 -138 -45 -19 -97 -2 -117 37 -19 36 -19
44 1 86 18 39 63 70 120 83 79 18 77 20 73 -68z"/>
<path d="M8498 36823 c-43 -5 -55 -33 -14 -33 50 0 56 -19 56 -181 0 -85 -5
-159 -10 -170 -7 -12 -21 -19 -40 -19 -20 0 -30 -5 -30 -15 0 -12 20 -15 120
-15 100 0 120 3 120 15 0 10 -10 15 -29 15 -61 0 -61 1 -61 139 0 138 15 193
61 225 33 23 53 21 46 -5 -5 -20 22 -59 42 -59 16 0 41 31 41 50 0 38 -55 68
-103 56 -25 -6 -64 -40 -84 -72 -10 -16 -12 -13 -12 29 -1 52 3 51 -103 40z"/>
<path d="M8994 30751 c-59 -36 -63 -105 -13 -203 26 -50 24 -55 -16 -68 -49
-16 -130 -96 -156 -155 -57 -129 -6 -257 109 -272 57 -8 86 2 131 42 75 68
118 215 91 312 -8 26 -35 75 -62 110 -82 109 -98 137 -98 169 0 52 51 59 130
19 53 -27 76 -25 86 7 8 27 -1 34 -64 47 -74 15 -102 14 -138 -8z m61 -353
c43 -118 -1 -288 -83 -319 -35 -14 -84 5 -105 40 -49 83 19 283 112 332 42 22
51 17 76 -53z"/>
<path d="M2109 30744 c-209 -64 -310 -306 -211 -506 18 -36 51 -82 73 -103
116 -105 310 -126 403 -45 l33 29 28 -29 c16 -17 32 -30 37 -30 4 0 8 47 8
104 0 57 3 111 6 120 4 10 18 16 35 16 19 0 29 5 29 15 0 13 -23 15 -146 15
-112 0 -145 -3 -142 -12 3 -7 22 -14 44 -16 85 -5 84 -5 84 -81 0 -60 -4 -74
-26 -100 -64 -76 -229 -63 -318 25 -16 16 -41 54 -55 84 -23 49 -26 67 -26
170 0 110 2 118 33 182 93 190 324 200 417 17 13 -25 26 -62 30 -82 4 -22 13
-37 21 -37 11 0 14 27 14 140 0 77 -4 140 -9 140 -5 0 -21 -17 -37 -37 -15
-21 -29 -40 -30 -42 -1 -1 -20 10 -41 27 -68 53 -158 66 -254 36z"/>
<path d="M10040 30741 c0 -5 9 -13 21 -16 23 -8 44 -50 108 -226 l43 -117
-151 -149 c-116 -113 -151 -152 -146 -166 16 -41 50 -18 160 109 61 69 118
135 127 147 23 28 25 25 79 -122 23 -64 49 -124 57 -133 9 -11 29 -18 49 -18
38 0 38 1 19 38 -8 15 -60 150 -115 301 -56 150 -109 287 -117 303 -8 16 -31
36 -49 44 -39 16 -85 19 -85 5z"/>
<path d="M12265 30741 c-39 -8 -35 -25 7 -31 27 -4 33 -9 31 -27 -1 -12 -34
-149 -73 -304 -39 -155 -70 -292 -68 -303 4 -27 43 -34 56 -9 5 10 20 62 33
116 22 91 24 97 48 97 34 0 91 -35 92 -57 1 -10 1 -39 -1 -65 -2 -41 2 -52 28
-78 37 -36 78 -39 117 -8 29 22 64 89 65 121 0 33 -22 13 -40 -36 -24 -64 -38
-79 -69 -75 -25 3 -26 5 -26 82 -1 73 -3 80 -28 102 -16 13 -48 29 -72 35
l-43 11 81 74 c76 69 125 97 153 87 7 -3 2 -14 -12 -28 -13 -13 -24 -28 -24
-34 0 -12 29 -41 41 -41 16 0 59 48 59 65 0 25 -46 65 -75 65 -40 0 -82 -26
-161 -101 -67 -63 -94 -81 -94 -61 0 4 23 94 50 201 28 106 50 197 50 202 0
10 -79 10 -125 0z"/>
<path d="M2702 30715 c-27 -20 -29 -56 -2 -80 41 -37 101 11 77 63 -6 12 -14
22 -18 22 -4 0 -13 2 -21 5 -7 3 -23 -2 -36 -10z"/>
<path d="M14210 30709 c-43 -17 -89 -71 -111 -128 -40 -106 -36 -339 8 -425
61 -122 214 -156 306 -68 60 57 87 147 87 292 0 227 -74 341 -218 339 -26 0
-58 -5 -72 -10z m124 -24 c18 -9 40 -29 50 -46 43 -73 42 -436 -1 -511 -27
-47 -83 -73 -127 -58 -80 26 -95 74 -96 310 0 197 6 239 42 278 41 43 80 51
132 27z"/>
<path d="M3575 30495 c-38 -10 -60 -24 -91 -58 -88 -97 -86 -224 6 -318 51
-53 108 -74 178 -66 68 7 142 71 142 121 0 27 -14 18 -35 -21 -25 -46 -69 -73
-121 -73 -80 0 -139 65 -146 160 l-3 45 153 3 c111 2 152 6 153 15 8 86 -47
178 -116 192 -61 12 -73 12 -120 0z m113 -31 c28 -20 48 -58 57 -111 l7 -43
-121 0 -121 0 0 25 c0 44 32 106 64 126 38 23 84 24 114 3z"/>
<path d="M6630 30490 c-97 -33 -145 -110 -104 -168 14 -21 14 -24 -16 -54
-126 -125 4 -270 195 -217 43 12 129 89 107 96 -7 3 -20 -4 -30 -15 -32 -37
-133 -53 -220 -36 -79 16 -98 92 -37 150 35 32 37 33 99 27 80 -7 116 1 116
27 0 25 -28 33 -112 28 -61 -3 -72 0 -84 17 -33 49 41 104 151 112 46 4 71 1
95 -11 41 -20 66 -20 73 -2 7 18 -8 31 -56 51 -48 20 -110 19 -177 -5z m58
-191 c-12 -7 -24 -7 -35 0 -15 9 -12 10 17 10 29 0 32 -1 18 -10z"/>
<path d="M2683 30493 c-46 -4 -63 -33 -20 -33 44 0 47 -14 47 -191 0 -178 0
-179 -51 -179 -10 0 -19 -7 -19 -15 0 -12 18 -15 105 -15 87 0 105 3 105 15 0
9 -9 15 -25 15 -14 0 -29 8 -35 19 -6 12 -10 96 -10 205 l0 186 -27 -2 c-16
-1 -47 -3 -70 -5z"/>
<path d="M3928 30493 c-39 -4 -63 -33 -27 -33 11 0 29 -5 40 -10 18 -10 19
-23 19 -179 0 -183 1 -181 -57 -181 -15 0 -23 -5 -21 -12 3 -9 38 -14 116 -16
93 -2 112 0 112 12 0 9 -12 16 -32 18 l-33 3 -3 135 c-3 148 4 176 50 215 22
18 41 25 74 25 70 0 75 -15 72 -211 l-3 -164 -32 -3 c-21 -2 -33 -9 -33 -18 0
-11 21 -14 109 -14 63 0 112 4 116 10 6 10 -1 14 -47 24 l-28 6 0 146 c0 165
-10 202 -62 234 -62 38 -151 20 -201 -39 l-27 -33 0 46 c0 51 3 50 -102 39z"/>
<path d="M4925 30484 c-43 -22 -64 -44 -86 -86 -23 -44 -24 -58 -5 -58 8 0 17
11 20 25 9 34 61 91 95 103 46 16 75 -4 79 -54 3 -44 -39 -227 -65 -283 -18
-37 -61 -60 -98 -53 -23 4 -23 4 -4 23 38 38 11 87 -38 68 -46 -17 -37 -90 13
-109 47 -18 83 -12 120 23 l36 33 33 -33 c40 -40 91 -44 145 -12 40 25 53 39
80 91 24 44 24 48 7 48 -8 0 -22 -18 -32 -39 -31 -69 -93 -108 -142 -90 -38
14 -39 53 -3 197 41 167 62 197 138 193 l23 -1 -21 -28 c-32 -43 -4 -85 41
-61 45 23 40 86 -8 108 -50 23 -101 10 -139 -36 l-22 -26 -11 22 c-25 47 -101
64 -156 35z"/>
<path d="M7669 30477 c-47 -25 -105 -92 -115 -133 -8 -32 5 -45 20 -19 79 138
258 131 304 -11 29 -88 27 -171 -7 -295 -32 -121 -38 -169 -20 -169 16 0 36
57 58 166 25 122 44 177 110 324 62 137 67 150 51 150 -11 0 -93 -165 -121
-242 -16 -47 -29 -49 -29 -4 0 19 -9 62 -19 96 -45 144 -126 192 -232 137z"/>
<path d="M2900 30475 c0 -8 8 -15 18 -15 40 0 60 -33 137 -219 43 -105 84
-191 91 -191 19 0 28 17 98 189 81 196 82 198 123 212 18 6 33 17 33 25 0 11
-17 14 -80 14 -64 0 -80 -3 -80 -15 0 -8 9 -19 20 -25 11 -6 20 -19 20 -30 0
-28 -103 -272 -111 -263 -3 5 -31 69 -62 143 -57 138 -60 160 -16 160 11 0 19
7 19 15 0 12 -18 15 -105 15 -87 0 -105 -3 -105 -15z"/>
<path d="M13010 30410 c0 -20 4 -20 338 -18 292 3 337 5 337 18 0 13 -45 15
-337 18 -334 2 -338 2 -338 -18z"/>
<path d="M5463 30371 c-99 -62 -113 -310 -23 -396 26 -25 40 -30 93 -33 119
-6 169 59 169 218 0 100 -25 172 -70 205 -39 28 -128 32 -169 6z m122 -11 c41
-16 55 -64 55 -195 0 -161 -21 -205 -99 -205 -70 0 -100 63 -100 210 0 163 48
227 144 190z"/>
<path d="M13017 30223 c-4 -3 -7 -12 -7 -20 0 -11 60 -13 338 -11 292 3 337 5
337 18 0 13 -45 15 -331 18 -182 1 -333 -1 -337 -5z"/>
<path d="M5912 30154 c-45 -32 -15 -101 40 -90 25 5 28 3 28 -22 0 -34 -34
-110 -62 -139 -12 -13 -19 -26 -15 -29 23 -23 81 63 96 142 11 59 0 123 -25
141 -23 17 -35 16 -62 -3z"/>
<path d="M7012 30154 c-45 -31 -16 -100 40 -92 25 4 28 1 28 -21 0 -32 -41
-121 -63 -140 -21 -16 -22 -31 -3 -31 21 0 68 75 82 132 29 108 -20 197 -84
152z"/>
<path d="M8222 30154 c-45 -32 -15 -101 40 -90 25 5 28 3 28 -22 0 -32 -40
-122 -63 -141 -20 -16 -22 -31 -4 -31 28 0 74 79 87 150 11 60 5 101 -22 129
-23 25 -36 26 -66 5z"/>
<path d="M9342 30154 c-45 -32 -15 -101 40 -90 25 5 28 3 28 -22 0 -32 -40
-122 -63 -141 -20 -16 -22 -31 -4 -31 28 0 74 79 87 150 11 60 5 101 -22 129
-23 25 -36 26 -66 5z"/>
<path d="M10572 30154 c-45 -32 -15 -101 40 -90 24 5 28 2 28 -18 0 -38 -20
-88 -52 -129 -30 -38 -32 -54 -4 -44 42 16 95 172 78 229 -17 58 -53 78 -90
52z"/>
<path d="M2620 23915 l0 -1615 2755 0 2755 0 0 -1290 0 -1290 -85 0 -84 0 48
-97 c59 -121 96 -216 136 -358 l32 -109 13 54 c24 100 91 284 145 398 l54 112
-85 0 -84 0 0 1290 0 1290 2755 0 2755 0 0 1615 0 1615 -5555 0 -5555 0 0
-1615z m11020 0 l0 -1535 -5465 0 -5465 0 0 1535 0 1535 5465 0 5465 0 0
-1535z"/>
<path d="M10347 24368 c-61 -63 -106 -143 -139 -248 -30 -97 -32 -288 -4 -390
25 -93 82 -195 143 -257 56 -58 94 -65 48 -10 -89 110 -128 204 -145 357 -13
108 -6 213 21 317 22 88 48 141 105 215 58 75 39 85 -29 16z"/>
<path d="M11630 24409 c0 -6 20 -34 45 -62 52 -59 97 -166 116 -271 19 -110 7
-314 -24 -408 -26 -82 -69 -158 -112 -198 -25 -23 -33 -50 -16 -50 5 0 36 29
69 64 107 114 155 252 155 441 -1 123 -18 204 -64 302 -40 85 -169 224 -169
182z"/>
<path d="M9883 24348 c-38 -27 -66 -87 -83 -180 l-12 -68 -49 0 c-37 0 -49 -4
-49 -15 0 -11 12 -15 45 -15 25 0 45 -3 45 -6 0 -19 -83 -448 -95 -490 -18
-64 -44 -89 -82 -79 -24 6 -25 8 -10 16 45 26 41 79 -7 79 -31 0 -46 -19 -46
-56 0 -41 30 -64 81 -64 84 0 134 90 178 320 17 85 35 183 42 218 l12 62 58 0
c46 0 59 3 59 15 0 12 -13 15 -55 15 -30 0 -55 4 -55 9 0 5 9 53 20 107 24
117 53 154 99 125 11 -7 9 -11 -8 -20 -25 -14 -29 -66 -5 -75 25 -9 33 -7 54
14 27 27 25 56 -5 85 -32 33 -88 33 -132 3z"/>
<path d="M6138 24353 c-34 -5 -38 -33 -5 -33 46 0 47 -7 47 -316 0 -314 2
-304 -51 -304 -10 0 -19 -7 -19 -15 0 -12 19 -15 110 -15 91 0 110 3 110 15 0
10 -10 15 -30 15 -19 0 -33 7 -40 19 -6 12 -10 135 -10 330 l0 311 -42 -1
c-24 -1 -55 -4 -70 -6z"/>
<path d="M4410 24337 c0 -8 19 -17 48 -23 l47 -9 3 -290 c3 -323 4 -315 -65
-315 -23 0 -33 -5 -33 -15 0 -13 37 -15 292 -13 l293 3 19 122 c18 110 18 148
0 131 -3 -4 -12 -36 -21 -72 -18 -80 -58 -128 -121 -145 -23 -7 -92 -10 -154
-9 l-113 3 -3 153 -3 152 59 0 c104 0 142 -24 142 -89 0 -21 5 -31 15 -31 13
0 15 21 15 130 0 109 -2 130 -15 130 -10 0 -15 -10 -15 -30 0 -19 -9 -40 -25
-55 -21 -22 -33 -25 -100 -25 l-75 0 0 135 0 135 26 6 c14 4 74 4 133 2 156
-8 191 -31 212 -140 8 -38 16 -58 26 -58 10 0 12 9 9 33 -6 32 -26 185 -26
193 0 2 -128 4 -285 4 -231 0 -285 -3 -285 -13z"/>
<path d="M8680 24343 c0 -5 80 -163 178 -353 136 -264 182 -346 197 -348 16
-2 31 20 82 120 34 68 114 223 178 346 63 122 115 227 115 232 0 6 -140 10
-375 10 -206 0 -375 -3 -375 -7z m680 -71 c0 -9 -258 -514 -268 -524 -4 -4
-48 70 -96 165 -49 94 -111 213 -137 264 -27 50 -49 94 -49 97 0 3 124 6 275
6 151 0 275 -3 275 -8z"/>
<path d="M7580 24253 c0 -35 -31 -102 -56 -125 -11 -9 -31 -21 -47 -27 -40
-15 -33 -29 16 -33 l42 -3 5 -165 c5 -178 11 -200 60 -225 61 -32 125 -13 155
45 20 39 20 130 0 130 -11 0 -15 -12 -15 -50 0 -83 -33 -123 -88 -106 -34 11
-42 50 -42 216 l0 160 70 0 c56 0 70 3 70 15 0 12 -14 15 -70 15 l-70 0 0 90
c0 73 -3 90 -15 90 -10 0 -15 -10 -15 -27z"/>
<path d="M5731 24110 c-51 -12 -81 -31 -97 -63 -26 -49 12 -101 56 -77 24 13
28 68 5 76 -24 9 -18 21 16 33 90 31 158 -8 166 -96 l5 -50 -66 -6 c-202 -19
-300 -172 -156 -244 73 -38 153 -29 200 20 l25 26 26 -31 c52 -64 131 -28 144
65 6 39 5 47 -9 47 -11 0 -16 -9 -16 -29 0 -45 -17 -81 -39 -81 -27 0 -31 18
-31 138 -1 133 -11 186 -41 218 -45 48 -120 70 -188 54z m148 -279 c-4 -67 -8
-83 -28 -105 -51 -54 -137 -52 -166 5 -19 35 -19 43 1 85 18 39 63 70 120 83
79 18 77 20 73 -68z"/>
<path d="M7105 24113 c-97 -24 -147 -110 -84 -143 44 -24 84 35 48 71 -25 25
-25 25 12 38 90 31 158 -8 166 -96 l5 -50 -64 -6 c-83 -8 -168 -45 -198 -87
-26 -37 -31 -99 -10 -125 36 -44 144 -68 202 -46 13 5 35 21 48 35 28 29 40
33 40 12 0 -8 12 -24 27 -36 52 -41 116 1 128 83 5 39 4 47 -9 47 -11 0 -16
-9 -16 -29 0 -45 -17 -81 -39 -81 -27 0 -31 18 -31 143 0 62 -4 129 -9 150
-10 42 -41 81 -81 102 -29 15 -106 25 -135 18z m144 -282 c-4 -67 -8 -83 -28
-105 -54 -57 -144 -50 -170 12 -28 68 31 142 130 161 76 15 71 19 68 -68z"/>
<path d="M8022 24108 c-57 -13 -136 -87 -151 -143 -43 -158 62 -305 218 -305
71 0 161 69 161 124 0 27 -14 18 -35 -21 -25 -46 -69 -73 -121 -73 -80 0 -139
65 -146 160 l-3 45 153 3 152 3 0 39 c0 121 -102 196 -228 168z m106 -34 c28
-20 48 -58 57 -111 l7 -43 -121 0 -121 0 0 25 c0 44 32 106 64 126 38 23 84
24 114 3z"/>
<path d="M6428 24103 c-41 -5 -62 -33 -25 -33 51 0 55 -13 59 -181 3 -140 5
-159 23 -179 61 -69 187 -66 244 6 l21 27 0 -42 c0 -46 3 -47 94 -35 54 8 60
26 14 39 l-33 10 -3 198 c-3 225 8 203 -99 191 -35 -5 -53 -11 -53 -20 0 -8 9
-14 19 -14 50 0 51 -3 51 -155 0 -131 -2 -145 -23 -176 -29 -43 -81 -62 -130
-48 -19 5 -38 17 -42 27 -3 9 -6 101 -5 204 l0 188 -37 -2 c-21 -1 -54 -3 -75
-5z"/>
<path d="M10645 24094 c-16 -8 -38 -23 -49 -32 -19 -18 -56 -84 -56 -102 0
-23 21 -8 39 29 28 53 75 91 115 91 42 0 56 -16 56 -63 0 -45 -44 -227 -67
-275 -19 -39 -58 -62 -95 -55 -26 5 -26 5 -7 24 38 38 14 88 -33 70 -42 -16
-51 -66 -18 -96 10 -9 39 -20 63 -22 40 -5 48 -2 82 29 l38 35 26 -29 c36 -41
95 -48 148 -19 57 33 127 141 90 141 -8 0 -22 -18 -32 -39 -31 -69 -93 -108
-142 -90 -38 14 -39 53 -3 197 41 167 62 197 138 193 l23 -1 -21 -28 c-32 -43
-4 -85 41 -61 45 23 40 86 -8 108 -49 22 -115 5 -147 -40 l-14 -21 -11 21
c-25 47 -101 64 -156 35z"/>
<path d="M5090 24086 c0 -8 15 -17 34 -20 37 -7 35 -4 162 -313 20 -51 43 -93
49 -93 19 0 28 16 85 155 86 214 96 232 136 247 62 22 43 38 -46 38 -64 0 -80
-3 -80 -15 0 -8 9 -19 20 -25 11 -6 20 -18 20 -28 0 -27 -103 -273 -111 -265
-12 14 -109 257 -109 275 0 10 10 20 25 24 14 3 25 12 25 20 0 11 -22 14 -105
14 -83 0 -105 -3 -105 -14z"/>
<path d="M11188 24003 c-24 -6 -23 -23 1 -23 11 0 22 -4 25 -8 2 -4 -17 -96
-44 -202 -27 -107 -50 -200 -50 -206 0 -19 28 -24 43 -9 8 7 20 41 27 74 7 34
16 64 20 66 11 7 73 -13 82 -27 4 -7 8 -29 8 -49 0 -36 17 -60 53 -72 30 -11
65 11 87 52 23 47 24 51 8 51 -7 0 -21 -18 -31 -40 -14 -31 -24 -40 -43 -40
-22 0 -24 4 -24 55 0 59 -13 75 -73 89 l-28 7 42 35 c48 40 91 64 114 64 14 0
14 -2 0 -24 -14 -21 -14 -25 0 -36 32 -27 66 13 47 56 -9 19 -19 24 -46 24
-32 0 -56 -14 -155 -88 -17 -13 -31 -18 -31 -12 0 6 14 65 30 130 17 65 30
124 30 129 0 11 -58 13 -92 4z"/>
<path d="M14235 24093 c-107 -54 -247 -108 -379 -146 -114 -33 -117 -35 -80
-41 76 -14 310 -98 421 -151 l113 -54 0 85 0 84 9160 0 9160 0 0 -600 0 -600
-3150 0 -3150 0 0 -1620 0 -1620 6345 0 6345 0 0 1620 0 1620 -3150 0 -3150 0
0 645 0 645 -9205 0 -9204 0 -3 84 -3 84 -70 -35z m24695 -3043 l0 -1530
-6255 0 -6255 0 0 1530 0 1530 6255 0 6255 0 0 -1530z"/>
<path d="M36297 22056 c-62 -64 -106 -141 -138 -246 -31 -97 -33 -289 -5 -390
25 -93 82 -195 143 -257 65 -67 87 -61 32 9 -129 163 -170 413 -108 655 22 86
48 139 105 215 24 32 39 60 34 63 -5 3 -33 -19 -63 -49z"/>
<path d="M37580 22099 c0 -6 15 -28 34 -49 48 -54 81 -114 108 -200 20 -66 23
-95 23 -240 0 -145 -3 -174 -23 -240 -27 -86 -60 -146 -108 -200 -33 -36 -43
-60 -26 -60 13 0 91 81 122 125 68 99 103 226 103 375 0 178 -48 319 -145 425
-54 60 -88 84 -88 64z"/>
<path d="M35816 22030 c-39 -35 -58 -78 -76 -172 l-12 -68 -49 0 c-37 0 -49
-4 -49 -15 0 -11 12 -15 45 -15 25 0 45 -3 45 -6 0 -19 -83 -448 -95 -490 -18
-64 -44 -89 -82 -79 -24 6 -25 8 -10 16 45 25 43 79 -3 79 -33 0 -52 -21 -52
-57 0 -61 94 -85 150 -38 46 39 78 126 115 315 19 96 38 194 42 218 l7 42 59
0 c46 0 59 3 59 15 0 12 -13 15 -55 15 l-56 0 7 38 c24 136 36 178 55 195 24
19 37 21 58 8 11 -7 9 -11 -8 -20 -45 -25 -16 -90 31 -72 72 27 32 121 -51
121 -31 0 -49 -7 -75 -30z"/>
<path d="M34620 22027 c0 -7 4 -17 9 -22 5 -6 82 -154 171 -330 90 -176 167
-326 173 -332 27 -35 44 -9 217 328 96 187 176 346 178 354 3 13 -48 15 -372
15 -302 0 -376 -3 -376 -13z m680 -65 c0 -11 -258 -514 -269 -525 -4 -4 -54
83 -111 195 -57 112 -118 231 -137 265 -18 33 -33 64 -33 67 0 3 124 6 275 6
151 0 275 -4 275 -8z"/>
<path d="M27585 21784 c-43 -22 -64 -44 -86 -86 -23 -44 -24 -58 -5 -58 8 0
17 11 20 25 9 34 61 91 95 103 46 16 75 -4 79 -55 3 -45 -38 -224 -65 -281
-18 -38 -61 -62 -98 -54 -23 4 -23 4 -4 23 25 25 24 55 -1 69 -43 23 -85 -33
-60 -80 27 -50 106 -53 156 -7 l36 33 33 -33 c26 -26 41 -33 72 -33 66 0 144
65 167 138 13 39 -20 25 -39 -17 -20 -46 -49 -75 -87 -90 -38 -14 -76 1 -84
35 -9 36 52 286 78 319 24 31 58 46 86 38 l21 -5 -20 -27 c-31 -42 -2 -84 41
-61 54 29 42 93 -21 111 -48 15 -84 5 -120 -31 -28 -27 -30 -28 -39 -9 -24 45
-101 61 -155 33z"/>
<path d="M31065 21784 c-16 -8 -38 -23 -49 -32 -19 -18 -56 -84 -56 -102 0
-22 21 -8 39 28 57 110 171 131 171 30 0 -55 -48 -245 -72 -285 -19 -33 -58
-51 -95 -45 -22 3 -22 3 -2 23 38 38 14 88 -35 70 -49 -19 -43 -91 10 -111 47
-18 83 -12 120 23 l36 33 33 -33 c40 -40 88 -44 144 -12 56 31 124 139 88 139
-8 0 -22 -18 -32 -39 -31 -70 -92 -109 -140 -91 -40 15 -41 51 -5 198 39 159
60 192 121 192 l40 0 -21 -28 c-32 -43 -4 -85 40 -62 67 36 27 120 -56 120
-33 0 -64 -16 -90 -47 l-22 -26 -11 22 c-25 47 -101 64 -156 35z"/>
<path d="M33400 21789 c-63 -26 -120 -90 -135 -151 -10 -39 9 -35 34 7 42 72
129 100 206 66 39 -17 50 -28 71 -76 42 -91 43 -184 5 -320 -34 -121 -39 -165
-17 -165 14 0 47 107 61 195 11 66 45 163 102 290 65 142 69 155 53 155 -11 0
-93 -165 -121 -242 -16 -47 -29 -49 -29 -4 0 62 -39 166 -79 208 -30 33 -45
41 -81 44 -25 2 -56 -1 -70 -7z"/>
<path d="M36595 21784 c-43 -22 -64 -44 -86 -86 -22 -44 -24 -58 -6 -58 7 0
19 15 25 34 18 49 75 96 115 96 44 0 57 -15 57 -66 0 -47 -43 -221 -67 -272
-18 -38 -61 -62 -98 -54 -23 4 -23 4 -4 23 38 38 11 87 -38 68 -46 -17 -37
-90 13 -109 47 -18 83 -12 120 23 l36 33 33 -33 c40 -40 91 -44 145 -12 40 25
53 39 80 91 24 44 24 48 7 48 -8 0 -22 -18 -32 -39 -31 -69 -93 -108 -142 -90
-38 14 -39 53 -3 197 39 159 60 192 121 192 l40 0 -21 -28 c-32 -43 -4 -85 41
-61 45 23 40 86 -8 108 -49 22 -115 5 -147 -40 l-14 -21 -11 21 c-25 47 -101
64 -156 35z"/>
<path d="M29880 21710 c0 -20 4 -20 338 -18 292 3 337 5 337 18 0 13 -45 15
-337 18 -334 2 -338 2 -338 -18z"/>
<path d="M28128 21693 c-24 -6 -23 -23 1 -23 11 0 22 -4 25 -8 2 -4 -17 -96
-44 -202 -27 -107 -50 -200 -50 -206 0 -19 28 -24 43 -9 8 7 20 41 27 75 7 34
18 64 25 66 15 6 67 -14 77 -29 4 -7 8 -28 8 -48 0 -58 51 -90 101 -64 16 9
29 17 29 19 0 2 7 20 15 40 22 52 -4 48 -28 -4 -14 -31 -24 -40 -43 -40 -22 0
-24 4 -24 55 0 59 -13 75 -73 89 l-28 7 28 23 c51 43 106 76 125 76 17 0 18
-2 4 -21 -17 -25 -11 -49 14 -49 47 0 51 74 5 86 -39 10 -67 -2 -136 -57 -35
-28 -65 -46 -67 -41 -1 5 11 64 28 130 16 67 30 126 30 131 0 11 -58 13 -92 4z"/>
<path d="M31608 21693 c-24 -6 -23 -23 1 -23 11 0 22 -4 25 -8 2 -4 -18 -97
-45 -207 -47 -188 -52 -225 -30 -225 21 0 39 31 51 90 7 34 18 64 25 66 15 6
67 -14 77 -29 4 -7 8 -28 8 -48 0 -87 99 -100 141 -17 22 44 23 48 7 48 -7 0
-21 -18 -30 -40 -13 -32 -22 -40 -42 -40 -25 0 -26 3 -26 55 0 59 -13 75 -73
89 l-28 7 42 35 c48 40 91 64 114 64 14 0 15 -2 1 -21 -17 -25 -11 -49 14 -49
47 0 51 74 5 86 -39 10 -67 -2 -136 -57 -35 -28 -65 -46 -67 -41 -1 5 11 64
28 130 16 67 30 126 30 131 0 11 -58 13 -92 4z"/>
<path d="M37138 21693 c-24 -6 -23 -23 1 -23 11 0 22 -4 25 -8 2 -4 -17 -96
-44 -202 -27 -107 -50 -200 -50 -206 0 -19 28 -24 43 -9 8 7 20 41 27 74 7 34
17 64 22 67 4 3 24 0 43 -6 35 -12 43 -25 43 -78 1 -46 52 -79 97 -62 13 5 33
27 45 49 23 47 24 51 8 51 -7 0 -21 -18 -30 -40 -13 -32 -22 -40 -42 -40 -25
0 -26 3 -26 55 0 59 -13 75 -73 89 l-28 7 42 35 c48 40 91 64 114 64 14 0 14
-2 1 -23 -18 -26 -7 -51 19 -45 53 10 39 88 -15 88 -39 0 -60 -11 -130 -68
-30 -24 -56 -40 -58 -34 -1 5 11 64 28 130 16 67 30 126 30 131 0 11 -58 13
-92 4z"/>
<path d="M29255 21659 c-22 -10 -52 -19 -67 -19 -19 0 -28 -5 -28 -16 0 -15
22 -15 83 2 16 5 17 -8 17 -175 l0 -180 -47 -3 c-26 -2 -48 -8 -51 -16 -3 -10
23 -12 122 -10 126 3 174 18 86 28 l-45 5 -3 203 c-2 152 -5 202 -15 201 -6 0
-30 -9 -52 -20z"/>
<path d="M28757 21654 c-4 -4 -7 -58 -7 -120 l0 -113 -115 -3 c-152 -4 -152
-22 0 -26 l114 -3 3 -117 c2 -96 6 -117 18 -117 12 0 16 21 18 117 l3 117 114
3 c68 2 115 7 115 13 0 6 -47 11 -115 13 l-114 3 -3 116 c-3 108 -11 137 -31
117z"/>
<path d="M34162 21648 c-7 -7 -12 -24 -12 -38 0 -14 5 -31 12 -38 7 -7 24 -12
38 -12 14 0 31 5 38 12 7 7 12 24 12 38 0 14 -5 31 -12 38 -7 7 -24 12 -38 12
-14 0 -31 -5 -38 -12z"/>
<path d="M32310 21610 c0 -20 4 -20 308 -18 265 3 307 5 307 18 0 13 -42 15
-307 18 -304 2 -308 2 -308 -18z"/>
<path d="M29887 21523 c-4 -3 -7 -12 -7 -20 0 -11 60 -13 338 -11 292 3 337 5
337 18 0 13 -45 15 -331 18 -182 1 -333 -1 -337 -5z"/>
<path d="M30705 20771 c-39 -8 -35 -25 7 -31 26 -4 32 -9 30 -25 -2 -11 -35
-148 -73 -305 -38 -157 -68 -294 -67 -305 4 -26 44 -32 56 -8 5 10 19 61 32
113 13 52 24 98 26 101 7 12 82 -13 100 -32 12 -13 16 -35 15 -79 -1 -55 2
-64 28 -91 36 -35 77 -38 116 -7 29 22 64 89 65 121 0 34 -22 12 -42 -41 -21
-56 -54 -87 -82 -76 -14 5 -16 19 -14 84 4 100 -14 123 -114 144 l-27 6 47 43
c26 24 63 57 82 75 42 38 78 52 105 41 11 -4 14 -8 8 -8 -18 -1 -44 -46 -37
-64 14 -37 67 -29 85 15 10 25 9 33 -8 56 -24 33 -69 40 -113 17 -18 -9 -65
-48 -106 -86 -68 -62 -94 -80 -94 -63 0 3 23 92 50 198 28 106 50 198 50 204
0 13 -72 15 -125 3z"/>
<path d="M32635 20771 c-39 -8 -35 -25 7 -31 26 -4 32 -9 30 -25 -2 -11 -34
-148 -73 -305 -38 -156 -69 -293 -67 -305 4 -26 43 -32 56 -8 5 10 19 61 32
113 13 52 24 98 26 101 7 12 83 -13 100 -33 14 -15 18 -33 16 -79 -2 -55 0
-63 27 -89 39 -40 87 -41 124 -2 41 42 75 140 46 130 -6 -2 -20 -28 -32 -58
-22 -55 -55 -84 -84 -73 -11 4 -13 24 -11 83 4 100 -14 122 -114 144 -28 6
-27 8 50 77 80 74 122 100 152 92 15 -4 15 -7 -6 -28 -28 -28 -29 -38 -8 -59
21 -22 31 -20 59 9 30 29 31 45 4 79 -42 53 -103 30 -227 -85 -57 -53 -82 -70
-82 -53 0 3 23 93 50 200 28 107 50 198 50 204 0 11 -76 12 -125 1z"/>
<path d="M34514 20724 c-23 -13 -65 -27 -93 -31 -36 -4 -51 -10 -51 -21 0 -12
9 -14 48 -9 26 4 57 9 70 13 l23 7 -3 -272 c-3 -305 1 -291 -80 -291 -36 0
-48 -4 -48 -15 0 -13 25 -15 165 -15 133 0 165 3 165 14 0 9 -17 15 -56 18
-33 3 -60 11 -65 19 -5 8 -9 148 -9 312 0 231 -3 297 -12 297 -7 -1 -32 -12
-54 -26z"/>
<path d="M33640 20521 l0 -161 -160 0 c-153 0 -160 -1 -160 -20 0 -19 7 -20
160 -20 l160 0 0 -161 c0 -147 1 -160 18 -157 15 3 17 20 20 160 l3 157 157 3
c132 3 157 5 157 18 0 13 -25 15 -157 18 l-157 3 -3 157 c-3 140 -5 157 -20
160 -17 3 -18 -10 -18 -157z"/>
<path d="M31450 20440 c0 -20 4 -20 338 -18 292 3 337 5 337 18 0 13 -45 15
-337 18 -334 2 -338 2 -338 -18z"/>
<path d="M31450 20240 c0 -20 4 -20 338 -18 292 3 337 5 337 18 0 13 -45 15
-337 18 -334 2 -338 2 -338 -18z"/>
<path d="M32646 19319 c-33 -122 -104 -308 -152 -397 -19 -34 -34 -65 -34 -67
0 -3 38 -5 85 -5 l85 0 0 -1285 0 -1285 -3150 0 -3150 0 0 -1620 0 -1620 6345
0 6345 0 0 1620 0 1620 -3150 0 -3150 0 0 1285 0 1285 84 0 85 0 -54 113 c-59
123 -104 247 -139 376 l-22 83 -28 -103z m6284 -4659 l0 -1530 -6255 0 -6255
0 0 1530 0 1530 6255 0 6255 0 0 -1530z"/>
<path d="M35267 15556 c-219 -223 -220 -668 -2 -892 30 -30 59 -53 65 -49 5 3
-14 37 -44 76 -95 125 -139 316 -117 512 17 154 48 236 128 339 24 31 39 59
34 63 -6 3 -34 -19 -64 -49z"/>
<path d="M36050 15599 c0 -6 18 -32 41 -57 50 -57 70 -95 100 -192 21 -66 24
-95 24 -240 0 -131 -4 -177 -18 -225 -27 -87 -64 -158 -108 -209 -38 -43 -48
-66 -30 -66 18 0 100 90 134 148 118 194 122 498 9 692 -43 75 -152 182 -152
149z"/>
<path d="M34791 15463 c-43 -174 -36 -160 -84 -167 -136 -21 -267 -154 -267
-272 0 -15 9 -47 21 -71 23 -48 83 -90 142 -100 l34 -5 -23 -92 c-13 -50 -24
-92 -24 -93 0 -2 6 -3 14 -3 9 0 21 29 35 83 12 45 24 87 26 93 2 6 23 14 46
18 120 19 241 126 264 233 17 84 -50 180 -144 204 -38 10 -50 17 -47 28 9 30
56 220 56 225 0 3 -6 6 -14 6 -9 0 -21 -30 -35 -87z m-96 -385 c-26 -106 -51
-197 -56 -202 -13 -14 -98 34 -114 65 -37 71 4 216 79 275 33 27 126 67 135
59 2 -3 -18 -91 -44 -197z m164 166 c17 -14 36 -43 42 -65 24 -79 -28 -205
-105 -258 -38 -25 -107 -52 -117 -45 -4 2 11 72 32 156 66 259 58 238 90 238
15 0 41 -12 58 -26z"/>
<path d="M33472 15514 c-27 -18 -29 -55 -4 -77 35 -32 85 -10 85 37 0 45 -43
67 -81 40z"/>
<path d="M31071 15299 c-70 -21 -110 -66 -96 -110 9 -28 41 -42 65 -29 24 13
28 68 5 76 -24 9 -18 21 16 33 90 31 158 -8 166 -96 l5 -50 -66 -6 c-77 -7
-171 -49 -199 -89 -28 -38 -27 -101 1 -131 59 -63 188 -62 246 2 22 24 36 27
36 8 0 -23 39 -50 71 -50 44 0 77 37 85 96 6 39 4 47 -10 47 -11 0 -16 -9 -16
-29 0 -51 -17 -83 -43 -79 -21 3 -22 7 -28 148 -4 80 -7 150 -8 157 -2 19 -51
73 -80 87 -37 19 -110 26 -150 15z m158 -278 c-4 -67 -8 -83 -28 -105 -51 -54
-137 -52 -166 5 -19 35 -19 43 1 85 18 39 63 70 120 83 79 18 77 20 73 -68z"/>
<path d="M32192 15290 c-33 -20 -36 -20 -78 -4 -83 32 -162 7 -211 -66 -29
-41 -29 -79 -2 -132 17 -33 19 -46 10 -65 -15 -32 -13 -83 3 -112 13 -23 11
-27 -25 -61 -28 -27 -39 -45 -39 -67 0 -82 135 -140 282 -121 105 13 168 61
168 126 0 91 -66 131 -227 140 -112 5 -143 19 -143 61 0 44 9 51 45 35 77 -32
177 -4 215 59 24 40 26 99 3 138 -20 33 -13 45 35 58 30 9 32 8 32 -15 0 -30
26 -42 47 -21 15 14 15 18 -1 41 -21 33 -67 35 -114 6z m-93 -37 c47 -38 47
-156 1 -198 -28 -25 -86 -23 -113 3 -21 22 -34 102 -23 147 15 60 88 86 135
48z m103 -409 c124 -64 -35 -196 -188 -155 -127 34 -146 151 -29 174 41 8 190
-5 217 -19z"/>
<path d="M29111 15290 c-44 -19 -84 -53 -112 -98 -47 -74 -35 -114 13 -43 32
48 79 73 136 74 87 1 130 -38 157 -140 22 -85 18 -150 -15 -270 -31 -111 -37
-163 -19 -163 16 0 36 58 59 171 21 102 84 277 141 391 31 62 35 78 18 78 -10
0 -93 -168 -120 -242 -7 -21 -16 -38 -20 -38 -3 0 -9 25 -13 55 -15 133 -78
224 -158 231 -23 2 -54 -1 -67 -6z"/>
<path d="M31483 15292 c-39 -4 -46 -32 -9 -32 50 0 56 -19 56 -181 0 -85 -5
-159 -10 -170 -7 -12 -21 -19 -40 -19 -20 0 -30 -5 -30 -15 0 -12 20 -15 120
-15 100 0 120 3 120 15 0 10 -10 15 -29 15 -61 0 -61 1 -61 139 0 112 3 132
23 171 13 26 36 53 56 64 l34 20 -7 -27 c-9 -37 24 -70 56 -58 54 20 18 101
-45 101 -38 0 -90 -32 -108 -67 l-14 -28 -3 48 -3 48 -37 -3 c-20 -2 -52 -4
-69 -6z"/>
<path d="M32583 15291 c-47 -7 -46 -20 2 -36 l30 -10 3 -169 c3 -182 2 -186
-49 -186 -16 0 -26 -6 -26 -15 0 -12 20 -15 114 -15 94 0 113 3 113 15 0 9 -9
15 -22 15 -47 0 -50 9 -49 150 2 146 10 174 61 210 36 25 95 29 117 7 23 -23
33 -83 33 -214 0 -132 -8 -153 -56 -153 -15 0 -24 -6 -24 -15 0 -12 19 -15
115 -15 96 0 115 3 115 15 0 9 -9 15 -24 15 -55 0 -56 3 -56 136 0 90 4 134
16 164 16 40 61 76 99 80 85 9 95 -13 95 -208 0 -160 -4 -172 -52 -172 -18 0
-28 -5 -28 -15 0 -12 19 -15 115 -15 96 0 115 3 115 15 0 10 -10 15 -28 15
-48 0 -52 12 -52 172 0 169 -9 200 -65 224 -70 29 -133 16 -187 -39 l-34 -34
-13 28 c-23 52 -114 75 -184 45 -18 -7 -45 -28 -60 -45 l-27 -33 0 46 c0 46 0
46 -32 44 -18 0 -52 -4 -75 -7z"/>
<path d="M33448 15293 c-47 -5 -49 -26 -5 -38 l32 -10 3 -169 c3 -180 1 -186
-45 -186 -14 0 -23 -6 -23 -15 0 -12 18 -15 105 -15 87 0 105 3 105 15 0 9 -9
15 -23 15 -44 0 -47 13 -47 217 l0 193 -32 -2 c-18 -1 -50 -3 -70 -5z"/>
<path d="M33725 15291 c-41 -6 -61 -31 -24 -31 11 0 29 -5 40 -10 18 -10 19
-23 19 -179 0 -183 1 -181 -57 -181 -15 0 -23 -5 -21 -12 3 -9 38 -14 116 -16
93 -2 112 0 112 12 0 9 -12 16 -32 18 l-33 3 -3 137 c-2 108 1 144 13 167 35
68 130 97 167 51 17 -21 18 -39 16 -189 l-3 -166 -32 -3 c-21 -2 -33 -9 -33
-18 0 -21 215 -21 224 1 4 11 -1 15 -18 15 -56 0 -56 1 -56 156 0 195 -21 241
-113 251 -60 7 -110 -11 -147 -53 l-30 -35 0 46 c0 44 0 45 -32 43 -18 0 -51
-4 -73 -7z"/>
<path d="M35561 15289 c-62 -25 -141 -115 -141 -161 0 -28 16 -21 39 17 42 72
129 100 206 66 39 -17 50 -28 71 -76 42 -90 43 -176 5 -316 -32 -121 -38 -169
-20 -169 16 0 36 58 59 171 22 105 83 275 139 387 33 65 37 82 21 82 -11 0
-76 -127 -111 -217 -13 -35 -27 -63 -30 -63 -3 0 -9 25 -13 55 -20 173 -115
268 -225 224z"/>
<path d="M29880 15210 c0 -20 4 -20 338 -18 292 3 337 5 337 18 0 13 -45 15
-337 18 -334 2 -338 2 -338 -18z"/>
<path d="M29887 15023 c-4 -3 -7 -12 -7 -20 0 -11 60 -13 338 -11 292 3 337 5
337 18 0 13 -45 15 -331 18 -182 1 -333 -1 -337 -5z"/>
<path d="M32437 14461 c-126 -116 -158 -320 -77 -487 28 -57 97 -134 120 -134
17 0 11 16 -16 41 -134 125 -136 426 -4 568 48 51 30 60 -23 12z"/>
<path d="M33670 14488 c0 -7 13 -25 29 -41 65 -63 110 -214 97 -326 -11 -96
-43 -176 -93 -231 -28 -31 -39 -50 -30 -50 42 0 121 104 152 198 26 81 18 228
-17 303 -36 80 -139 188 -138 147z"/>
<path d="M32680 14422 c-104 -51 -123 -308 -30 -397 26 -25 40 -30 93 -33 103
-5 146 35 166 156 19 121 -19 245 -85 277 -42 20 -101 19 -144 -3z m119 -17
c40 -20 51 -61 51 -192 0 -159 -22 -203 -99 -203 -69 0 -100 63 -100 205 0
103 13 156 44 182 30 27 64 29 104 8z"/>
<path d="M33375 14419 c-22 -10 -52 -19 -67 -19 -19 0 -28 -5 -28 -16 0 -15
22 -15 83 2 16 5 17 -8 17 -175 l0 -180 -47 -3 c-26 -2 -48 -9 -51 -15 -3 -10
27 -13 127 -13 112 0 130 2 125 15 -4 10 -20 15 -50 15 l-44 0 0 205 c0 158
-3 205 -12 204 -7 0 -31 -9 -53 -20z"/>
<path d="M31909 14376 c-81 -29 -128 -81 -149 -168 -23 -91 28 -190 123 -240
71 -37 290 -38 253 -1 -4 4 -55 10 -114 13 -88 4 -114 9 -144 28 -39 24 -72
69 -83 115 l-7 27 176 0 c150 0 176 2 176 15 0 13 -26 15 -175 15 -195 0 -192
-2 -156 68 40 78 93 104 229 110 69 3 102 8 99 16 -5 16 -184 18 -228 2z"/>
<path d="M31301 14268 c-35 -23 -78 -84 -68 -95 4 -3 22 8 41 25 88 77 192 40
217 -77 10 -49 9 -68 -12 -153 -21 -93 -22 -117 -1 -104 9 5 17 30 47 155 9
36 36 107 60 159 47 98 51 112 36 112 -8 0 -82 -142 -93 -179 -2 -8 -11 13
-20 45 -10 32 -30 74 -45 93 -24 28 -37 34 -78 38 -41 4 -56 0 -84 -19z"/>
<path d="M33053 14073 c-7 -2 -13 -18 -13 -34 0 -25 5 -30 30 -35 37 -8 39
-28 5 -78 -30 -45 -33 -66 -4 -40 33 29 49 69 49 118 0 60 -26 86 -67 69z"/>
<path d="M7275 18573 c-495 -310 -1154 -723 -1465 -917 -311 -195 -1253 -784
-2095 -1311 -841 -527 -1790 -1120 -2107 -1319 -318 -198 -578 -363 -578 -366
0 -3 368 -235 818 -516 449 -281 1245 -779 1767 -1106 523 -327 1355 -848
1850 -1158 495 -310 1303 -815 1795 -1124 492 -308 904 -560 915 -560 11 0
308 180 660 400 990 620 2060 1289 2730 1709 336 210 1177 737 1870 1170 693
434 1398 875 1568 981 187 118 307 187 307 179 0 -13 276 -15 2160 -15 l2160
0 0 40 0 40 -2160 0 c-1872 0 -2160 -2 -2160 -14 0 -10 -40 11 -111 55 -62 39
-695 435 -1408 881 -713 446 -1534 961 -1826 1143 -291 183 -1043 653 -1670
1045 -627 392 -1324 829 -1550 970 -225 141 -446 279 -490 307 l-80 49 -900
-563z m1775 -90 c448 -280 1220 -763 1715 -1073 1261 -789 2208 -1382 3300
-2065 517 -324 972 -608 1010 -632 39 -24 70 -48 70 -53 0 -5 -175 -119 -390
-253 -214 -134 -741 -463 -1170 -732 -429 -268 -1183 -740 -1675 -1048 -492
-308 -1151 -721 -1465 -917 -1897 -1187 -2260 -1413 -2269 -1413 -10 0 -472
288 -2661 1658 -335 210 -1105 692 -1710 1070 -605 379 -1383 866 -1730 1083
-346 217 -685 429 -752 471 -68 41 -123 78 -123 81 0 3 172 113 383 244 210
132 792 496 1292 809 501 314 1583 991 2405 1505 822 515 1810 1133 2195 1374
l700 437 30 -18 c16 -9 397 -247 845 -528z"/>
<path d="M4962 15738 c-15 -15 -17 -954 -2 -978 9 -13 12 -12 25 5 13 16 15
86 15 486 -1 477 -4 521 -38 487z"/>
<path d="M5167 15743 c-4 -3 -7 -226 -7 -494 0 -479 3 -531 31 -488 5 8 9 228
9 490 0 387 -3 479 -13 488 -8 6 -17 8 -20 4z"/>
<path d="M7057 15696 c-194 -197 -222 -575 -60 -818 45 -69 110 -131 125 -122
4 3 -12 31 -36 62 -81 105 -110 181 -127 339 -8 73 -8 127 0 190 19 153 50
235 127 335 24 31 40 59 35 63 -6 3 -34 -19 -64 -49z"/>
<path d="M8376 15741 c-5 -7 6 -27 27 -50 49 -55 82 -115 109 -201 20 -67 23
-94 23 -245 -1 -157 -3 -176 -28 -250 -27 -80 -59 -138 -111 -195 -15 -17 -26
-36 -24 -41 5 -16 68 37 111 93 81 108 119 237 120 398 0 187 -49 324 -157
438 -42 44 -65 62 -70 53z"/>
<path d="M8852 15738 c-15 -15 -17 -954 -2 -978 9 -13 12 -12 25 4 13 17 15
90 15 486 0 360 -3 470 -13 483 -10 14 -15 15 -25 5z"/>
<path d="M9055 15737 c-3 -6 -4 -230 -3 -497 3 -423 5 -485 18 -485 13 0 15
62 18 491 2 436 0 492 -13 498 -9 3 -18 0 -20 -7z"/>
<path d="M6583 15678 c-38 -27 -66 -87 -83 -180 l-12 -68 -49 0 c-37 0 -49 -4
-49 -15 0 -11 12 -15 45 -15 25 0 45 -3 45 -6 0 -26 -94 -494 -104 -518 -18
-44 -40 -60 -73 -51 -24 6 -25 8 -10 16 45 25 43 79 -3 79 -33 0 -52 -21 -52
-57 0 -58 92 -85 145 -43 14 12 40 49 56 83 28 58 41 111 102 435 l12 62 58 0
c46 0 59 3 59 15 0 12 -13 15 -55 15 l-56 0 7 38 c32 186 49 220 100 208 l27
-7 -22 -15 c-34 -24 -23 -84 16 -84 20 0 53 38 53 60 0 12 -11 32 -25 45 -32
33 -88 33 -132 3z"/>
<path d="M5380 15673 c0 -6 303 -601 340 -668 33 -59 49 -47 117 87 35 68 115
224 178 347 63 123 115 228 115 232 0 5 -169 9 -375 9 -206 0 -375 -3 -375 -7z
m680 -72 c0 -9 -258 -512 -269 -523 -8 -9 -281 513 -274 525 6 10 543 9 543
-2z"/>
<path d="M10353 15407 c-204 -98 -293 -146 -293 -157 0 -12 89 -60 296 -159
270 -129 324 -150 324 -122 0 14 -26 27 -292 155 -137 66 -248 122 -248 126 0
4 116 62 258 130 141 67 263 128 271 135 15 14 7 36 -12 34 -7 0 -144 -64
-304 -142z"/>
<path d="M11250 15431 c-98 -35 -145 -111 -103 -170 15 -22 15 -25 -1 -37 -35
-25 -66 -78 -66 -111 0 -102 113 -158 245 -122 43 12 129 89 107 96 -7 3 -20
-4 -30 -15 -24 -28 -74 -42 -148 -42 -101 0 -144 26 -144 87 0 27 8 43 34 69
33 33 36 34 89 28 75 -9 127 2 127 25 0 11 -7 22 -16 25 -24 9 -100 7 -128 -4
-21 -8 -28 -5 -45 16 -11 14 -17 33 -14 44 16 62 182 104 257 65 61 -32 99 -2
45 36 -44 31 -137 35 -209 10z m58 -188 c-10 -2 -26 -2 -35 0 -10 3 -2 5 17 5
19 0 27 -2 18 -5z"/>
<path d="M7210 15415 c0 -22 4 -25 38 -25 34 0 43 -7 114 -89 l77 -89 -77 -81
c-70 -73 -81 -81 -114 -81 -34 0 -38 -3 -38 -25 0 -25 0 -25 95 -25 95 0 95 0
95 25 0 16 -6 25 -15 25 -23 0 -18 11 36 70 l51 55 53 -60 c37 -41 49 -61 39
-63 -7 -2 -14 -14 -14 -28 l0 -24 115 0 115 0 0 25 c0 22 -4 25 -37 25 -35 1
-44 8 -121 96 l-84 94 30 38 c63 78 105 111 147 114 33 2 41 7 43 26 3 22 1
22 -97 22 l-101 0 0 -25 c0 -16 6 -25 15 -25 23 0 18 -11 -29 -62 l-44 -48
-47 55 c-31 37 -41 55 -31 55 10 0 16 9 16 25 l0 25 -115 0 -115 0 0 -25z"/>
<path d="M7938 15343 c-24 -6 -23 -23 1 -23 11 0 22 -4 25 -8 2 -4 -17 -96
-44 -202 -27 -107 -50 -200 -50 -206 0 -19 28 -24 43 -9 8 7 20 41 27 74 7 34
16 64 20 66 4 2 23 0 43 -6 37 -10 45 -23 45 -77 1 -46 52 -79 97 -62 13 5 33
27 45 49 23 47 24 51 8 51 -7 0 -21 -18 -30 -40 -13 -32 -22 -40 -42 -40 -25
0 -26 3 -26 55 0 59 -13 75 -73 89 l-28 7 42 35 c48 40 91 64 114 64 14 0 14
-2 1 -23 -18 -26 -7 -51 19 -45 53 10 39 88 -15 88 -39 0 -60 -11 -130 -68
-30 -24 -56 -40 -58 -34 -1 5 11 64 28 130 16 67 30 126 30 131 0 11 -58 13
-92 4z"/>
<path d="M9344 15316 c-44 -20 -76 -64 -72 -100 3 -27 7 -31 33 -31 24 0 31 5
33 23 2 13 -3 25 -12 28 -26 10 -18 32 15 50 99 51 191 -21 161 -125 -11 -35
-126 -160 -204 -221 -56 -43 -41 -50 116 -50 l143 0 10 60 c7 46 7 60 -3 60
-7 0 -15 -13 -19 -30 l-7 -30 -94 0 c-52 0 -94 2 -94 3 0 2 45 39 100 82 79
63 103 88 116 120 33 88 -27 166 -134 172 -34 2 -69 -2 -88 -11z"/>
<path d="M6525 14411 c-39 -8 -35 -25 7 -31 26 -4 33 -10 31 -25 -1 -11 -34
-148 -73 -304 -39 -157 -70 -294 -68 -305 4 -27 43 -34 56 -9 5 10 19 61 32
113 12 52 25 98 29 102 8 9 80 -17 100 -36 11 -12 15 -32 13 -76 -2 -56 0 -64
27 -90 36 -36 77 -39 116 -8 29 22 64 89 65 121 0 33 -22 13 -40 -36 -24 -64
-38 -79 -69 -75 -25 3 -26 5 -27 81 -2 99 -19 120 -117 141 -27 6 -25 8 55 81
77 70 126 98 154 88 7 -3 2 -14 -12 -28 -13 -13 -24 -28 -24 -34 0 -12 29 -41
41 -41 16 0 59 48 59 65 0 25 -46 65 -75 65 -40 0 -80 -25 -161 -101 -68 -62
-94 -80 -94 -63 0 3 23 92 50 198 28 106 50 198 50 204 0 13 -72 14 -125 3z"/>
<path d="M8455 14411 c-39 -8 -35 -25 7 -31 41 -6 44 19 -43 -334 -39 -154
-69 -290 -67 -301 4 -26 43 -32 56 -8 5 10 20 62 33 117 l23 98 40 -5 c61 -9
81 -35 78 -107 -2 -56 0 -64 27 -90 36 -36 77 -39 116 -8 39 31 86 147 54 136
-6 -2 -20 -28 -32 -58 -22 -55 -55 -84 -84 -73 -11 4 -13 24 -11 85 3 77 2 81
-25 104 -16 13 -48 29 -71 35 l-44 11 57 52 c102 93 132 112 178 107 7 0 1
-12 -12 -26 -14 -13 -25 -28 -25 -34 0 -17 32 -42 47 -37 8 3 18 6 23 6 4 0
13 14 20 31 11 27 11 33 -7 57 -25 33 -69 40 -114 16 -18 -9 -65 -47 -105 -85
-40 -38 -78 -69 -84 -69 -12 0 -14 -10 46 228 24 95 44 177 44 182 0 11 -77
11 -125 1z"/>
<path d="M7300 14361 c0 -14 60 -47 270 -147 148 -71 270 -131 270 -134 0 -4
-121 -64 -270 -135 -207 -99 -270 -133 -270 -147 0 -10 6 -18 12 -18 14 0 575
267 596 283 6 5 12 14 12 19 0 11 -587 298 -610 298 -6 0 -10 -8 -10 -19z"/>
<path d="M5131 14164 c-89 -32 -132 -81 -152 -172 -19 -93 28 -194 112 -237
67 -35 199 -36 280 -2 31 13 108 87 109 105 1 4 5 26 9 50 19 98 -24 190 -112
237 -65 36 -177 44 -246 19z m163 -34 c48 -18 66 -64 66 -168 0 -147 -30 -192
-127 -192 -44 0 -58 5 -85 29 l-33 29 0 127 0 127 33 29 c25 23 42 29 77 29
24 0 55 -4 69 -10z"/>
<path d="M5623 14173 c-48 -4 -53 -6 -53 -28 0 -19 6 -24 33 -27 l32 -3 3
-167 2 -168 -35 0 c-31 0 -35 -3 -35 -25 l0 -25 130 0 130 0 0 25 c0 23 -4 25
-40 25 l-40 0 0 109 c0 150 25 217 88 239 26 9 27 8 27 -31 0 -34 5 -44 28
-57 24 -13 30 -13 55 0 40 23 43 80 7 109 -63 49 -145 33 -192 -38 l-23 -34 0
52 0 51 -32 -2 c-18 -1 -57 -3 -85 -5z"/>
<path d="M9611 13907 c-19 -7 -39 -19 -44 -28 -15 -25 -1 -51 25 -47 18 2 23
9 23 31 -1 26 2 27 45 27 55 0 78 -15 86 -56 6 -31 6 -31 -48 -38 -112 -15
-182 -68 -162 -124 19 -55 137 -76 194 -34 29 22 29 22 40 2 14 -26 70 -27 93
-2 18 20 23 82 8 82 -6 0 -11 -15 -13 -32 -2 -25 -8 -34 -24 -36 -21 -3 -22 2
-26 97 -4 116 -19 141 -93 160 -53 13 -61 13 -104 -2z m139 -171 c0 -61 -31
-98 -83 -98 -42 0 -77 24 -77 52 0 41 74 88 138 90 20 0 22 -5 22 -44z"/>
<path d="M8867 13904 c-13 -13 -7 -23 16 -26 21 -3 22 -7 25 -115 3 -108 2
-112 -19 -115 -13 -2 -24 -9 -27 -15 -3 -10 17 -13 77 -13 65 0 81 3 81 15 0
9 -9 15 -25 15 -25 0 -25 1 -25 90 0 83 2 93 24 115 28 28 66 40 101 31 30 -8
37 -40 33 -151 -3 -74 -5 -80 -25 -83 -13 -2 -23 -10 -23 -18 0 -11 17 -14 81
-14 59 0 80 3 77 12 -3 7 -15 15 -29 18 -23 6 -24 9 -24 94 1 87 1 89 33 117
35 31 88 39 110 17 8 -8 12 -49 12 -120 l0 -108 -25 0 c-16 0 -25 -6 -25 -15
0 -12 16 -15 80 -15 64 0 80 3 80 15 0 9 -9 15 -25 15 -25 0 -25 0 -25 95 0
100 -13 147 -45 159 -37 14 -103 6 -137 -18 l-34 -23 -28 23 c-20 18 -39 24
-73 24 -42 0 -103 -25 -103 -42 0 -4 -4 -8 -9 -8 -4 0 -8 10 -7 23 1 19 -4 22
-44 25 -25 2 -49 0 -53 -4z"/>
<path d="M9920 13893 c0 -7 8 -13 19 -13 24 0 61 -30 102 -81 l32 -40 -49 -50
c-27 -27 -62 -53 -78 -57 -16 -4 -31 -13 -34 -20 -3 -9 15 -12 63 -12 l67 0
-7 28 c-4 22 1 33 28 60 l33 32 33 -34 c26 -27 31 -38 25 -60 l-6 -26 71 0
c56 0 71 3 71 15 0 9 -9 15 -23 15 -16 0 -43 20 -81 60 -48 50 -55 63 -47 78
17 32 78 80 110 87 55 12 36 30 -30 28 -68 -1 -77 -6 -60 -27 10 -12 6 -21
-18 -48 l-30 -33 -31 30 c-23 23 -29 35 -25 55 5 25 5 25 -65 25 -49 0 -70 -4
-70 -12z"/>
<path d="M7307 13613 c-4 -3 -7 -12 -7 -20 0 -11 55 -13 308 -11 265 3 307 5
307 18 0 13 -41 15 -301 18 -165 1 -303 -1 -307 -5z"/>
<path d="M20210 14996 c0 -11 14 -16 48 -18 l47 -3 3 -279 c3 -312 1 -320 -63
-332 -20 -3 -35 -12 -35 -20 0 -11 24 -14 115 -14 91 0 115 3 115 14 0 8 -15
17 -34 20 -67 13 -67 13 -64 311 l3 268 214 -307 c117 -169 219 -305 225 -303
8 3 13 96 16 310 3 168 7 307 10 310 14 13 51 27 69 27 12 0 21 7 21 15 0 13
-20 15 -120 15 -90 0 -119 -3 -117 -12 1 -7 20 -17 42 -23 61 -16 65 -30 65
-273 0 -117 -4 -211 -8 -208 -5 3 -89 120 -187 261 l-178 255 -94 0 c-74 0
-93 -3 -93 -14z"/>
<path d="M25939 14798 l70 -93 -2000 -3 -1999 -2 0 -40 0 -40 2000 0 2000 0
-70 -95 -70 -95 225 112 c124 62 225 115 225 118 0 3 -101 56 -225 118 l-226
112 70 -92z"/>
<path d="M21139 14766 c-167 -45 -225 -258 -103 -380 108 -107 291 -78 359 57
87 175 -70 373 -256 323z m129 -36 c47 -29 65 -78 65 -180 0 -102 -18 -151
-65 -180 -69 -42 -159 -16 -193 56 -28 59 -26 195 4 252 35 70 122 93 189 52z"/>
<path d="M8130 9045 l0 -1125 45 0 45 0 0 1125 0 1125 -45 0 -45 0 0 -1125z"/>
<path d="M7410 7355 c0 -10 10 -15 33 -15 18 0 42 -7 54 -15 12 -8 71 -93 132
-188 l111 -174 0 -111 c0 -123 -5 -132 -69 -132 -21 0 -31 -5 -31 -15 0 -13
23 -15 145 -15 122 0 145 2 145 15 0 10 -10 15 -27 15 -73 0 -73 0 -73 129 l0
117 101 160 c108 170 135 200 187 210 18 4 32 12 32 20 0 11 -22 14 -105 14
-79 0 -105 -3 -105 -13 0 -7 14 -18 30 -24 17 -6 30 -18 30 -27 0 -15 -148
-257 -174 -284 -10 -10 -32 18 -109 138 -53 82 -97 154 -97 159 0 11 25 21 51
21 10 0 19 7 19 15 0 13 -22 15 -140 15 -118 0 -140 -2 -140 -15z"/>
<path d="M8273 7129 c-88 -20 -163 -121 -163 -220 0 -131 119 -241 246 -226
69 7 144 70 144 121 0 27 -14 18 -38 -24 -30 -53 -71 -74 -134 -68 -79 8 -122
62 -130 163 l-3 40 153 3 152 3 0 39 c0 120 -102 196 -227 169z m105 -35 c28
-20 48 -58 57 -111 l7 -43 -121 0 -121 0 0 25 c0 44 32 106 64 126 38 23 84
24 114 3z"/>
<path d="M8688 7131 c-52 -11 -87 -37 -105 -78 -12 -31 -13 -41 -1 -72 18 -47
62 -75 150 -95 40 -9 80 -22 89 -29 60 -46 39 -125 -40 -147 -76 -21 -148 26
-171 111 -17 64 -35 43 -38 -46 -3 -89 8 -114 37 -78 l18 22 39 -19 c133 -68
287 45 228 167 -25 51 -69 78 -158 97 -93 21 -121 49 -103 102 10 28 48 44
106 44 60 0 96 -26 111 -81 17 -60 30 -46 30 31 0 69 -10 86 -36 60 -6 -6 -24
-4 -49 5 -44 16 -53 16 -107 6z"/>
<path d="M8130 5165 l0 -965 -47 35 c-107 79 -133 96 -126 80 3 -9 52 -109
109 -222 57 -114 104 -208 104 -210 0 -2 -435 -3 -967 -3 -1015 0 -1198 -6
-1358 -41 -437 -94 -821 -368 -1048 -746 -213 -354 -283 -777 -196 -1181 105
-484 429 -896 874 -1112 118 -57 246 -101 388 -132 l102 -23 2210 0 2210 0
105 23 c636 140 1115 606 1256 1222 54 238 54 491 0 730 -140 613 -634 1095
-1250 1221 -167 34 -320 38 -1339 39 l-977 0 111 221 c60 122 109 223 107 224
-2 2 -41 -25 -88 -60 l-85 -64 -3 965 -2 964 -45 0 -45 0 0 -965z m2171 -1386
c379 -38 682 -180 944 -443 253 -253 394 -538 441 -886 63 -477 -110 -965
-462 -1300 -208 -199 -446 -324 -754 -397 -70 -16 -209 -18 -2235 -21 -1562
-2 -2186 0 -2253 8 -286 35 -587 172 -811 370 -464 408 -637 1062 -435 1642
198 569 710 973 1304 1027 135 13 4140 13 4261 0z"/>
<path d="M6550 2643 c0 -35 -31 -102 -56 -125 -11 -9 -31 -21 -47 -27 -40 -15
-33 -29 16 -33 l42 -3 5 -165 c6 -183 12 -203 65 -226 96 -40 165 15 165 131
0 33 -4 45 -15 45 -11 0 -15 -13 -15 -54 0 -61 -27 -106 -63 -106 -58 1 -67
32 -67 219 l0 161 70 0 c56 0 70 3 70 15 0 12 -14 15 -70 15 l-70 0 0 90 c0
73 -3 90 -15 90 -10 0 -15 -10 -15 -27z"/>
<path d="M6135 2495 c-38 -10 -60 -24 -91 -58 -88 -97 -86 -224 6 -318 51 -53
108 -74 178 -66 68 7 142 71 142 121 0 27 -14 18 -35 -21 -25 -46 -69 -73
-121 -73 -80 0 -139 65 -146 160 l-3 45 153 3 c111 2 152 6 153 15 8 86 -47
178 -116 192 -61 12 -73 12 -120 0z m113 -31 c28 -20 48 -58 57 -111 l7 -43
-121 0 -121 0 0 25 c0 44 32 106 64 126 38 23 84 24 114 3z"/>
<path d="M5618 2493 c-42 -5 -55 -33 -15 -33 49 0 52 -9 55 -174 4 -174 -2
-196 -48 -196 -20 0 -30 -5 -30 -15 0 -12 20 -15 120 -15 100 0 120 3 120 15
0 10 -10 15 -29 15 -61 0 -61 1 -61 139 0 138 15 193 61 225 33 23 53 21 46
-5 -7 -27 25 -59 52 -52 42 11 39 72 -5 91 -54 25 -113 3 -143 -56 l-20 -37
-1 53 0 52 -32 -2 c-18 -1 -50 -3 -70 -5z"/>
<path d="M6873 2493 c-46 -4 -63 -33 -20 -33 51 0 55 -13 59 -181 3 -140 5
-159 23 -179 27 -31 76 -50 125 -50 47 0 73 11 113 48 l27 26 0 -37 c0 -41 2
-42 98 -31 34 5 52 11 52 20 0 8 -9 14 -21 14 -11 0 -29 5 -40 10 -18 10 -19
23 -19 207 l0 196 -52 -7 c-29 -3 -63 -6 -75 -6 -37 0 -27 -27 12 -34 l35 -7
0 -143 c0 -132 -2 -146 -23 -177 -29 -43 -81 -62 -131 -48 -20 5 -37 11 -38
12 -1 1 -4 92 -7 202 l-6 200 -35 1 c-19 1 -54 -1 -77 -3z"/>
<path d="M7438 2493 c-43 -5 -55 -33 -14 -33 50 0 56 -19 56 -181 0 -85 -5
-159 -10 -170 -7 -12 -21 -19 -40 -19 -20 0 -30 -5 -30 -15 0 -12 20 -15 120
-15 100 0 120 3 120 15 0 10 -10 15 -29 15 -61 0 -61 1 -61 139 0 138 15 193
61 225 32 22 52 21 44 -3 -6 -20 24 -61 44 -61 15 0 41 30 41 46 0 82 -133 81
-178 0 l-17 -31 -3 48 c-3 52 0 51 -104 40z"/>
<path d="M7848 2493 c-39 -4 -63 -33 -27 -33 11 0 29 -5 40 -10 18 -10 19 -23
19 -179 0 -183 1 -181 -57 -181 -15 0 -23 -5 -21 -12 3 -9 38 -14 116 -16 93
-2 112 0 112 12 0 9 -12 16 -32 18 l-33 3 -3 135 c-3 148 4 176 50 215 22 18
41 25 74 25 70 0 75 -15 72 -211 l-3 -164 -32 -3 c-21 -2 -33 -9 -33 -18 0
-11 21 -14 109 -14 63 0 112 4 116 10 6 10 -1 14 -47 24 l-28 6 0 146 c0 165
-10 202 -62 234 -62 38 -151 20 -201 -39 l-27 -33 0 46 c0 51 3 50 -102 39z"/>
<path d="M8845 2484 c-43 -22 -64 -44 -86 -86 -23 -44 -24 -58 -5 -58 8 0 17
11 20 25 9 34 61 91 95 103 46 16 75 -4 79 -54 3 -44 -39 -227 -65 -283 -18
-37 -61 -60 -98 -53 -23 4 -23 4 -4 23 38 38 11 87 -38 68 -46 -17 -37 -90 13
-109 47 -18 83 -12 120 23 l36 33 33 -33 c40 -40 91 -44 145 -12 40 25 53 39
80 91 24 44 24 48 7 48 -8 0 -22 -18 -32 -39 -31 -69 -93 -108 -142 -90 -38
14 -39 53 -3 197 41 167 62 197 138 193 l23 -1 -21 -28 c-32 -43 -4 -85 41
-61 45 23 40 86 -8 108 -50 23 -101 10 -139 -36 l-22 -26 -11 22 c-25 47 -101
64 -156 35z"/>
<path d="M9388 2393 c-24 -6 -23 -23 1 -23 11 0 22 -4 25 -8 2 -4 -17 -96 -44
-202 -27 -107 -50 -200 -50 -206 0 -19 28 -24 43 -9 8 7 20 41 27 74 7 34 16
64 20 66 11 7 73 -13 82 -27 4 -7 8 -29 8 -49 0 -87 99 -100 141 -17 22 44 23
48 7 48 -7 0 -21 -18 -31 -40 -14 -31 -24 -40 -43 -40 -22 0 -24 4 -24 55 0
59 -13 75 -73 89 l-28 7 42 35 c48 40 91 64 114 64 14 0 15 -2 1 -21 -17 -25
-11 -49 14 -49 47 0 51 74 5 86 -39 10 -67 -2 -136 -57 -35 -28 -65 -46 -67
-41 -1 5 11 64 28 130 16 67 30 126 30 131 0 11 -58 13 -92 4z"/>
<path d="M10524 2365 c-10 -8 -40 -17 -66 -21 -32 -4 -48 -11 -48 -21 0 -14
24 -13 83 3 16 5 17 -6 15 -173 l-3 -178 -44 -5 c-25 -3 -46 -11 -49 -18 -3
-10 23 -12 122 -10 126 3 174 18 86 28 l-45 5 -3 203 c-3 213 -4 220 -48 187z"/>
<path d="M10007 2354 c-4 -4 -7 -58 -7 -120 l0 -113 -115 -3 c-152 -4 -152
-22 0 -26 l114 -3 3 -117 c2 -96 6 -117 18 -117 12 0 16 21 18 117 l3 117 114
3 c68 2 115 7 115 13 0 6 -47 11 -115 13 l-114 3 -3 116 c-3 108 -11 137 -31
117z"/>
</g>
</svg>
