<?xml version="1.0" standalone="no"?>
<!DOCTYPE svg PUBLIC "-//W3C//DTD SVG 20010904//EN"
 "http://www.w3.org/TR/2001/REC-SVG-20010904/DTD/svg10.dtd">
<svg version="1.0" xmlns="http://www.w3.org/2000/svg"
 width="3464.000000pt" height="4533.000000pt" viewBox="0 0 3464.000000 4533.000000"
 preserveAspectRatio="xMidYMid meet">

<g transform="translate(0.000000,4533.000000) scale(0.100000,-0.100000)"
fill="#ffffff" stroke="none">
<path d="M4165 44693 c-417 -51 -740 -211 -1018 -503 -644 -677 -574 -1767
151 -2362 162 -133 377 -246 577 -302 217 -62 163 -59 1328 -63 l1067 -4 0
-1284 0 -1285 -85 0 -85 0 44 -87 c69 -140 152 -370 168 -467 2 -11 16 26 31
81 43 153 105 310 185 466 2 4 -35 7 -82 7 l-86 0 0 1285 0 1285 1008 0 c996
0 1110 4 1270 35 591 119 1085 587 1237 1172 131 504 12 1048 -315 1443 -30
36 -59 71 -65 78 -5 7 -50 49 -100 93 -196 177 -436 305 -688 370 -196 50
-144 49 -2402 47 -1160 0 -2123 -3 -2140 -5z m4448 -110 c147 -34 239 -67 382
-138 422 -209 714 -591 817 -1068 18 -86 22 -134 22 -297 0 -221 -15 -315 -80
-501 -182 -522 -628 -903 -1179 -1005 -96 -18 -196 -19 -2260 -19 -1790 0
-2173 2 -2235 14 -342 62 -623 212 -857 455 -408 423 -537 1033 -336 1581 194
527 652 902 1210 989 73 12 455 14 2253 13 l2165 -2 98 -22z"/>
<path d="M5810 43363 c-1 -60 -59 -146 -104 -155 -39 -7 -28 -27 16 -30 l43
-3 5 -165 c5 -178 11 -200 60 -225 64 -33 130 -11 156 51 19 46 19 124 -1 124
-11 0 -15 -12 -15 -50 0 -83 -33 -123 -88 -106 -34 11 -42 50 -42 216 l0 160
70 0 c56 0 70 3 70 15 0 12 -14 15 -70 15 l-70 0 0 90 c0 73 -3 90 -15 90 -10
0 -15 -10 -15 -27z"/>
<path d="M7120 43362 c0 -15 -11 -51 -25 -78 -23 -47 -42 -63 -87 -78 -32 -10
-19 -25 25 -28 l42 -3 5 -165 c6 -183 12 -203 65 -226 96 -40 165 15 165 131
0 33 -4 45 -15 45 -11 0 -15 -12 -15 -50 0 -83 -33 -123 -88 -106 -34 11 -42
50 -42 216 l0 160 70 0 c56 0 70 3 70 15 0 12 -14 15 -70 15 l-70 0 0 90 c0
73 -3 90 -15 90 -10 0 -15 -10 -15 -28z"/>
<path d="M5414 43221 c-56 -9 -93 -35 -111 -78 -12 -31 -13 -41 -1 -72 18 -47
62 -75 150 -95 79 -18 98 -29 117 -64 16 -30 -1 -85 -32 -100 -90 -44 -180 -1
-207 99 -17 64 -35 43 -38 -46 -3 -89 9 -114 36 -77 l17 22 40 -20 c74 -38
174 -19 218 41 28 39 32 98 8 136 -28 45 -61 63 -153 87 -96 25 -128 54 -108
98 16 33 49 48 109 48 60 0 96 -26 111 -81 17 -62 30 -46 30 36 0 41 -3 75 -7
75 -3 0 -14 -7 -23 -15 -14 -12 -21 -12 -55 0 -44 15 -42 15 -101 6z"/>
<path d="M6215 43212 c-78 -27 -109 -103 -54 -132 29 -16 59 4 59 41 0 17 -6
32 -15 35 -24 9 -18 21 16 33 91 31 158 -8 167 -97 l5 -52 -41 0 c-56 0 -165
-36 -201 -66 -35 -29 -56 -90 -42 -126 18 -47 79 -78 153 -78 43 0 112 31 121
55 8 19 27 20 27 2 0 -24 39 -50 71 -49 42 1 75 34 83 84 5 31 3 45 -9 57 -13
14 -15 12 -15 -21 0 -52 -16 -88 -39 -88 -27 0 -31 18 -31 143 0 62 -4 129 -9
150 -23 97 -137 148 -246 109z m174 -271 c-4 -88 -18 -113 -77 -138 -45 -19
-97 -2 -117 37 -19 36 -19 44 1 86 18 39 63 70 120 83 79 18 77 20 73 -68z"/>
<path d="M6638 43213 c-43 -5 -55 -33 -14 -33 50 0 56 -19 56 -181 0 -85 -5
-159 -10 -170 -7 -12 -21 -19 -40 -19 -20 0 -30 -5 -30 -15 0 -12 20 -15 120
-15 100 0 120 3 120 15 0 10 -10 15 -29 15 -61 0 -61 1 -61 139 0 138 15 193
61 225 33 23 53 21 46 -5 -5 -20 22 -59 42 -59 16 0 41 30 41 48 0 23 -11 37
-37 51 -49 25 -107 2 -142 -58 l-21 -36 0 53 0 52 -32 -2 c-18 -1 -50 -3 -70
-5z"/>
<path d="M1292 37883 c-124 -521 -333 -1388 -522 -2173 -77 -322 -143 -597
-147 -612 l-5 -28 2826 0 2826 0 0 -1285 0 -1285 -83 0 -84 0 47 -97 c60 -122
113 -264 143 -382 l24 -91 23 87 c36 140 105 314 188 476 2 4 -35 7 -82 7
l-86 0 0 1285 0 1285 2438 0 2438 0 42 178 c40 171 88 369 522 2172 110 459
203 847 207 863 l6 27 -5309 0 -5309 0 -103 -427z m10604 320 c-3 -10 -57
-236 -121 -503 -64 -267 -147 -613 -185 -770 -38 -157 -148 -616 -245 -1020
-97 -404 -179 -738 -182 -742 -2 -5 -2351 -8 -5219 -8 -4962 0 -5215 1 -5210
18 3 9 46 186 95 392 49 206 147 611 216 900 143 596 228 951 342 1422 l78
328 5218 0 c4965 0 5218 -1 5213 -17z"/>
<path d="M2109 37134 c-209 -64 -310 -306 -211 -506 18 -36 51 -82 73 -103
116 -105 310 -126 403 -45 l33 29 28 -29 c16 -17 32 -30 37 -30 4 0 8 47 8
104 0 57 3 111 6 120 4 10 18 16 35 16 19 0 29 5 29 15 0 13 -23 15 -146 15
-112 0 -145 -3 -142 -12 3 -7 22 -14 44 -16 85 -5 84 -5 84 -81 0 -60 -4 -74
-26 -100 -64 -76 -229 -63 -318 25 -16 16 -41 54 -55 84 -23 49 -26 67 -26
170 0 110 2 118 33 182 93 190 324 200 417 17 13 -25 26 -62 30 -82 4 -22 13
-37 21 -37 11 0 14 27 14 140 0 77 -4 140 -9 140 -5 0 -21 -17 -37 -37 -15
-21 -29 -40 -30 -42 -1 -1 -20 10 -41 27 -68 53 -158 66 -254 36z"/>
<path d="M8905 37131 c-39 -8 -35 -25 7 -31 27 -4 33 -9 31 -27 -1 -12 -34
-149 -73 -304 -39 -155 -70 -292 -68 -303 4 -27 43 -34 56 -9 5 10 20 62 33
116 22 91 24 97 48 97 34 0 91 -35 92 -57 1 -10 1 -39 -1 -65 -2 -41 2 -52 28
-78 37 -36 78 -39 117 -8 29 22 64 89 65 121 0 33 -22 13 -40 -36 -24 -64 -38
-79 -69 -75 -25 3 -26 5 -26 82 -1 73 -3 80 -28 102 -16 13 -48 29 -72 35
l-43 11 81 74 c76 69 125 97 153 87 7 -3 2 -14 -12 -28 -13 -13 -24 -28 -24
-34 0 -12 29 -41 41 -41 16 0 59 48 59 65 0 25 -46 65 -75 65 -40 0 -82 -26
-161 -101 -67 -63 -94 -81 -94 -61 0 4 23 94 50 201 28 106 50 197 50 202 0
10 -79 10 -125 0z"/>
<path d="M2702 37105 c-27 -20 -29 -56 -2 -80 41 -37 101 11 77 63 -6 12 -14
22 -18 22 -4 0 -13 2 -21 5 -7 3 -23 -2 -36 -10z"/>
<path d="M3575 36885 c-38 -10 -60 -24 -91 -58 -88 -97 -86 -224 6 -318 51
-53 108 -74 178 -66 68 7 142 71 142 121 0 27 -14 18 -35 -21 -25 -46 -69 -73
-121 -73 -80 0 -139 65 -146 160 l-3 45 153 3 c111 2 152 6 153 15 8 86 -47
178 -116 192 -61 12 -73 12 -120 0z m113 -31 c28 -20 48 -58 57 -111 l7 -43
-121 0 -121 0 0 25 c0 44 32 106 64 126 38 23 84 24 114 3z"/>
<path d="M6630 36880 c-97 -33 -145 -110 -104 -168 14 -21 14 -24 -16 -54
-126 -125 4 -270 195 -217 43 12 129 89 107 96 -7 3 -20 -4 -30 -15 -32 -37
-133 -53 -220 -36 -79 16 -98 92 -37 150 35 32 37 33 99 27 80 -7 116 1 116
27 0 25 -28 33 -112 28 -61 -3 -72 0 -84 17 -33 49 41 104 151 112 46 4 71 1
95 -11 41 -20 66 -20 73 -2 7 18 -8 31 -56 51 -48 20 -110 19 -177 -5z m58
-191 c-12 -7 -24 -7 -35 0 -15 9 -12 10 17 10 29 0 32 -1 18 -10z"/>
<path d="M2683 36883 c-46 -4 -63 -33 -20 -33 44 0 47 -14 47 -191 0 -178 0
-179 -51 -179 -10 0 -19 -7 -19 -15 0 -12 18 -15 105 -15 87 0 105 3 105 15 0
9 -9 15 -25 15 -14 0 -29 8 -35 19 -6 12 -10 96 -10 205 l0 186 -27 -2 c-16
-1 -47 -3 -70 -5z"/>
<path d="M3928 36883 c-39 -4 -63 -33 -27 -33 11 0 29 -5 40 -10 18 -10 19
-23 19 -179 0 -183 1 -181 -57 -181 -15 0 -23 -5 -21 -12 3 -9 38 -14 116 -16
93 -2 112 0 112 12 0 9 -12 16 -32 18 l-33 3 -3 135 c-3 148 4 176 50 215 22
18 41 25 74 25 70 0 75 -15 72 -211 l-3 -164 -32 -3 c-21 -2 -33 -9 -33 -18 0
-11 21 -14 109 -14 63 0 112 4 116 10 6 10 -1 14 -47 24 l-28 6 0 146 c0 165
-10 202 -62 234 -62 38 -151 20 -201 -39 l-27 -33 0 46 c0 51 3 50 -102 39z"/>
<path d="M4925 36874 c-43 -22 -64 -44 -86 -86 -23 -44 -24 -58 -5 -58 8 0 17
11 20 25 9 34 61 91 95 103 46 16 75 -4 79 -54 3 -44 -39 -227 -65 -283 -18
-37 -61 -60 -98 -53 -23 4 -23 4 -4 23 38 38 11 87 -38 68 -46 -17 -37 -90 13
-109 47 -18 83 -12 120 23 l36 33 33 -33 c40 -40 91 -44 145 -12 40 25 53 39
80 91 24 44 24 48 7 48 -8 0 -22 -18 -32 -39 -31 -69 -93 -108 -142 -90 -38
14 -39 53 -3 197 41 167 62 197 138 193 l23 -1 -21 -28 c-32 -43 -4 -85 41
-61 45 23 40 86 -8 108 -50 23 -101 10 -139 -36 l-22 -26 -11 22 c-25 47 -101
64 -156 35z"/>
<path d="M7669 36867 c-47 -25 -105 -92 -115 -133 -8 -32 5 -45 20 -19 79 138
258 131 304 -11 29 -88 27 -171 -7 -295 -32 -121 -38 -169 -20 -169 16 0 36
57 58 166 25 122 44 177 110 324 62 137 67 150 51 150 -11 0 -93 -165 -121
-242 -16 -47 -29 -49 -29 -4 0 19 -9 62 -19 96 -45 144 -126 192 -232 137z"/>
<path d="M2900 36865 c0 -8 8 -15 18 -15 40 0 60 -33 137 -219 43 -105 84
-191 91 -191 19 0 28 17 98 189 81 196 82 198 123 212 18 6 33 17 33 25 0 11
-17 14 -80 14 -64 0 -80 -3 -80 -15 0 -8 9 -19 20 -25 11 -6 20 -19 20 -30 0
-28 -103 -272 -111 -263 -3 5 -31 69 -62 143 -57 138 -60 160 -16 160 11 0 19
7 19 15 0 12 -18 15 -105 15 -87 0 -105 -3 -105 -15z"/>
<path d="M5463 36761 c-99 -62 -113 -310 -23 -396 26 -25 40 -30 93 -33 119
-6 169 59 169 218 0 100 -25 172 -70 205 -39 28 -128 32 -169 6z m122 -11 c41
-16 55 -64 55 -195 0 -161 -21 -205 -99 -205 -70 0 -100 63 -100 210 0 163 48
227 144 190z"/>
<path d="M10061 36627 c-39 -14 -57 -37 -48 -61 11 -28 52 -17 52 14 0 19 6
26 25 30 55 12 110 -20 110 -64 0 -21 -6 -24 -52 -30 -112 -15 -181 -69 -162
-124 19 -54 137 -76 192 -35 28 20 29 21 40 2 15 -23 59 -25 90 -3 15 11 22
25 22 50 0 19 -4 34 -10 34 -5 0 -10 -9 -10 -19 0 -32 -11 -51 -30 -51 -15 0
-18 12 -22 100 -4 118 -19 142 -100 159 -58 13 -54 13 -97 -2z m139 -171 c0
-62 -29 -96 -82 -96 -69 0 -98 43 -60 89 18 23 82 50 120 51 19 0 22 -5 22
-44z"/>
<path d="M9317 36624 c-13 -13 -7 -23 16 -26 21 -3 22 -7 25 -115 3 -108 2
-112 -19 -115 -13 -2 -24 -9 -27 -15 -3 -10 17 -13 77 -13 65 0 81 3 81 15 0
9 -9 15 -25 15 -25 0 -25 1 -25 79 0 44 4 91 10 105 16 43 92 70 130 46 12 -7
15 -32 15 -117 0 -104 -1 -108 -22 -111 -13 -2 -23 -10 -23 -18 0 -11 17 -14
81 -14 60 0 80 3 77 13 -3 6 -14 13 -26 15 -28 4 -35 34 -30 119 4 59 7 69 36
94 35 31 88 39 110 17 8 -8 12 -49 12 -120 l0 -108 -25 0 c-16 0 -25 -6 -25
-15 0 -12 16 -15 80 -15 64 0 80 3 80 15 0 9 -9 15 -25 15 -25 0 -25 0 -25 95
0 100 -13 147 -45 159 -37 14 -103 6 -137 -18 l-34 -23 -28 23 c-46 40 -144
29 -178 -20 -8 -11 -9 -9 -12 24 -1 10 -15 16 -46 18 -25 2 -49 0 -53 -4z"/>
<path d="M10370 36613 c0 -7 9 -13 20 -13 22 0 80 -48 111 -92 l22 -30 -49
-49 c-27 -27 -62 -53 -78 -57 -16 -4 -31 -13 -34 -20 -3 -9 15 -12 63 -12 l67
0 -7 28 c-4 22 1 33 28 60 l33 32 33 -34 c26 -27 31 -38 25 -60 l-6 -26 71 0
c56 0 71 3 71 15 0 9 -9 15 -23 15 -16 0 -43 20 -80 59 -32 33 -57 64 -57 69
0 18 90 93 120 99 53 10 34 28 -30 27 -66 0 -79 -6 -61 -28 10 -12 6 -21 -18
-48 l-30 -33 -31 30 c-23 23 -29 35 -25 55 5 25 5 25 -65 25 -49 0 -70 -4 -70
-12z"/>
<path d="M5912 36544 c-45 -32 -15 -101 40 -90 25 5 28 3 28 -22 0 -34 -34
-110 -62 -139 -12 -13 -19 -26 -15 -29 23 -23 81 63 96 142 11 59 0 123 -25
141 -23 17 -35 16 -62 -3z"/>
<path d="M7012 36544 c-45 -31 -16 -100 40 -92 25 4 28 1 28 -21 0 -32 -41
-121 -63 -140 -21 -16 -22 -31 -3 -31 21 0 68 75 82 132 29 108 -20 197 -84
152z"/>
<path d="M8222 36544 c-45 -32 -15 -101 40 -90 25 5 28 3 28 -22 0 -32 -40
-122 -63 -141 -20 -16 -22 -31 -4 -31 28 0 74 79 87 150 11 60 5 101 -22 129
-23 25 -36 26 -66 5z"/>
<path d="M760 30305 l0 -1615 2755 0 2755 0 0 -1290 0 -1290 -83 0 -82 0 52
-107 c53 -111 137 -348 149 -422 l7 -41 -2777 0 -2776 0 0 -1620 0 -1620 2755
0 2755 0 0 -1290 0 -1290 -80 0 c-44 0 -80 -2 -80 -4 0 -1 22 -50 49 -107 56
-118 102 -245 135 -369 l23 -85 13 55 c24 100 91 283 145 398 l54 112 -85 0
-84 0 0 1290 0 1290 2755 0 2755 0 0 1620 0 1620 -2775 0 c-2068 0 -2775 3
-2775 11 0 7 14 60 31 118 35 124 86 255 140 364 l39 77 -85 0 -85 0 0 1290 0
1290 2755 0 2755 0 0 1615 0 1615 -5555 0 -5555 0 0 -1615z m11020 0 l0 -1535
-5465 0 -5465 0 0 1535 0 1535 5465 0 5465 0 0 -1535z m0 -6385 l0 -1530
-5465 0 -5465 0 0 1530 0 1530 5465 0 5465 0 0 -1530z"/>
<path d="M5113 30643 c-39 -5 -46 -33 -9 -33 55 0 56 -8 56 -306 0 -171 -4
-283 -10 -295 -7 -12 -21 -19 -40 -19 -20 0 -30 -5 -30 -15 0 -12 19 -15 110
-15 91 0 110 3 110 15 0 10 -10 15 -30 15 -37 0 -50 23 -50 92 0 49 3 55 35
81 l34 27 61 -82 c65 -88 71 -107 40 -115 -11 -3 -20 -12 -20 -19 0 -11 22
-14 100 -14 80 0 100 3 100 14 0 8 -13 17 -29 21 -16 3 -37 16 -48 28 -24 26
-153 205 -153 210 0 13 139 109 171 119 22 6 39 17 39 25 0 10 -21 13 -90 13
-72 0 -90 -3 -90 -14 0 -8 5 -18 10 -21 25 -15 5 -46 -70 -109 l-80 -67 0 236
0 235 -42 -2 c-24 0 -58 -3 -75 -5z"/>
<path d="M7250 30609 c-43 -17 -89 -71 -111 -128 -40 -106 -36 -339 8 -425 36
-72 103 -116 177 -116 135 0 204 98 214 303 9 202 -40 328 -141 366 -35 13
-113 13 -147 0z m152 -46 c43 -41 52 -88 52 -289 -1 -172 -2 -184 -25 -230
-32 -66 -83 -93 -136 -73 -78 30 -92 79 -93 320 0 184 7 226 44 268 44 49 109
51 158 4z"/>
<path d="M5990 30310 c0 -20 4 -20 338 -18 292 3 337 5 337 18 0 13 -45 15
-337 18 -334 2 -338 2 -338 -18z"/>
<path d="M5997 30123 c-4 -3 -7 -12 -7 -20 0 -11 60 -13 338 -11 292 3 337 5
337 18 0 13 -45 15 -331 18 -182 1 -333 -1 -337 -5z"/>
<path d="M8486 24366 c-62 -65 -105 -142 -137 -246 -31 -97 -33 -289 -5 -390
25 -93 82 -195 143 -257 68 -70 87 -60 29 15 -79 102 -110 186 -126 337 -22
202 25 407 118 517 50 60 54 66 42 73 -6 3 -34 -19 -64 -49z"/>
<path d="M9770 24409 c0 -6 19 -32 41 -57 87 -98 129 -241 129 -440 0 -185
-43 -326 -130 -425 -66 -75 -50 -94 20 -24 132 131 196 335 170 544 -20 157
-64 256 -158 356 -54 56 -72 68 -72 46z"/>
<path d="M8027 24352 c-36 -22 -72 -98 -87 -184 l-12 -68 -49 0 c-37 0 -49 -4
-49 -15 0 -11 12 -15 45 -15 25 0 45 -4 45 -8 0 -27 -93 -490 -104 -516 -18
-44 -40 -60 -73 -51 -24 6 -25 8 -10 16 45 25 43 79 -3 79 -33 0 -52 -21 -52
-57 0 -61 94 -85 150 -38 46 39 78 126 115 315 19 96 38 194 42 218 l7 42 59
0 c46 0 59 3 59 15 0 12 -13 15 -55 15 l-56 0 7 38 c3 20 12 68 20 105 8 38
14 70 14 72 0 13 52 36 69 30 20 -6 20 -6 0 -26 -23 -23 -25 -64 -4 -73 21 -8
61 9 69 29 11 29 7 45 -19 70 -29 30 -86 33 -128 7z"/>
<path d="M4283 24353 c-38 -5 -46 -33 -10 -33 46 0 47 -7 47 -316 0 -314 2
-304 -51 -304 -10 0 -19 -7 -19 -15 0 -12 19 -15 110 -15 91 0 110 3 110 15 0
10 -10 15 -30 15 -19 0 -33 7 -40 19 -6 12 -10 135 -10 330 l0 311 -37 -2
c-21 0 -53 -3 -70 -5z"/>
<path d="M2550 24335 c0 -9 9 -15 24 -15 14 0 36 -4 50 -10 l26 -10 0 -289 c0
-277 -1 -291 -19 -301 -11 -5 -33 -10 -50 -10 -21 0 -31 -5 -31 -15 0 -13 37
-15 292 -13 l293 3 19 122 c18 110 18 148 0 131 -3 -4 -12 -36 -21 -72 -18
-80 -58 -128 -121 -145 -23 -7 -92 -10 -154 -9 l-113 3 -3 153 -3 152 53 0
c109 0 148 -26 148 -96 0 -15 6 -24 15 -24 13 0 15 21 15 130 0 109 -2 130
-15 130 -10 0 -15 -10 -15 -30 0 -19 -9 -40 -25 -55 -21 -22 -33 -25 -100 -25
l-75 0 0 135 0 134 36 7 c20 4 81 4 134 1 145 -8 180 -32 201 -139 11 -53 21
-70 32 -50 3 4 -2 52 -9 107 -7 55 -13 103 -14 108 0 4 -128 7 -285 7 -247 0
-285 -2 -285 -15z"/>
<path d="M6825 24333 c24 -64 351 -686 362 -690 8 -3 20 1 27 8 16 17 356 676
356 689 0 6 -138 10 -376 10 -354 0 -376 -1 -369 -17z m675 -62 c0 -10 -258
-512 -269 -524 -6 -6 -257 466 -279 524 -2 5 120 9 272 9 152 0 276 -4 276 -9z"/>
<path d="M5720 24253 c-1 -63 -52 -139 -104 -153 -40 -11 -29 -30 18 -30 l45
0 3 -176 3 -176 28 -23 c15 -13 43 -27 64 -31 78 -15 124 30 131 126 4 50 2
60 -12 60 -13 0 -16 -11 -16 -50 0 -83 -33 -123 -88 -106 -34 11 -42 50 -42
216 l0 160 70 0 c56 0 70 3 70 15 0 12 -14 15 -70 15 l-70 0 0 90 c0 73 -3 90
-15 90 -10 0 -15 -10 -15 -27z"/>
<path d="M3871 24110 c-51 -12 -81 -31 -97 -63 -26 -49 12 -101 56 -77 24 13
28 68 5 76 -24 9 -18 21 16 33 91 31 158 -8 167 -97 l5 -52 -41 0 c-55 0 -156
-33 -197 -64 -76 -59 -66 -149 22 -188 68 -30 143 -22 186 20 36 35 47 39 47
19 0 -23 39 -50 71 -50 44 0 78 37 81 92 2 28 -1 45 -9 48 -9 3 -13 -6 -13
-26 0 -45 -17 -81 -39 -81 -27 0 -31 18 -31 143 -1 132 -10 180 -42 214 -44
47 -119 69 -187 53z m148 -279 c-4 -67 -8 -83 -28 -105 -51 -54 -137 -52 -166
5 -19 35 -19 43 1 85 18 39 63 70 120 83 79 18 77 20 73 -68z"/>
<path d="M5241 24110 c-51 -12 -81 -31 -97 -63 -26 -49 12 -101 56 -77 24 13
28 68 5 76 -24 9 -18 21 16 33 90 31 158 -8 166 -96 l5 -50 -68 -6 c-79 -7
-166 -46 -197 -89 -28 -38 -28 -100 1 -131 59 -62 218 -60 253 4 11 22 29 25
29 6 0 -24 39 -50 72 -49 46 1 77 37 83 95 4 37 2 47 -10 47 -11 0 -15 -11
-15 -38 0 -46 -19 -76 -46 -70 -17 3 -19 15 -24 153 -5 122 -9 156 -24 182
-34 57 -128 90 -205 73z m148 -279 c-4 -67 -8 -83 -28 -105 -38 -41 -84 -51
-128 -29 -97 47 -46 172 83 202 79 18 77 20 73 -68z"/>
<path d="M6163 24108 c-58 -12 -127 -76 -147 -135 -32 -95 -14 -175 55 -245
53 -52 108 -73 177 -65 68 7 142 71 142 121 0 27 -14 18 -38 -24 -30 -53 -71
-74 -134 -68 -79 8 -122 62 -130 163 l-3 40 153 3 c111 2 152 6 153 15 12 133
-94 224 -228 195z m105 -34 c28 -20 48 -58 57 -111 l7 -43 -121 0 -121 0 0 25
c0 44 32 106 64 126 38 23 84 24 114 3z"/>
<path d="M4570 24101 c-45 -6 -69 -31 -29 -31 11 0 29 -5 40 -10 17 -10 19
-23 19 -153 0 -115 3 -149 18 -177 21 -43 72 -70 130 -70 49 0 75 11 115 48
l27 26 0 -38 0 -38 68 7 c71 7 99 20 66 30 -70 23 -64 4 -64 221 l0 197 -52
-7 c-29 -3 -63 -6 -75 -6 -34 0 -28 -25 10 -35 l32 -10 3 -141 c2 -132 1 -142
-21 -175 -29 -43 -80 -62 -130 -48 -19 5 -38 16 -41 24 -3 8 -6 100 -7 205
l-1 190 -32 -2 c-17 0 -51 -4 -76 -7z"/>
<path d="M8785 24094 c-43 -22 -64 -44 -86 -86 -23 -44 -24 -58 -5 -58 8 0 17
11 20 25 9 34 61 91 95 103 46 16 75 -4 79 -55 3 -45 -38 -224 -65 -281 -18
-38 -61 -62 -98 -54 -23 4 -23 4 -4 23 25 25 24 55 -1 69 -43 23 -85 -33 -60
-80 27 -50 106 -53 156 -7 l36 33 33 -33 c26 -26 41 -33 72 -33 66 0 144 65
167 138 13 39 -20 25 -39 -17 -20 -46 -49 -75 -87 -90 -38 -14 -76 1 -84 35
-9 36 52 286 78 319 24 31 58 46 86 38 l21 -5 -20 -27 c-31 -42 -2 -84 41 -61
54 29 42 93 -21 111 -48 15 -84 5 -120 -31 -28 -27 -30 -28 -39 -9 -24 45
-101 61 -155 33z"/>
<path d="M3230 24085 c0 -9 9 -15 22 -15 12 0 29 -7 39 -16 9 -8 52 -100 94
-205 43 -104 83 -189 90 -189 20 0 28 16 100 190 69 170 90 204 131 214 13 4
24 13 24 21 0 12 -16 15 -80 15 -64 0 -80 -3 -80 -15 0 -8 9 -19 20 -25 11 -6
20 -19 20 -30 0 -28 -103 -272 -110 -263 -7 8 -63 138 -99 231 l-21 54 30 11
c16 6 30 17 30 24 0 10 -26 13 -105 13 -87 0 -105 -3 -105 -15z"/>
<path d="M9328 24013 c-24 -6 -23 -23 1 -23 11 0 22 -4 25 -8 2 -4 -17 -96
-44 -202 -27 -107 -50 -200 -50 -206 0 -19 28 -24 43 -9 8 7 20 41 27 75 7 34
18 64 25 66 15 6 67 -14 77 -29 4 -7 8 -28 8 -48 0 -36 17 -60 53 -72 30 -11
65 11 87 52 23 47 24 51 8 51 -7 0 -21 -18 -30 -40 -13 -32 -22 -40 -42 -40
-25 0 -26 3 -26 55 0 59 -13 75 -73 89 l-28 7 42 35 c49 41 91 64 116 64 13 0
14 -3 5 -12 -19 -19 -15 -58 7 -58 48 0 53 74 6 86 -39 10 -67 -2 -136 -57
-35 -28 -65 -46 -67 -41 -1 5 11 64 28 130 16 67 30 126 30 131 0 11 -58 13
-92 4z"/>
<path d="M19750 24750 l0 -790 -3650 0 -3650 0 0 85 c0 47 -2 85 -5 85 -2 0
-33 -15 -67 -34 -88 -48 -275 -119 -396 -152 l-102 -27 91 -24 c120 -31 261
-84 382 -143 l97 -47 0 83 0 84 3650 0 3650 0 0 -785 0 -785 3190 0 3190 0 0
1620 0 1620 -3190 0 -3190 0 0 -790z m6300 -830 l0 -1530 -3105 0 -3105 0 0
1530 0 1530 3105 0 3105 0 0 -1530z"/>
<path d="M20976 24301 c-44 -9 -45 -31 -2 -31 19 0 37 -3 40 -8 2 -4 -29 -142
-70 -307 -41 -164 -74 -308 -72 -320 4 -26 43 -32 56 -8 5 10 20 62 33 117
l23 98 40 -5 c61 -8 79 -34 77 -107 -1 -55 1 -64 28 -90 36 -36 77 -39 116 -8
29 22 64 89 65 121 0 33 -22 13 -40 -36 -24 -64 -37 -77 -72 -77 l-29 0 3 79
c4 101 -14 123 -115 145 -27 6 -25 8 55 82 77 69 126 97 154 87 7 -3 2 -14
-12 -28 -13 -13 -24 -28 -24 -34 0 -17 32 -42 47 -37 8 3 18 6 23 6 4 0 13 13
20 29 13 33 2 64 -30 81 -49 26 -99 1 -207 -101 -65 -63 -90 -74 -79 -36 19
69 96 378 96 387 0 11 -76 12 -124 1z"/>
<path d="M22905 24301 c-39 -8 -35 -25 7 -31 27 -4 33 -9 31 -27 -1 -12 -34
-149 -73 -304 -39 -155 -70 -292 -68 -303 4 -27 43 -34 56 -9 5 10 19 61 32
113 13 52 24 98 26 101 7 12 83 -13 100 -33 14 -15 18 -33 16 -79 -2 -55 0
-63 27 -89 36 -36 77 -39 116 -8 29 22 64 89 65 121 0 34 -21 12 -43 -43 -22
-55 -55 -84 -84 -73 -11 4 -13 24 -11 85 3 77 2 81 -25 104 -16 13 -48 29 -72
35 l-43 11 81 74 c76 69 125 97 153 87 7 -3 2 -14 -12 -28 -28 -28 -30 -38 -8
-59 26 -26 52 -19 73 21 16 31 14 41 -14 68 -48 48 -101 28 -223 -86 -56 -53
-82 -70 -82 -53 0 3 23 92 50 198 28 106 50 198 50 204 0 13 -72 14 -125 3z"/>
<path d="M24783 24254 c-23 -14 -65 -27 -92 -31 -36 -4 -51 -10 -51 -21 0 -12
9 -14 48 -9 26 4 57 9 70 13 l22 6 0 -263 c0 -145 -4 -270 -9 -278 -5 -8 -32
-16 -65 -19 -39 -3 -56 -9 -56 -18 0 -11 32 -14 165 -14 140 0 165 2 165 15 0
11 -12 15 -49 15 -84 0 -81 -11 -81 331 0 233 -3 299 -12 298 -7 -1 -32 -12
-55 -25z"/>
<path d="M23910 24051 l0 -161 -160 0 c-153 0 -160 -1 -160 -20 0 -19 7 -20
160 -20 l160 0 0 -161 c0 -147 1 -160 18 -157 15 3 17 20 20 160 l3 157 157 3
c132 3 157 5 157 18 0 13 -25 15 -157 18 l-157 3 -3 157 c-3 140 -5 157 -20
160 -17 3 -18 -10 -18 -157z"/>
<path d="M21720 23970 c0 -20 4 -20 338 -18 292 3 337 5 337 18 0 13 -45 15
-337 18 -334 2 -338 2 -338 -18z"/>
<path d="M21720 23770 c0 -20 4 -20 338 -18 292 3 337 5 337 18 0 13 -45 15
-337 18 -334 2 -338 2 -338 -18z"/>
<path d="M26606 24079 c-112 -54 -261 -108 -384 -140 l-82 -22 89 -23 c114
-30 279 -92 393 -148 l88 -43 0 83 0 84 455 0 455 0 0 -3795 0 -3795 -3150 0
-3150 0 0 -805 c0 -443 -2 -805 -5 -805 -3 0 -104 50 -225 110 -121 61 -220
108 -220 104 0 -3 27 -41 60 -84 33 -43 60 -81 60 -84 0 -3 -720 -6 -1600 -6
l-1600 0 0 -45 0 -45 1604 -2 1605 -3 -64 -85 c-35 -46 -63 -86 -61 -88 2 -2
103 47 225 107 l221 111 0 -810 0 -810 6345 0 6345 0 0 1620 0 1620 -3150 0
-3150 0 0 3840 0 3840 -500 0 -499 0 -3 83 -3 83 -99 -47z m7314 -9419 l0
-1530 -6255 0 -6255 0 0 1530 0 1530 6255 0 6255 0 0 -1530z"/>
<path d="M31287 15116 c-62 -64 -106 -141 -138 -246 -31 -97 -33 -289 -5 -390
25 -93 82 -195 143 -257 68 -70 87 -60 29 15 -96 123 -131 242 -129 442 1 179
43 320 121 412 49 59 53 66 43 72 -6 4 -34 -18 -64 -48z"/>
<path d="M32570 15159 c0 -6 18 -32 40 -57 95 -108 135 -255 128 -471 -4 -114
-9 -149 -32 -216 -29 -85 -69 -156 -111 -195 -24 -23 -33 -50 -17 -50 4 0 27
18 49 40 119 113 177 267 176 465 -1 175 -49 316 -145 420 -54 59 -88 84 -88
64z"/>
<path d="M30817 15102 c-36 -22 -72 -98 -87 -184 l-12 -68 -49 0 c-37 0 -49
-4 -49 -15 0 -11 12 -15 45 -15 25 0 45 -3 45 -6 0 -19 -83 -448 -95 -490 -18
-64 -44 -89 -82 -79 -24 6 -25 8 -10 16 45 25 43 79 -3 79 -33 0 -52 -21 -52
-57 0 -61 94 -85 150 -38 46 39 78 126 115 315 19 96 38 194 42 218 l7 42 59
0 c46 0 59 3 59 15 0 12 -13 15 -55 15 -30 0 -55 4 -55 9 0 5 9 53 20 107 24
117 53 154 99 125 11 -7 9 -11 -8 -20 -25 -14 -29 -66 -5 -75 25 -9 33 -7 54
14 27 27 25 56 -5 85 -29 30 -86 33 -128 7z"/>
<path d="M29610 15093 c0 -5 80 -163 178 -353 136 -266 182 -346 197 -348 17
-2 47 51 195 339 96 187 176 347 178 355 3 12 -49 14 -372 14 -207 0 -376 -3
-376 -7z m680 -71 c0 -10 -258 -514 -268 -524 -5 -5 -46 65 -92 154 -45 90
-107 208 -136 264 -30 55 -51 104 -47 107 9 10 543 9 543 -1z"/>
<path d="M22585 14844 c-43 -22 -64 -44 -86 -86 -22 -44 -24 -58 -6 -58 7 0
19 15 25 34 18 49 75 96 115 96 43 0 57 -15 57 -63 0 -45 -44 -227 -67 -276
-18 -37 -61 -60 -98 -53 -23 4 -23 4 -4 23 38 38 11 87 -38 68 -46 -17 -37
-90 13 -109 47 -18 83 -12 120 23 l36 33 33 -33 c40 -40 88 -44 144 -12 54 30
121 139 86 139 -7 0 -17 -10 -20 -22 -21 -69 -100 -127 -148 -109 -46 18 -47
45 -7 206 38 153 72 200 135 187 l24 -4 -20 -27 c-31 -42 -2 -84 41 -61 55 29
44 92 -19 111 -50 15 -86 6 -122 -31 -28 -27 -30 -28 -39 -9 -24 45 -101 61
-155 33z"/>
<path d="M26070 14849 c-35 -14 -69 -48 -91 -91 -23 -44 -24 -58 -5 -58 8 0
17 11 20 25 3 13 20 40 36 59 61 69 132 65 138 -8 4 -48 -44 -249 -69 -292
-22 -36 -56 -54 -91 -47 -26 5 -26 5 -7 24 38 38 14 88 -35 70 -49 -19 -43
-91 10 -111 48 -19 83 -12 121 23 l36 34 26 -29 c36 -41 95 -48 148 -19 58 34
127 141 89 141 -8 0 -18 -10 -21 -22 -22 -70 -100 -127 -149 -108 -45 17 -44
63 5 249 33 122 56 147 132 142 16 -1 16 -3 -3 -29 -32 -43 -4 -85 41 -61 51
27 38 92 -22 110 -48 15 -84 5 -120 -31 -28 -27 -30 -28 -39 -9 -23 41 -95 60
-150 38z"/>
<path d="M28383 14840 c-47 -24 -98 -81 -114 -130 -14 -40 -2 -53 19 -20 61
93 144 119 233 74 51 -25 89 -126 89 -232 0 -26 -14 -96 -30 -157 -33 -122
-37 -165 -16 -165 14 0 45 101 65 214 11 61 82 249 132 348 31 62 35 78 18 78
-10 0 -93 -168 -120 -242 -7 -21 -17 -38 -21 -38 -4 0 -8 17 -8 38 -1 59 -45
172 -84 210 -44 45 -102 53 -163 22z"/>
<path d="M31590 14849 c-35 -14 -69 -48 -91 -91 -23 -44 -24 -58 -5 -58 8 0
17 11 20 25 3 13 20 40 36 59 61 69 132 65 138 -8 4 -48 -44 -249 -69 -292
-22 -36 -56 -54 -91 -47 -26 5 -26 5 -7 24 38 38 14 88 -35 70 -49 -19 -43
-91 10 -111 48 -19 83 -12 121 23 l36 34 26 -29 c36 -41 95 -48 148 -19 58 34
127 141 89 141 -8 0 -18 -10 -21 -22 -22 -70 -100 -127 -149 -108 -45 17 -44
63 5 249 33 122 56 147 132 142 16 -1 16 -3 -3 -29 -32 -43 -4 -85 41 -61 51
27 38 92 -22 110 -48 15 -84 5 -120 -31 -28 -27 -30 -28 -39 -9 -23 41 -95 60
-150 38z"/>
<path d="M24880 14770 c0 -20 4 -20 338 -18 292 3 337 5 337 18 0 13 -45 15
-337 18 -334 2 -338 2 -338 -18z"/>
<path d="M23128 14753 c-24 -6 -23 -23 1 -23 11 0 22 -4 25 -8 2 -4 -17 -96
-44 -202 -27 -107 -50 -200 -50 -206 0 -19 28 -24 43 -9 8 7 20 41 27 75 7 34
18 64 25 66 15 6 67 -14 77 -29 4 -7 8 -28 8 -48 0 -36 17 -60 53 -72 30 -11
65 11 87 52 23 47 24 51 8 51 -7 0 -21 -18 -31 -40 -14 -31 -24 -40 -43 -40
-22 0 -24 4 -24 55 0 59 -14 76 -72 90 l-27 7 27 23 c52 43 105 75 125 75 16
0 18 -3 9 -12 -19 -19 -15 -58 7 -58 48 0 53 74 6 86 -39 10 -65 -1 -135 -55
-36 -28 -66 -47 -68 -42 -2 5 11 63 28 129 16 67 30 126 30 131 0 11 -58 13
-92 4z"/>
<path d="M26608 14753 c-24 -6 -23 -23 1 -23 11 0 22 -4 25 -8 2 -4 -17 -96
-44 -202 -27 -107 -50 -200 -50 -206 0 -19 28 -24 43 -9 8 7 20 41 27 75 7 34
18 64 25 66 15 6 67 -14 77 -29 4 -7 8 -28 8 -48 0 -55 48 -88 96 -67 21 10
64 72 64 93 0 16 -29 1 -34 -18 -8 -32 -43 -67 -61 -61 -11 5 -15 21 -15 60 0
58 -13 74 -73 88 l-28 7 42 35 c49 41 91 64 116 64 13 0 14 -3 5 -12 -17 -17
-15 -48 4 -55 24 -9 48 21 40 51 -7 28 -41 42 -79 32 -13 -3 -53 -29 -88 -57
-35 -28 -65 -46 -67 -41 -1 5 11 64 28 130 16 67 30 126 30 131 0 11 -58 13
-92 4z"/>
<path d="M32128 14753 c-24 -6 -23 -23 1 -23 11 0 22 -4 25 -8 2 -4 -17 -96
-44 -202 -27 -107 -50 -200 -50 -206 0 -19 28 -24 43 -9 8 7 20 41 27 75 7 34
18 64 25 66 15 6 67 -14 77 -29 4 -7 8 -28 8 -48 0 -55 48 -88 96 -67 21 10
64 72 64 93 0 16 -29 1 -34 -18 -8 -32 -43 -67 -61 -61 -11 5 -15 21 -15 60 0
58 -13 74 -73 88 l-28 7 42 35 c49 41 91 64 116 64 13 0 14 -3 5 -12 -17 -17
-15 -48 4 -55 24 -9 48 21 40 51 -7 28 -41 42 -79 32 -13 -3 -53 -29 -88 -57
-35 -28 -65 -46 -67 -41 -1 5 11 64 28 130 16 67 30 126 30 131 0 11 -58 13
-92 4z"/>
<path d="M24245 14719 c-22 -10 -52 -19 -67 -19 -19 0 -28 -5 -28 -16 0 -13 7
-15 36 -10 19 4 42 10 50 13 12 5 14 -20 12 -173 l-3 -179 -44 -5 c-25 -3 -46
-11 -49 -18 -3 -10 23 -12 122 -10 126 3 174 18 86 28 l-45 5 -3 203 c-2 152
-5 202 -15 201 -6 0 -30 -9 -52 -20z"/>
<path d="M23747 14714 c-4 -4 -7 -58 -7 -120 l0 -113 -115 -3 c-68 -2 -115 -7
-115 -13 0 -6 47 -11 115 -13 l115 -3 0 -107 c0 -107 8 -141 29 -128 7 5 11
48 11 121 l0 114 115 3 c152 4 152 22 0 26 l-114 3 -3 116 c-3 108 -11 137
-31 117z"/>
<path d="M29152 14708 c-29 -29 -5 -88 36 -88 35 0 52 16 52 50 0 14 -5 31
-12 38 -7 7 -24 12 -38 12 -14 0 -31 -5 -38 -12z"/>
<path d="M27300 14670 c0 -20 4 -20 308 -18 265 3 307 5 307 18 0 13 -42 15
-307 18 -304 2 -308 2 -308 -18z"/>
<path d="M24887 14583 c-4 -3 -7 -12 -7 -20 0 -11 60 -13 338 -11 292 3 337 5
337 18 0 13 -45 15 -331 18 -182 1 -333 -1 -337 -5z"/>
<path d="M6119 18984 c-308 -248 -658 -530 -968 -779 -774 -622 -1084 -872
-1397 -1125 -187 -151 -430 -347 -540 -435 -109 -88 -316 -254 -459 -369 -779
-627 -977 -787 -1250 -1007 -165 -133 -400 -322 -522 -421 -123 -98 -223 -182
-223 -187 0 -4 71 -64 157 -133 87 -69 232 -185 323 -258 247 -200 851 -687
1250 -1008 118 -95 436 -350 705 -567 496 -399 645 -519 1156 -930 156 -126
365 -294 464 -374 99 -80 271 -218 383 -308 230 -186 695 -560 946 -762 134
-108 165 -137 148 -139 l-22 -3 0 -1130 0 -1129 45 0 45 0 0 1129 c0 1129 0
1130 -20 1133 -15 2 53 62 262 230 156 125 416 334 578 465 163 131 327 263
365 294 39 31 360 290 715 575 355 286 751 605 880 709 129 104 325 262 435
350 110 89 283 228 385 310 102 82 302 243 445 358 1346 1085 1460 1175 1463
1161 3 -12 254 -14 1768 -14 l1764 0 0 45 0 45 -1765 0 c-1562 0 -1765 -2
-1765 -15 0 -8 -2 -15 -5 -15 -3 0 -74 55 -158 123 -146 118 -375 303 -837
675 -118 95 -435 350 -705 567 -496 399 -645 519 -1156 930 -156 126 -365 294
-464 374 -99 80 -271 218 -383 308 -111 90 -330 266 -485 391 -155 125 -522
421 -816 657 -293 237 -536 431 -540 433 -5 1 -95 -68 -202 -154z m612 -290
c218 -176 483 -389 589 -474 237 -191 590 -474 770 -620 74 -60 329 -265 565
-455 237 -190 502 -404 590 -475 160 -129 766 -616 1390 -1119 358 -288 664
-535 928 -747 92 -75 167 -139 167 -143 0 -4 -30 -31 -67 -61 -72 -56 -667
-535 -938 -754 -88 -71 -290 -234 -450 -362 -370 -297 -732 -589 -955 -769
-241 -195 -533 -429 -870 -700 -157 -126 -411 -331 -565 -455 -154 -124 -372
-300 -485 -391 -113 -91 -286 -230 -385 -310 -99 -80 -296 -238 -438 -352
-175 -141 -262 -205 -271 -200 -7 4 -112 88 -232 185 -120 97 -320 258 -444
358 -124 99 -286 230 -360 290 -74 60 -328 265 -565 455 -236 190 -502 404
-590 475 -326 263 -1278 1029 -1510 1216 -132 106 -348 280 -480 386 -423 341
-814 656 -1022 822 -111 88 -202 164 -202 167 -1 3 50 47 112 96 61 50 209
168 327 263 617 498 880 709 1130 911 151 122 365 294 475 382 110 88 279 224
375 302 96 78 384 309 640 515 256 206 665 536 910 733 245 197 517 416 605
487 88 71 313 252 500 403 189 153 344 271 350 267 6 -4 188 -151 406 -326z"/>
<path d="M3102 15748 c-9 -9 -12 -123 -12 -489 0 -409 2 -478 15 -489 31 -26
35 33 35 499 0 352 -3 461 -13 474 -10 14 -15 15 -25 5z"/>
<path d="M3305 15749 c-3 -8 -4 -232 -3 -499 3 -423 5 -485 18 -485 13 0 15
62 18 486 2 422 0 488 -13 499 -12 10 -16 10 -20 -1z"/>
<path d="M5196 15706 c-217 -218 -218 -664 -2 -890 63 -66 96 -68 43 -3 -54
66 -82 117 -105 187 -46 139 -50 323 -11 477 22 88 48 141 105 215 24 31 40
59 35 63 -6 3 -35 -19 -65 -49z"/>
<path d="M6520 15747 c0 -7 11 -24 25 -37 41 -39 82 -110 112 -195 26 -76 28
-89 27 -255 0 -162 -2 -181 -26 -252 -27 -82 -71 -159 -113 -198 -25 -23 -33
-50 -16 -50 5 0 36 29 69 64 105 113 155 252 155 436 0 121 -19 214 -63 306
-43 89 -170 225 -170 181z"/>
<path d="M6992 15748 c-9 -9 -12 -123 -12 -489 0 -401 2 -478 14 -488 33 -27
36 20 36 491 0 358 -3 468 -13 481 -10 14 -15 15 -25 5z"/>
<path d="M7197 15753 c-9 -8 -9 -977 -1 -986 3 -3 12 -3 20 0 20 8 21 965 1
982 -8 6 -17 8 -20 4z"/>
<path d="M4727 15692 c-36 -22 -72 -98 -87 -184 l-12 -68 -49 0 c-37 0 -49 -4
-49 -15 0 -11 12 -15 45 -15 25 0 45 -3 45 -6 0 -26 -94 -494 -104 -518 -18
-44 -40 -60 -73 -51 -24 6 -25 8 -10 16 45 25 43 79 -3 79 -33 0 -52 -21 -52
-57 0 -61 94 -85 150 -38 56 47 95 179 158 538 l6 37 59 0 c46 0 59 3 59 15 0
12 -13 15 -55 15 l-56 0 7 38 c3 20 12 68 20 105 8 38 14 70 14 72 0 14 52 36
70 30 l22 -7 -21 -15 c-43 -30 -17 -92 31 -74 71 27 32 121 -49 121 -21 0 -51
-8 -66 -18z"/>
<path d="M3520 15684 c0 -9 340 -676 353 -691 27 -35 44 -9 217 328 96 187
176 346 178 354 3 13 -49 15 -372 15 -207 0 -376 -3 -376 -6z m680 -72 c0 -9
-258 -514 -268 -524 -6 -6 -282 510 -282 527 0 3 124 5 275 5 151 0 275 -4
275 -8z"/>
<path d="M8493 15417 c-206 -99 -293 -146 -293 -158 0 -19 584 -303 606 -295
17 7 18 21 2 33 -7 5 -129 65 -270 133 -142 68 -258 127 -258 130 0 4 116 62
258 129 141 68 263 129 271 136 15 14 7 36 -12 34 -7 0 -144 -64 -304 -142z"/>
<path d="M9383 15439 c-93 -36 -136 -111 -96 -168 15 -22 15 -25 -1 -37 -35
-25 -66 -78 -66 -111 0 -102 113 -158 245 -122 44 12 129 89 107 97 -7 2 -19
-3 -25 -12 -44 -58 -253 -60 -289 -3 -19 29 -8 76 26 112 33 35 35 35 89 29
30 -4 72 -3 92 0 30 6 36 11 33 29 -3 21 -8 22 -92 22 -77 0 -90 2 -102 20
-33 49 41 104 151 112 46 4 71 1 95 -11 18 -9 41 -16 50 -16 22 0 33 25 17 38
-58 46 -148 54 -234 21z m65 -186 c-10 -2 -26 -2 -35 0 -10 3 -2 5 17 5 19 0
27 -2 18 -5z"/>
<path d="M5360 15425 c0 -22 4 -25 38 -25 34 0 43 -7 114 -89 l77 -88 -77 -82
c-70 -74 -80 -81 -114 -81 -34 0 -38 -3 -38 -25 0 -25 0 -25 95 -25 95 0 95 0
95 25 0 16 -6 25 -15 25 -23 0 -18 11 36 70 l51 55 53 -60 c37 -41 49 -61 39
-63 -7 -2 -14 -14 -14 -28 l0 -24 115 0 115 0 0 25 c0 22 -4 25 -37 25 -35 1
-44 8 -121 96 l-84 94 30 38 c63 78 105 111 147 114 33 2 41 7 43 26 3 22 1
22 -97 22 l-101 0 0 -25 c0 -16 6 -25 15 -25 24 0 18 -13 -31 -60 l-45 -45
-44 50 c-29 34 -39 51 -29 53 8 2 14 14 14 28 l0 24 -115 0 -115 0 0 -25z"/>
<path d="M6073 15343 c-20 -7 -15 -23 6 -23 11 0 22 -4 25 -8 2 -4 -17 -96
-44 -202 -27 -107 -50 -200 -50 -206 0 -19 28 -24 43 -9 8 7 20 41 27 74 7 34
16 64 20 66 11 7 73 -13 82 -27 4 -7 8 -29 8 -49 0 -87 99 -100 141 -17 22 44
23 48 7 48 -7 0 -21 -18 -31 -40 -14 -31 -24 -40 -43 -40 -22 0 -24 4 -24 55
0 59 -13 75 -74 89 l-28 7 63 49 c37 29 74 50 89 50 19 0 21 -3 12 -12 -19
-19 -15 -58 7 -58 48 0 53 74 6 86 -39 10 -67 -2 -136 -57 -35 -28 -65 -46
-67 -41 -1 5 11 64 28 130 16 67 30 126 30 131 0 11 -74 14 -97 4z"/>
<path d="M7494 15326 c-44 -19 -76 -63 -72 -100 3 -27 7 -31 33 -31 35 0 48
31 21 51 -22 16 -11 40 25 55 91 37 172 -23 155 -115 -8 -43 -40 -82 -146
-180 -47 -44 -86 -85 -88 -93 -3 -10 26 -13 141 -13 l144 0 10 60 c11 66 -4
84 -24 30 l-11 -30 -91 0 c-50 0 -91 2 -91 4 0 2 43 37 95 77 135 105 162 169
103 245 -40 51 -136 69 -204 40z"/>
<path d="M4665 14411 c-39 -8 -35 -25 7 -31 27 -4 33 -9 31 -27 -1 -12 -34
-149 -73 -304 -39 -155 -70 -292 -68 -303 4 -27 43 -34 56 -9 5 10 20 62 33
116 22 91 24 97 48 97 34 0 91 -35 92 -57 1 -10 1 -39 -1 -65 -2 -41 2 -52 28
-78 37 -36 78 -39 117 -8 29 22 64 89 65 121 0 33 -22 13 -40 -36 -24 -64 -38
-79 -69 -75 -25 3 -26 5 -26 82 -1 73 -3 80 -28 102 -16 13 -48 29 -72 35
l-43 11 81 74 c76 69 125 97 153 87 7 -3 2 -14 -12 -28 -13 -13 -24 -28 -24
-34 0 -12 29 -41 41 -41 16 0 59 48 59 65 0 25 -46 65 -75 65 -40 0 -82 -26
-161 -101 -67 -63 -94 -81 -94 -61 0 4 23 94 50 201 28 106 50 197 50 202 0
10 -79 10 -125 0z"/>
<path d="M6602 14411 c-18 -3 -33 -10 -33 -16 0 -5 15 -12 33 -15 41 -6 44 16
-43 -334 -39 -154 -69 -289 -67 -300 4 -27 43 -34 56 -9 5 10 20 62 33 117
l23 98 40 -5 c61 -9 81 -35 78 -107 -2 -56 0 -64 27 -90 36 -36 77 -39 116 -8
29 22 64 89 65 121 0 33 -22 13 -40 -36 -24 -64 -37 -77 -72 -77 l-29 0 3 81
c3 78 2 82 -25 105 -16 13 -48 29 -72 35 l-43 11 81 74 c76 69 125 97 153 87
7 -3 2 -14 -12 -28 -28 -28 -30 -38 -8 -59 21 -22 31 -20 60 9 19 19 23 31 18
48 -17 56 -65 72 -125 41 -17 -8 -64 -47 -105 -85 -67 -62 -94 -80 -94 -64 0
3 23 94 50 202 28 108 50 200 50 204 0 10 -67 10 -118 0z"/>
<path d="M5440 14362 c0 -14 52 -44 223 -126 122 -60 243 -117 270 -129 26
-11 47 -24 47 -27 0 -3 -121 -64 -270 -135 -209 -99 -270 -132 -270 -147 0
-10 6 -18 12 -18 17 0 579 270 598 286 9 9 11 17 5 23 -14 13 -590 291 -604
291 -6 0 -11 -8 -11 -18z"/>
<path d="M3271 14164 c-88 -32 -132 -81 -151 -170 -24 -114 39 -221 151 -255
19 -6 66 -10 104 -10 39 0 85 4 104 10 111 34 172 138 150 255 -21 111 -107
177 -239 183 -51 2 -89 -2 -119 -13z m163 -34 c49 -18 66 -64 66 -175 0 -145
-29 -185 -135 -185 -35 0 -52 6 -77 29 l-33 29 0 125 c0 111 2 127 20 147 11
12 29 26 40 31 28 11 89 11 119 -1z"/>
<path d="M3763 14173 c-48 -4 -53 -6 -53 -28 0 -19 6 -24 33 -27 l32 -3 3
-167 2 -168 -35 0 c-31 0 -35 -3 -35 -25 l0 -25 130 0 130 0 0 25 c0 23 -4 25
-40 25 l-40 0 0 108 c0 59 5 124 10 144 13 46 53 94 82 100 21 4 23 0 23 -36
0 -33 5 -43 28 -56 24 -13 30 -13 55 0 40 23 43 80 7 109 -63 49 -145 33 -192
-38 l-23 -34 0 52 0 51 -32 -2 c-18 -1 -57 -3 -85 -5z"/>
<path d="M7760 13913 c-53 -10 -79 -62 -41 -82 24 -13 46 10 38 39 -5 18 0 20
41 20 53 0 64 -6 81 -37 21 -40 14 -50 -41 -57 -108 -15 -178 -66 -164 -121
14 -55 138 -79 194 -38 28 20 29 21 40 2 16 -25 73 -25 95 -1 18 20 23 82 8
82 -6 0 -11 -15 -13 -32 -2 -25 -8 -34 -25 -36 -20 -3 -21 1 -25 97 -3 88 -6
102 -26 124 -13 14 -43 30 -67 36 -45 11 -52 12 -95 4z m130 -177 c0 -62 -29
-96 -82 -96 -69 0 -98 43 -60 89 18 23 82 50 120 51 19 0 22 -5 22 -44z"/>
<path d="M7007 13904 c-13 -13 -7 -23 16 -26 21 -3 22 -7 25 -115 3 -108 2
-112 -19 -115 -13 -2 -24 -9 -27 -15 -3 -10 17 -13 77 -13 65 0 81 3 81 15 0
9 -9 15 -25 15 -25 0 -25 1 -25 90 0 83 2 93 24 115 28 28 66 40 101 31 30 -8
37 -40 33 -151 -3 -74 -5 -80 -25 -83 -13 -2 -23 -10 -23 -18 0 -11 17 -14 81
-14 60 0 80 3 77 13 -3 6 -14 13 -26 15 -28 4 -35 34 -30 119 4 59 7 69 36 94
35 31 88 39 110 17 8 -8 12 -49 12 -120 l0 -108 -25 0 c-16 0 -25 -6 -25 -15
0 -12 16 -15 80 -15 64 0 80 3 80 15 0 9 -9 15 -24 15 -24 0 -24 1 -28 111 -3
104 -5 112 -28 131 -34 27 -129 22 -162 -9 l-23 -22 -28 25 c-21 18 -40 24
-74 24 -42 0 -103 -25 -103 -42 0 -4 -4 -8 -10 -8 -5 0 -9 10 -7 23 2 20 -3
22 -43 25 -25 2 -49 0 -53 -4z"/>
<path d="M8060 13893 c0 -7 10 -13 22 -13 21 0 128 -99 128 -118 0 -18 -96
-103 -124 -110 -16 -4 -31 -13 -34 -20 -3 -9 15 -12 63 -12 l67 0 -7 28 c-4
22 1 33 28 60 l33 32 33 -34 c26 -27 31 -38 25 -60 l-6 -26 71 0 c56 0 71 3
71 15 0 9 -9 15 -23 15 -16 0 -43 20 -80 59 -32 33 -57 64 -57 69 0 18 88 90
119 97 55 12 37 30 -30 28 -68 -1 -77 -6 -60 -27 10 -12 6 -21 -18 -48 l-30
-33 -31 30 c-23 23 -29 35 -25 55 5 25 5 25 -65 25 -49 0 -70 -4 -70 -12z"/>
<path d="M5447 13613 c-4 -3 -7 -12 -7 -20 0 -11 55 -13 308 -11 265 3 307 5
307 18 0 13 -41 15 -301 18 -165 1 -303 -1 -307 -5z"/>
<path d="M15990 14996 c0 -11 14 -16 48 -18 l47 -3 3 -284 c3 -316 3 -314 -64
-327 -19 -3 -34 -12 -34 -20 0 -11 24 -14 115 -14 91 0 115 3 115 14 0 8 -15
17 -34 20 -67 13 -67 13 -64 312 l3 269 76 -110 c112 -162 311 -447 335 -480
41 -54 44 -32 44 283 0 163 4 302 8 308 11 16 48 34 71 34 12 0 21 7 21 15 0
12 -19 15 -115 15 -91 0 -115 -3 -115 -14 0 -8 15 -17 35 -20 63 -12 66 -26
63 -272 l-3 -219 -61 85 c-33 47 -116 165 -184 263 l-123 177 -94 0 c-74 0
-93 -3 -93 -14z"/>
<path d="M16919 14766 c-167 -45 -225 -259 -103 -379 48 -48 83 -61 159 -61
76 0 111 13 159 61 161 158 2 438 -215 379z m129 -36 c47 -29 65 -78 65 -180
0 -56 -5 -98 -16 -122 -44 -102 -194 -104 -241 -3 -26 55 -26 200 1 252 35 68
125 93 191 53z"/>
<path d="M5550 7355 c0 -10 10 -15 33 -15 18 0 42 -7 54 -15 12 -8 71 -93 132
-188 l111 -174 0 -111 c0 -123 -5 -132 -69 -132 -21 0 -31 -5 -31 -15 0 -13
23 -15 145 -15 122 0 145 2 145 15 0 10 -10 15 -34 15 -66 0 -66 0 -66 129 l0
118 105 164 c58 90 116 172 128 181 12 10 37 20 55 24 18 3 32 12 32 20 0 11
-22 14 -105 14 -83 0 -105 -3 -105 -14 0 -8 11 -17 24 -20 42 -10 40 -35 -10
-115 -26 -42 -66 -106 -88 -143 -23 -37 -44 -68 -47 -68 -3 0 -50 68 -103 151
-78 121 -95 154 -85 165 6 8 22 14 35 14 15 0 24 6 24 15 0 13 -22 15 -140 15
-118 0 -140 -2 -140 -15z"/>
<path d="M6413 7128 c-87 -19 -163 -119 -163 -218 0 -134 118 -242 248 -227
68 7 142 71 142 121 0 27 -14 18 -38 -24 -30 -53 -71 -74 -134 -68 -79 8 -122
62 -130 163 l-3 40 155 5 155 5 -2 25 c-6 63 -16 92 -40 120 -45 54 -112 74
-190 58z m113 -39 c23 -19 41 -58 49 -106 l7 -43 -121 0 -121 0 0 30 c0 43 35
106 68 125 30 17 94 14 118 -6z"/>
<path d="M6828 7131 c-52 -11 -87 -37 -105 -78 -12 -31 -13 -41 -1 -72 18 -48
63 -76 151 -95 107 -24 150 -75 112 -132 -59 -90 -204 -50 -235 66 -17 65 -35
45 -38 -45 -3 -89 8 -114 37 -78 l18 22 39 -19 c99 -51 221 -2 240 96 15 80
-38 135 -156 164 -104 26 -125 44 -121 102 3 46 136 66 184 27 15 -11 31 -38
37 -60 17 -62 30 -46 30 37 l0 76 -24 -15 c-20 -14 -28 -14 -62 -2 -43 16 -52
16 -106 6z"/>
<path d="M6270 5170 c0 -528 -3 -960 -7 -960 -3 0 -41 27 -84 60 -42 33 -80
60 -83 60 -3 0 43 -99 104 -220 60 -121 110 -222 110 -225 0 -3 -458 -5 -1017
-5 -577 0 -1061 -5 -1118 -10 -479 -46 -895 -287 -1179 -683 -66 -93 -173
-305 -209 -418 -104 -316 -108 -671 -12 -986 165 -541 614 -964 1166 -1098
193 -47 188 -46 2449 -43 l2135 4 97 21 c213 47 415 131 582 242 668 443 912
1313 572 2036 -82 174 -176 309 -314 448 -272 276 -608 437 -1001 476 -65 7
-481 11 -1122 11 l-1019 0 111 221 c60 122 109 223 107 224 -2 2 -41 -25 -88
-60 l-85 -64 -3 965 -2 964 -45 0 -45 0 0 -960z m2232 -1395 c272 -36 506
-131 724 -293 303 -225 521 -577 591 -955 24 -128 24 -418 0 -539 -31 -153
-66 -259 -131 -393 -83 -169 -166 -285 -301 -420 -219 -219 -474 -354 -795
-422 -80 -17 -208 -18 -2275 -18 l-2190 0 -101 22 c-323 72 -573 209 -797 437
-281 286 -430 656 -430 1066 0 317 84 590 264 860 82 124 272 314 397 399 209
142 452 233 692 260 41 5 1012 9 2157 10 1794 1 2098 -1 2195 -14z"/>
<path d="M5210 2613 c0 -65 -59 -158 -102 -165 -41 -6 -31 -27 14 -30 l43 -3
5 -165 c5 -178 11 -200 60 -225 64 -33 130 -11 156 51 19 46 19 124 -1 124
-11 0 -15 -12 -15 -50 0 -83 -33 -123 -88 -106 -34 11 -42 50 -42 216 l0 160
70 0 c56 0 70 3 70 15 0 12 -14 15 -70 15 l-70 0 0 90 c0 73 -3 90 -15 90 -8
0 -15 -8 -15 -17z"/>
<path d="M4793 2458 c-87 -18 -163 -119 -163 -216 0 -91 64 -187 145 -218 85
-32 188 -2 229 67 17 28 21 59 9 59 -5 0 -18 -18 -31 -40 -30 -53 -71 -74
-134 -68 -79 8 -123 63 -130 163 l-3 40 153 3 152 3 0 39 c0 120 -100 195
-227 168z m105 -34 c28 -20 48 -58 57 -111 l7 -43 -121 0 -121 0 0 25 c0 44
32 106 64 126 38 23 84 24 114 3z"/>
<path d="M4268 2453 c-42 -5 -55 -33 -15 -33 49 0 52 -9 55 -174 4 -174 -2
-196 -48 -196 -20 0 -30 -5 -30 -15 0 -12 20 -15 120 -15 100 0 120 3 120 15
0 10 -10 15 -29 15 -61 0 -61 1 -61 139 0 112 3 132 23 171 13 26 36 53 56 64
l34 20 -7 -27 c-12 -49 49 -83 76 -43 14 20 8 45 -14 66 -42 39 -117 18 -154
-44 l-19 -31 -3 48 c-3 52 0 51 -104 40z"/>
<path d="M5528 2453 c-39 -4 -63 -33 -27 -33 11 0 29 -5 40 -10 17 -10 19 -23
19 -153 0 -115 3 -149 18 -177 21 -43 72 -70 130 -70 49 0 75 11 115 48 l27
26 0 -39 0 -38 53 7 c28 3 61 6 73 6 12 0 21 6 21 15 0 8 -9 15 -19 15 -11 0
-28 5 -39 10 -18 10 -19 23 -19 205 l0 195 -22 0 c-63 0 -128 -14 -128 -26 0
-8 9 -14 19 -14 50 0 51 -3 51 -155 0 -131 -2 -145 -23 -176 -28 -42 -81 -62
-128 -49 -18 5 -36 15 -41 22 -4 7 -8 100 -8 206 l0 192 -37 -2 c-21 -1 -54
-3 -75 -5z"/>
<path d="M6088 2453 c-42 -5 -55 -33 -15 -33 49 0 52 -9 55 -174 4 -174 -2
-196 -48 -196 -20 0 -30 -5 -30 -15 0 -12 20 -15 120 -15 100 0 120 3 120 15
0 10 -10 15 -29 15 -61 0 -61 1 -61 139 0 138 15 193 61 225 33 23 53 21 46
-5 -7 -27 26 -61 50 -52 39 14 44 52 11 83 -42 39 -123 17 -155 -43 l-18 -32
-3 48 c-3 52 0 51 -104 40z"/>
<path d="M6497 2451 c-45 -7 -46 -22 -3 -36 l31 -10 3 -172 2 -173 -27 -6
c-47 -10 -54 -14 -48 -24 4 -6 53 -10 116 -10 88 0 109 3 109 14 0 9 -12 16
-32 18 l-33 3 -3 135 c-3 148 4 176 50 215 22 18 41 25 74 25 70 0 75 -15 72
-211 l-3 -164 -32 -3 c-21 -2 -33 -9 -33 -18 0 -11 21 -14 109 -14 63 0 112 4
116 10 6 10 -1 14 -47 24 l-28 6 0 146 c0 195 -21 241 -113 251 -60 7 -110
-11 -147 -53 l-30 -35 0 46 c0 44 0 45 -32 44 -18 -1 -50 -5 -71 -8z"/>
<path d="M7500 2449 c-35 -14 -69 -48 -91 -91 -22 -44 -24 -58 -6 -58 7 0 19
15 25 34 18 49 75 96 115 96 43 0 57 -15 57 -63 0 -45 -44 -227 -67 -275 -19
-39 -58 -62 -95 -55 -26 5 -26 5 -7 24 24 24 24 55 2 67 -53 27 -98 -52 -53
-93 10 -9 39 -20 63 -22 40 -5 48 -2 82 29 l38 35 26 -29 c64 -72 175 -36 232
74 23 44 23 48 6 48 -8 0 -22 -18 -32 -39 -31 -69 -93 -108 -142 -90 -34 12
-37 49 -13 161 41 187 65 228 132 228 l39 0 -21 -28 c-32 -43 -4 -85 40 -62
54 29 42 93 -21 111 -48 15 -85 5 -120 -32 -28 -30 -28 -30 -39 -9 -22 41 -97
60 -150 39z"/>
<path d="M8038 2353 c-24 -6 -23 -23 1 -23 11 0 22 -4 25 -8 2 -4 -17 -96 -44
-202 -27 -107 -50 -200 -50 -206 0 -19 28 -24 43 -9 8 7 20 41 27 74 7 34 17
64 22 67 4 3 24 0 43 -6 35 -12 43 -25 43 -78 1 -46 52 -79 97 -62 13 5 33 27
45 49 23 47 24 51 8 51 -7 0 -21 -18 -31 -40 -14 -31 -24 -40 -43 -40 -22 0
-24 4 -24 55 0 59 -13 75 -73 89 l-27 6 32 28 c57 49 95 72 119 72 18 0 20 -3
11 -12 -7 -7 -12 -23 -12 -36 0 -18 5 -23 21 -20 57 8 46 88 -11 88 -39 0 -60
-11 -130 -68 -30 -24 -56 -40 -58 -34 -1 5 11 64 28 130 16 67 30 126 30 131
0 11 -58 13 -92 4z"/>
</g>
</svg>
