<?xml version="1.0" standalone="no"?>
<!DOCTYPE svg PUBLIC "-//W3C//DTD SVG 20010904//EN"
 "http://www.w3.org/TR/2001/REC-SVG-20010904/DTD/svg10.dtd">
<svg version="1.0" xmlns="http://www.w3.org/2000/svg"
 width="4877.000000pt" height="6491.000000pt" viewBox="0 0 4877.000000 6491.000000"
 preserveAspectRatio="xMidYMid meet">

<g transform="translate(0.000000,6491.000000) scale(0.100000,-0.100000)"
fill="#ffffff" stroke="none">
<path d="M21445 64273 c-22 -2 -87 -12 -145 -23 -554 -103 -1023 -502 -1219
-1036 -117 -320 -123 -729 -16 -1060 39 -117 146 -328 219 -429 278 -388 689
-626 1165 -674 65 -7 472 -11 1102 -11 l999 0 0 -1285 0 -1285 -84 0 -84 0 48
-97 c59 -120 115 -269 145 -388 20 -77 24 -86 29 -60 16 78 110 341 153 430
26 55 50 103 51 108 2 4 -35 7 -82 7 l-86 0 0 1285 0 1284 1073 4 c935 3 1082
6 1150 20 368 76 638 217 875 459 107 110 137 146 207 253 273 417 338 931
178 1405 -175 519 -602 914 -1134 1050 -198 51 -144 50 -2399 48 -1158 -1
-2123 -3 -2145 -5z m4360 -98 c263 -40 495 -136 702 -291 302 -226 503 -543
585 -924 32 -151 32 -448 0 -596 -134 -619 -586 -1069 -1208 -1206 l-99 -22
-2115 -4 c-1562 -2 -2144 0 -2224 8 -371 40 -690 198 -949 470 -576 606 -560
1556 37 2144 237 232 578 394 906 429 19 2 987 4 2150 5 1834 2 2128 0 2215
-13z"/>
<path d="M23090 62943 c-1 -60 -59 -146 -104 -155 -39 -7 -28 -27 16 -30 l43
-3 5 -165 c5 -178 11 -200 60 -225 64 -33 130 -11 156 51 19 46 19 124 -1 124
-11 0 -15 -12 -15 -50 0 -83 -33 -123 -88 -106 -34 11 -42 50 -42 216 l0 160
70 0 c56 0 70 3 70 15 0 12 -14 15 -70 15 l-70 0 0 90 c0 73 -3 90 -15 90 -10
0 -15 -10 -15 -27z"/>
<path d="M24400 62942 c0 -15 -11 -51 -25 -78 -23 -47 -42 -63 -87 -78 -32
-10 -19 -25 25 -28 l42 -3 5 -165 c6 -183 12 -203 65 -226 96 -40 165 15 165
131 0 33 -4 45 -15 45 -11 0 -15 -12 -15 -50 0 -83 -33 -123 -88 -106 -34 11
-42 50 -42 216 l0 160 70 0 c56 0 70 3 70 15 0 12 -14 15 -70 15 l-70 0 0 90
c0 73 -3 90 -15 90 -10 0 -15 -10 -15 -28z"/>
<path d="M22694 62801 c-56 -9 -93 -35 -111 -78 -12 -31 -13 -41 -1 -72 18
-47 62 -75 150 -95 79 -18 98 -29 117 -64 16 -30 -1 -85 -32 -100 -90 -44
-180 -1 -207 99 -17 64 -35 43 -38 -46 -3 -89 9 -114 36 -77 l17 22 40 -20
c74 -38 174 -19 218 41 28 39 32 98 8 136 -28 45 -61 63 -153 87 -96 25 -128
54 -108 98 16 33 49 48 109 48 60 0 96 -26 111 -81 17 -62 30 -46 30 36 0 41
-3 75 -7 75 -3 0 -14 -7 -23 -15 -14 -12 -21 -12 -55 0 -44 15 -42 15 -101 6z"/>
<path d="M23495 62792 c-78 -27 -109 -103 -54 -132 29 -16 59 4 59 41 0 17 -6
32 -15 35 -24 9 -18 21 16 33 91 31 158 -8 167 -97 l5 -52 -41 0 c-56 0 -165
-36 -201 -66 -35 -29 -56 -90 -42 -126 18 -47 79 -78 153 -78 43 0 112 31 121
55 8 19 27 20 27 2 0 -24 39 -50 71 -49 42 1 75 34 83 84 5 31 3 45 -9 57 -13
14 -15 12 -15 -21 0 -52 -16 -88 -39 -88 -27 0 -31 18 -31 143 0 62 -4 129 -9
150 -23 97 -137 148 -246 109z m174 -271 c-4 -88 -18 -113 -77 -138 -45 -19
-97 -2 -117 37 -19 36 -19 44 1 86 18 39 63 70 120 83 79 18 77 20 73 -68z"/>
<path d="M23918 62793 c-43 -5 -55 -33 -14 -33 50 0 56 -19 56 -181 0 -85 -5
-159 -10 -170 -7 -12 -21 -19 -40 -19 -20 0 -30 -5 -30 -15 0 -12 20 -15 120
-15 100 0 120 3 120 15 0 10 -10 15 -29 15 -61 0 -61 1 -61 139 0 138 15 193
61 225 33 23 53 21 46 -5 -5 -20 22 -59 42 -59 16 0 41 30 41 48 0 23 -11 37
-37 51 -49 25 -107 2 -142 -58 l-21 -36 0 53 0 52 -32 -2 c-18 -1 -50 -3 -70
-5z"/>
<path d="M16815 57878 c-3 -7 -48 -193 -100 -413 -53 -220 -152 -632 -220
-915 -68 -283 -196 -814 -284 -1180 -87 -366 -162 -677 -166 -692 l-7 -28
3756 0 3756 0 0 -1285 0 -1285 -84 0 -84 0 48 -97 c59 -120 112 -262 143 -382
l24 -91 27 102 c31 114 102 301 150 393 17 33 32 63 34 68 2 4 -35 7 -82 7
l-86 0 0 1285 0 1285 3364 0 c1851 0 3367 4 3370 8 3 5 57 224 120 488 169
707 337 1402 501 2084 80 333 148 617 152 633 l6 27 -7167 0 c-5724 0 -7168
-3 -7171 -12z m14221 -95 c-3 -10 -131 -542 -285 -1183 -346 -1441 -429 -1787
-439 -1825 l-8 -30 -7072 -3 c-6731 -2 -7072 -1 -7072 15 0 10 56 250 124 533
182 758 260 1081 437 1820 88 366 162 671 164 678 3 9 1429 12 7080 12 6735 0
7076 -1 7071 -17z"/>
<path d="M24420 56727 c-34 -17 -62 -74 -54 -112 3 -16 17 -54 30 -84 13 -29
24 -57 24 -61 0 -5 -16 -14 -35 -20 -19 -6 -57 -32 -84 -58 -147 -138 -120
-354 47 -370 101 -9 187 80 214 225 21 111 9 140 -123 322 -80 111 -32 168 91
106 53 -27 76 -25 86 7 8 26 -1 33 -58 47 -61 14 -107 14 -138 -2z m60 -376
c23 -69 22 -105 -6 -193 -29 -89 -78 -128 -139 -108 -20 7 -39 23 -50 44 -50
92 34 302 135 338 23 8 36 -10 60 -81z"/>
<path d="M17533 56715 c-108 -33 -192 -114 -233 -222 -17 -46 -21 -75 -18
-138 6 -142 79 -254 207 -314 47 -22 70 -26 146 -26 81 0 95 3 138 28 26 15
47 33 47 39 0 7 15 -2 33 -20 18 -18 36 -32 40 -32 4 0 7 47 7 104 0 57 3 111
6 120 4 10 18 16 35 16 19 0 29 5 29 15 0 13 -23 15 -146 15 -112 0 -145 -3
-142 -12 3 -7 22 -14 44 -16 85 -5 84 -5 84 -81 0 -60 -4 -74 -26 -100 -41
-49 -137 -65 -217 -37 -72 26 -115 65 -150 135 -30 62 -32 71 -32 181 0 110 2
118 33 182 111 227 401 184 448 -67 3 -20 12 -35 20 -35 11 0 14 27 14 140 0
85 -4 140 -10 140 -5 0 -22 -18 -36 -40 -15 -22 -29 -40 -31 -40 -2 0 -21 13
-41 29 -20 16 -52 34 -71 40 -44 14 -125 13 -178 -4z"/>
<path d="M25460 56712 c0 -6 9 -14 21 -17 23 -8 44 -50 109 -227 l43 -117
-154 -149 c-134 -131 -152 -152 -140 -166 7 -9 21 -16 30 -16 13 0 131 127
249 268 28 34 28 34 83 -118 23 -63 48 -123 57 -132 9 -11 29 -18 50 -18 29 0
33 3 26 18 -4 9 -60 156 -124 325 -64 170 -126 317 -137 328 -23 23 -113 40
-113 21z"/>
<path d="M27695 56711 c-39 -8 -35 -25 7 -31 41 -6 44 16 -43 -334 -39 -154
-69 -289 -67 -300 4 -27 43 -34 56 -9 5 10 20 62 33 117 l23 98 40 -5 c61 -9
81 -35 78 -107 -2 -56 0 -64 27 -90 36 -36 77 -39 116 -8 29 22 64 89 65 121
0 34 -21 12 -43 -43 -22 -55 -55 -84 -84 -73 -11 4 -13 24 -11 83 4 100 -14
122 -115 144 -27 6 -25 8 55 82 77 69 126 97 154 87 7 -3 2 -14 -12 -28 -13
-13 -24 -28 -24 -34 0 -17 32 -42 47 -37 8 3 18 6 23 6 4 0 13 14 20 31 27 64
-49 111 -120 74 -18 -9 -65 -48 -106 -86 -70 -64 -94 -80 -94 -61 0 4 23 94
50 201 28 106 50 197 50 202 0 10 -79 10 -125 0z"/>
<path d="M18122 56684 c-27 -19 -28 -55 -3 -78 25 -23 63 -17 77 12 16 32 8
57 -22 71 -30 14 -25 14 -52 -5z"/>
<path d="M29630 56679 c-43 -17 -89 -71 -111 -128 -43 -113 -35 -349 14 -435
62 -110 205 -141 293 -64 66 58 94 146 94 298 0 227 -74 341 -218 339 -26 0
-58 -5 -72 -10z m124 -24 c48 -23 66 -63 77 -173 10 -103 4 -281 -12 -345 -6
-21 -22 -52 -38 -69 -50 -56 -139 -38 -178 35 -14 26 -18 65 -21 216 -5 217 0
260 35 302 42 50 82 60 137 34z"/>
<path d="M19013 56469 c-88 -20 -163 -121 -163 -219 0 -134 118 -242 248 -227
68 7 142 71 142 121 0 27 -14 18 -38 -24 -30 -53 -71 -74 -134 -68 -79 8 -122
62 -130 163 l-3 40 153 3 152 3 0 39 c0 120 -102 196 -227 169z m105 -35 c28
-20 48 -58 57 -111 l7 -43 -121 0 -121 0 0 30 c0 43 35 107 68 124 36 20 82
20 110 0z"/>
<path d="M22050 56461 c-97 -35 -145 -111 -104 -169 15 -21 14 -24 -15 -51
-76 -71 -65 -172 22 -212 47 -21 113 -24 172 -8 44 12 129 89 107 97 -7 2 -19
-3 -25 -12 -29 -38 -138 -57 -225 -40 -78 16 -96 87 -38 149 34 36 36 36 90
30 75 -10 126 0 126 24 0 11 -7 22 -16 25 -24 9 -100 7 -128 -4 -21 -8 -28 -5
-45 16 -34 43 -5 86 72 109 64 19 134 19 171 0 62 -33 98 -2 43 37 -43 31
-133 35 -207 9z m61 -190 c-12 -8 -51 -4 -51 5 0 2 15 4 33 4 22 0 28 -3 18
-9z"/>
<path d="M18098 56463 c-42 -5 -55 -33 -15 -33 44 0 47 -14 47 -191 0 -178 0
-179 -51 -179 -10 0 -19 -7 -19 -15 0 -12 18 -15 105 -15 87 0 105 3 105 15 0
9 -9 15 -25 15 -14 0 -29 8 -35 19 -6 12 -10 96 -10 205 l0 186 -32 -2 c-18
-1 -50 -3 -70 -5z"/>
<path d="M19346 56461 c-42 -6 -63 -31 -26 -31 12 0 30 -5 41 -10 18 -10 19
-23 19 -179 0 -183 1 -181 -57 -181 -15 0 -23 -5 -21 -12 3 -9 38 -14 116 -16
93 -2 112 0 112 12 0 9 -12 16 -32 18 l-33 3 -3 140 c-2 124 0 144 17 172 41
66 126 89 162 44 17 -21 19 -42 19 -186 0 -174 0 -175 -51 -175 -10 0 -19 -7
-19 -15 0 -12 19 -15 109 -15 88 0 110 3 115 15 4 11 -1 15 -18 15 -56 0 -56
1 -56 156 0 195 -21 241 -113 251 -60 7 -110 -11 -147 -53 l-30 -35 0 46 c0
44 0 45 -32 44 -18 -1 -51 -5 -72 -8z"/>
<path d="M20341 56452 c-61 -30 -129 -142 -88 -142 8 0 18 11 21 24 9 36 55
87 94 103 30 12 37 12 58 -2 19 -12 24 -24 24 -58 0 -49 -42 -222 -67 -274
-18 -39 -60 -63 -98 -55 -23 4 -23 4 -4 23 24 24 24 55 0 69 -24 12 -48 4 -61
-21 -27 -49 4 -89 73 -96 40 -5 49 -2 82 29 l37 34 33 -33 c26 -26 41 -33 72
-33 63 0 127 49 158 119 18 41 18 41 2 41 -8 0 -22 -18 -32 -39 -43 -97 -152
-131 -171 -54 -10 37 51 284 78 319 24 30 58 45 86 37 l21 -5 -20 -27 c-31
-43 -2 -84 42 -60 45 23 40 86 -8 108 -50 23 -101 10 -139 -36 l-22 -26 -11
22 c-15 26 -61 51 -98 51 -15 0 -43 -8 -62 -18z"/>
<path d="M23111 56460 c-44 -19 -84 -53 -112 -98 -47 -74 -35 -114 13 -43 32
48 79 73 136 74 87 1 130 -38 157 -140 22 -85 18 -150 -15 -270 -31 -111 -37
-163 -19 -163 16 0 36 58 59 171 21 102 84 277 141 391 31 62 35 78 18 78 -10
0 -93 -168 -120 -242 -7 -21 -16 -38 -20 -38 -3 0 -9 25 -13 55 -15 133 -78
224 -158 231 -23 2 -54 -1 -67 -6z"/>
<path d="M18320 56445 c0 -9 9 -15 24 -15 14 0 31 -6 39 -14 8 -8 49 -100 92
-205 43 -105 83 -191 90 -191 19 0 27 15 85 155 90 220 97 233 136 247 62 22
43 38 -46 38 -64 0 -80 -3 -80 -15 0 -8 9 -19 20 -25 11 -6 20 -19 20 -30 0
-28 -103 -272 -110 -263 -14 16 -110 255 -110 273 0 13 9 22 25 26 14 3 25 12
25 20 0 11 -22 14 -105 14 -87 0 -105 -3 -105 -15z"/>
<path d="M28430 56380 c0 -20 4 -20 338 -18 292 3 337 5 337 18 0 13 -45 15
-337 18 -334 2 -338 2 -338 -18z"/>
<path d="M20883 56341 c-99 -62 -113 -310 -23 -396 26 -25 40 -30 93 -33 118
-6 168 58 169 217 0 99 -19 157 -66 200 -37 35 -127 41 -173 12z m122 -11 c41
-16 55 -64 55 -195 0 -161 -21 -205 -99 -205 -70 0 -100 63 -100 210 0 163 48
227 144 190z"/>
<path d="M28437 56193 c-4 -3 -7 -12 -7 -20 0 -11 60 -13 338 -11 292 3 337 5
337 18 0 13 -45 15 -331 18 -182 1 -333 -1 -337 -5z"/>
<path d="M21332 56124 c-45 -31 -16 -100 40 -92 25 4 28 1 28 -21 0 -32 -41
-121 -63 -140 -21 -16 -22 -31 -3 -31 21 0 68 75 82 132 29 108 -20 197 -84
152z"/>
<path d="M22442 56124 c-45 -32 -15 -101 40 -90 25 5 28 3 28 -22 0 -34 -34
-110 -62 -139 -12 -13 -19 -26 -15 -29 23 -23 81 64 97 144 11 62 5 103 -22
131 -23 25 -36 26 -66 5z"/>
<path d="M23652 56124 c-45 -31 -16 -100 40 -92 25 4 28 1 28 -21 0 -32 -41
-121 -63 -140 -21 -16 -22 -31 -3 -31 21 0 68 75 82 132 29 108 -20 197 -84
152z"/>
<path d="M24762 56124 c-45 -32 -15 -101 40 -90 25 5 28 3 28 -22 0 -34 -34
-110 -62 -139 -12 -13 -19 -26 -15 -29 23 -23 81 64 97 144 11 62 5 103 -22
131 -23 25 -36 26 -66 5z"/>
<path d="M25992 56124 c-45 -32 -15 -101 40 -90 25 5 28 3 28 -22 0 -34 -34
-110 -62 -139 -12 -13 -19 -26 -15 -29 23 -23 81 63 96 142 11 59 0 123 -25
141 -23 17 -35 16 -62 -3z"/>
<path d="M18040 49885 l0 -1615 2755 0 2755 0 0 -1290 0 -1290 -80 0 c-44 0
-80 -2 -80 -4 0 -1 22 -50 49 -107 55 -118 102 -244 135 -369 l23 -85 12 45
c27 109 97 304 146 408 l54 112 -85 0 -84 0 0 1290 0 1290 2755 0 2755 0 0
1615 0 1615 -5555 0 -5555 0 0 -1615z m11020 0 l0 -1535 -5465 0 -5465 0 0
1535 0 1535 5465 0 5465 0 0 -1535z"/>
<path d="M26347 50338 c-61 -63 -106 -143 -139 -248 -30 -97 -32 -288 -4 -390
25 -93 82 -195 143 -257 56 -58 94 -65 48 -10 -89 110 -128 204 -145 357 -13
108 -6 213 21 317 22 88 48 141 105 215 58 75 39 85 -29 16z"/>
<path d="M27630 50379 c0 -6 20 -34 45 -62 52 -59 97 -166 116 -271 19 -110 7
-314 -24 -408 -26 -82 -69 -158 -112 -198 -25 -23 -33 -50 -16 -50 5 0 36 29
69 64 107 114 155 252 155 441 -1 123 -18 204 -64 302 -40 85 -169 224 -169
182z"/>
<path d="M25862 50305 c-40 -36 -52 -64 -73 -172 l-12 -63 -48 0 c-37 0 -49
-4 -49 -15 0 -11 12 -15 45 -15 25 0 45 -4 45 -8 0 -27 -93 -490 -104 -516
-18 -43 -41 -60 -70 -52 l-25 6 24 25 c27 26 25 49 -5 65 -26 14 -62 -18 -62
-55 0 -60 91 -88 146 -44 57 45 83 122 136 407 l33 172 58 0 c46 0 59 3 59 15
0 12 -13 15 -55 15 l-56 0 7 38 c3 20 12 68 20 105 8 38 14 70 14 72 0 14 52
36 70 30 l22 -7 -21 -15 c-25 -17 -29 -68 -6 -77 8 -3 26 -1 39 4 70 26 29
120 -54 120 -32 0 -48 -7 -78 -35z"/>
<path d="M24670 50313 c0 -5 80 -163 178 -353 136 -265 182 -346 197 -348 17
-2 47 51 195 338 96 188 176 347 178 355 3 13 -48 15 -372 15 -207 0 -376 -3
-376 -7z m680 -71 c0 -10 -258 -514 -269 -525 -6 -6 -260 471 -279 524 -2 5
111 9 272 9 152 0 276 -3 276 -8z"/>
<path d="M19422 50248 c-5 -7 -15 -33 -22 -58 -6 -25 -16 -62 -21 -82 l-10
-38 -59 0 c-47 0 -60 -3 -60 -15 0 -12 13 -15 55 -15 30 0 55 -2 55 -6 0 -3
-16 -68 -35 -144 -47 -187 -46 -218 6 -245 39 -20 78 -19 117 5 32 20 92 102
92 127 0 25 -20 13 -39 -24 -36 -72 -106 -116 -136 -87 -21 21 -20 23 26 209
l41 164 62 3 c76 4 76 22 1 26 -47 3 -55 6 -51 20 21 73 36 147 32 158 -7 17
-40 18 -54 2z"/>
<path d="M21125 50064 c-16 -8 -38 -23 -49 -32 -19 -18 -56 -84 -56 -102 0
-23 21 -8 39 29 28 53 75 91 115 91 42 0 56 -16 56 -63 0 -45 -44 -227 -67
-275 -19 -39 -58 -62 -95 -55 -26 5 -26 5 -7 24 38 38 14 88 -33 70 -42 -16
-51 -66 -18 -96 10 -9 39 -20 63 -22 40 -5 48 -2 82 29 l38 35 26 -29 c36 -41
95 -48 148 -19 57 33 127 141 90 141 -8 0 -22 -18 -32 -39 -31 -69 -93 -108
-142 -90 -38 14 -39 53 -3 197 41 167 62 197 138 193 l23 -1 -21 -28 c-32 -43
-4 -85 41 -61 45 23 40 86 -8 108 -49 22 -115 5 -147 -40 l-14 -21 -11 21
c-25 47 -101 64 -156 35z"/>
<path d="M23440 50058 c-48 -26 -106 -93 -116 -134 -8 -32 5 -45 20 -19 67
118 223 135 284 32 49 -84 53 -197 12 -344 -33 -118 -38 -163 -16 -163 14 0
45 100 65 210 12 69 55 187 115 315 49 104 52 115 35 115 -10 0 -93 -168 -120
-242 -16 -47 -29 -49 -29 -4 0 19 -9 64 -21 101 -41 135 -129 186 -229 133z"/>
<path d="M26645 50064 c-16 -8 -38 -23 -49 -32 -19 -18 -56 -84 -56 -102 0
-23 21 -8 39 29 28 53 75 91 115 91 42 0 56 -16 56 -63 0 -45 -44 -227 -67
-275 -19 -39 -58 -62 -95 -55 -26 5 -26 5 -7 24 38 38 14 88 -33 70 -42 -16
-51 -66 -18 -96 10 -9 39 -20 63 -22 40 -5 48 -2 82 29 l38 35 26 -29 c36 -41
95 -48 148 -19 57 33 127 141 90 141 -8 0 -22 -18 -32 -39 -31 -69 -93 -108
-142 -90 -38 14 -39 53 -3 197 41 167 62 197 138 193 l23 -1 -21 -28 c-32 -43
-4 -85 41 -61 45 23 40 86 -8 108 -49 22 -115 5 -147 -40 l-14 -21 -11 21
c-25 47 -101 64 -156 35z"/>
<path d="M19930 49990 c0 -20 4 -20 338 -18 292 3 337 5 337 18 0 13 -45 15
-337 18 -334 2 -338 2 -338 -18z"/>
<path d="M21668 49973 c-24 -6 -23 -23 1 -23 11 0 22 -4 25 -8 2 -4 -17 -96
-44 -202 -27 -107 -50 -200 -50 -206 0 -19 28 -24 43 -9 8 7 20 41 27 74 7 34
16 64 20 66 11 7 73 -13 82 -27 4 -7 8 -29 8 -49 0 -36 17 -60 53 -72 30 -11
65 11 87 52 23 47 24 51 8 51 -7 0 -21 -18 -31 -40 -14 -31 -24 -40 -43 -40
-22 0 -24 4 -24 55 0 59 -13 75 -73 89 l-28 7 42 35 c48 40 91 64 114 64 14 0
14 -2 0 -24 -14 -21 -14 -25 0 -36 32 -27 66 13 47 56 -9 19 -19 24 -46 24
-32 0 -56 -14 -155 -88 -17 -13 -31 -18 -31 -12 0 6 14 65 30 130 17 65 30
124 30 129 0 11 -58 13 -92 4z"/>
<path d="M27188 49973 c-24 -6 -23 -23 1 -23 11 0 22 -4 25 -8 2 -4 -17 -96
-44 -202 -27 -107 -50 -200 -50 -206 0 -19 28 -24 43 -9 8 7 20 41 27 74 7 34
16 64 20 66 11 7 73 -13 82 -27 4 -7 8 -29 8 -49 0 -36 17 -60 53 -72 30 -11
65 11 87 52 23 47 24 51 8 51 -7 0 -21 -18 -31 -40 -14 -31 -24 -40 -43 -40
-22 0 -24 4 -24 55 0 59 -13 75 -73 89 l-28 7 42 35 c48 40 91 64 114 64 14 0
14 -2 0 -24 -14 -21 -14 -25 0 -36 32 -27 66 13 47 56 -9 19 -19 24 -46 24
-32 0 -56 -14 -155 -88 -17 -13 -31 -18 -31 -12 0 6 14 65 30 130 17 65 30
124 30 129 0 11 -58 13 -92 4z"/>
<path d="M24212 49928 c-29 -29 -5 -88 36 -88 35 0 52 16 52 50 0 33 -17 50
-50 50 -14 0 -31 -5 -38 -12z"/>
<path d="M22360 49890 c0 -20 4 -20 308 -18 265 3 307 5 307 18 0 13 -42 15
-307 18 -304 2 -308 2 -308 -18z"/>
<path d="M19937 49803 c-4 -3 -7 -12 -7 -20 0 -11 60 -13 338 -11 292 3 337 5
337 18 0 13 -45 15 -331 18 -182 1 -333 -1 -337 -5z"/>
<path d="M29378 49999 c-120 -60 -218 -111 -218 -114 0 -5 435 -225 445 -225
2 0 -19 32 -48 71 -28 38 -58 79 -66 90 -13 19 58 19 6518 19 l6531 0 0 -4495
0 -4495 -2755 0 -2755 0 0 -810 c0 -445 -2 -810 -5 -810 -3 0 -104 50 -225
110 -121 61 -222 110 -225 110 -3 0 24 -39 60 -87 l66 -88 -815 -3 -816 -2 0
-45 0 -45 816 -2 815 -3 -66 -87 c-36 -49 -63 -88 -60 -88 3 0 104 50 225 110
121 61 222 110 225 110 3 0 5 -362 5 -805 l0 -805 5555 0 5555 0 0 1620 0
1620 -2755 0 -2755 0 0 4540 0 4540 -6574 2 -6574 3 64 88 c35 48 61 87 56 86
-4 0 -105 -49 -224 -110z m18672 -10769 l0 -1530 -5465 0 -5465 0 0 1530 0
1530 5465 0 5465 0 0 -1530z"/>
<path d="M44100 39661 c0 -5 9 -13 21 -16 23 -8 44 -50 108 -226 l43 -117
-151 -149 c-116 -113 -151 -152 -146 -166 16 -40 49 -18 160 109 61 69 118
135 127 147 23 28 25 25 79 -123 23 -63 48 -123 57 -132 9 -11 29 -18 50 -18
29 0 33 3 26 18 -4 9 -60 157 -124 327 -106 282 -120 312 -150 333 -33 22
-100 31 -100 13z"/>
<path d="M40780 39398 c-48 -26 -106 -93 -116 -134 -8 -32 5 -45 20 -20 31 52
61 77 108 91 123 36 202 -41 215 -208 5 -60 0 -91 -26 -189 -32 -123 -38 -168
-20 -168 16 0 36 58 59 171 21 102 84 277 141 391 31 61 35 78 19 78 -11 0
-76 -127 -111 -217 -27 -71 -39 -79 -39 -29 0 19 -9 64 -21 101 -41 135 -129
186 -229 133z"/>
<path d="M42732 39399 c-49 -25 -97 -79 -113 -127 -14 -42 -2 -55 19 -22 70
107 189 128 264 48 33 -35 47 -79 55 -173 4 -59 0 -89 -26 -186 -32 -121 -38
-169 -20 -169 16 0 36 58 59 171 21 102 84 277 141 391 31 62 35 78 18 78 -10
0 -93 -168 -120 -242 -7 -21 -17 -38 -21 -38 -4 0 -8 17 -8 38 -1 59 -45 172
-84 210 -44 45 -102 53 -164 21z"/>
<path d="M41570 39330 c0 -20 4 -20 338 -18 292 3 337 5 337 18 0 13 -45 15
-337 18 -334 2 -338 2 -338 -18z"/>
<path d="M43512 39268 c-29 -29 -5 -88 36 -88 35 0 52 16 52 50 0 33 -17 50
-50 50 -14 0 -31 -5 -38 -12z"/>
<path d="M41577 39143 c-4 -3 -7 -12 -7 -20 0 -11 60 -13 338 -11 292 3 337 5
337 18 0 13 -45 15 -331 18 -182 1 -333 -1 -337 -5z"/>
<path d="M17470 50013 l0 -83 -5665 0 -5665 0 0 -16450 0 -16450 -2755 0
-2755 0 0 -1620 0 -1620 5555 0 5555 0 0 1620 0 1620 -2755 0 -2755 0 0 16405
0 16405 5620 0 5620 0 0 -85 0 -85 63 34 c89 49 275 120 395 152 l102 27 -112
33 c-126 36 -253 85 -370 142 l-78 38 0 -83z m-5820 -34603 l0 -1530 -5465 0
-5465 0 0 1530 0 1530 5465 0 5465 0 0 -1530z"/>
<path d="M4216 15801 c-44 -9 -45 -31 -2 -31 19 0 37 -3 39 -7 3 -5 -29 -143
-70 -308 -40 -165 -72 -309 -71 -320 4 -26 44 -32 56 -8 5 10 20 62 33 116 22
91 24 97 48 97 34 0 91 -35 92 -57 1 -10 1 -39 -1 -65 -2 -41 2 -52 28 -78 37
-36 78 -39 117 -8 29 22 64 89 65 121 0 34 -22 12 -42 -41 -21 -56 -54 -87
-82 -76 -14 5 -16 19 -14 86 3 77 2 81 -25 104 -16 13 -48 29 -72 35 l-43 11
81 74 c76 69 125 97 153 87 7 -3 2 -14 -12 -28 -28 -28 -30 -38 -8 -59 22 -23
40 -20 63 10 27 34 26 50 -4 79 -47 48 -98 30 -211 -76 -65 -59 -94 -80 -94
-65 0 1 22 90 50 197 27 107 50 200 50 207 0 13 -70 15 -124 3z"/>
<path d="M6145 15801 c-39 -8 -35 -25 7 -31 21 -3 33 -11 32 -20 -1 -8 -34
-146 -73 -307 -40 -161 -71 -300 -69 -310 4 -25 44 -29 56 -6 5 10 20 62 33
115 22 91 26 98 49 98 33 0 90 -35 91 -57 1 -10 1 -39 -1 -65 -2 -41 2 -52 28
-78 40 -40 88 -41 125 -2 41 43 75 140 46 130 -6 -2 -19 -25 -29 -51 -24 -64
-37 -77 -72 -77 l-29 0 3 79 c4 101 -14 123 -115 145 -27 6 -25 8 55 82 77 69
126 97 154 87 7 -3 2 -14 -12 -28 -13 -13 -24 -28 -24 -34 0 -12 29 -41 41
-41 16 0 59 48 59 65 0 25 -46 65 -75 65 -40 0 -82 -26 -161 -101 -63 -59 -94
-81 -94 -65 0 2 23 92 50 199 28 107 50 200 50 206 0 12 -74 13 -125 2z"/>
<path d="M8033 15754 c-23 -14 -65 -27 -92 -31 -36 -4 -51 -10 -51 -21 0 -12
9 -14 48 -9 26 4 57 9 70 13 l23 7 -3 -272 c-3 -305 1 -291 -80 -291 -36 0
-48 -4 -48 -15 0 -13 25 -15 165 -15 133 0 165 3 165 14 0 9 -17 15 -56 18
-33 3 -60 11 -65 19 -5 8 -9 148 -9 312 0 231 -3 297 -12 296 -7 -1 -32 -12
-55 -25z"/>
<path d="M7150 15551 l0 -161 -160 0 c-153 0 -160 -1 -160 -20 0 -19 7 -20
160 -20 l160 0 0 -161 c0 -147 1 -160 18 -157 15 3 17 20 20 160 l3 157 157 3
c132 3 157 5 157 18 0 13 -25 15 -157 18 l-157 3 -3 157 c-3 140 -5 157 -20
160 -17 3 -18 -10 -18 -157z"/>
<path d="M4960 15470 c0 -20 4 -20 338 -18 292 3 337 5 337 18 0 13 -45 15
-337 18 -334 2 -338 2 -338 -18z"/>
<path d="M4967 15283 c-4 -3 -7 -12 -7 -20 0 -11 60 -13 338 -11 292 3 337 5
337 18 0 13 -45 15 -331 18 -182 1 -333 -1 -337 -5z"/>
<path d="M23434 44978 c-88 -73 -185 -153 -215 -178 -30 -25 -232 -191 -449
-370 -216 -179 -513 -423 -659 -544 -146 -120 -300 -246 -341 -280 -259 -215
-433 -358 -486 -401 -34 -28 -187 -154 -340 -281 -466 -384 -1952 -1609 -2679
-2208 -247 -204 -477 -393 -510 -421 -34 -27 -151 -124 -260 -214 -110 -91
-237 -195 -282 -233 -46 -37 -120 -99 -165 -136 -46 -38 -137 -113 -203 -168
-66 -54 -180 -148 -253 -208 -106 -87 -130 -112 -120 -121 7 -7 258 -214 558
-461 300 -246 572 -471 606 -499 62 -52 188 -156 790 -651 193 -159 528 -435
744 -614 217 -179 421 -347 455 -375 34 -27 263 -216 510 -420 246 -203 554
-457 684 -564 130 -106 310 -255 401 -330 91 -76 334 -276 540 -446 524 -431
561 -462 759 -625 97 -80 280 -231 406 -335 127 -104 257 -212 290 -240 34
-27 132 -108 218 -180 121 -100 153 -131 138 -133 l-21 -3 0 -1130 0 -1129 45
0 45 0 0 1129 c0 1113 0 1130 -20 1133 -14 2 9 26 93 95 199 162 856 704 1242
1023 217 179 320 264 425 350 37 30 168 138 291 240 123 101 328 270 454 374
127 104 266 219 310 256 44 36 116 96 160 132 44 36 164 135 266 219 103 85
299 246 435 359 234 192 403 332 639 527 154 127 906 747 1234 1016 161 133
389 321 505 417 116 96 362 299 545 450 184 151 373 307 420 347 71 59 87 68
89 52 3 -19 28 -19 978 -19 l974 0 0 45 0 45 -975 0 -975 0 0 -21 c0 -17 -8
-13 -57 29 -32 27 -112 93 -178 147 -178 147 -220 181 -625 516 -63 53 -232
192 -375 309 -262 216 -395 326 -849 700 -137 113 -318 261 -401 330 -84 69
-251 206 -371 306 -121 99 -568 468 -994 819 -426 351 -833 687 -905 747 -71
59 -252 208 -401 330 -149 123 -461 381 -694 573 -233 193 -438 361 -456 375
-17 14 -89 73 -160 132 -451 372 -665 548 -667 548 -2 0 -75 -60 -163 -132z
m282 -81 c61 -50 160 -132 220 -181 120 -99 186 -153 443 -367 96 -79 189
-155 207 -169 17 -14 143 -117 280 -230 136 -113 315 -261 398 -329 83 -68
223 -183 311 -256 88 -73 333 -275 545 -450 212 -174 459 -378 550 -453 236
-194 376 -310 700 -578 80 -66 287 -236 460 -379 173 -142 378 -311 455 -375
170 -141 1013 -835 1141 -940 149 -122 805 -663 993 -819 l174 -144 -30 -26
c-16 -14 -128 -107 -248 -206 -121 -99 -285 -234 -365 -300 -80 -67 -248 -206
-375 -310 -126 -104 -293 -241 -370 -305 -77 -64 -219 -181 -316 -261 -96 -79
-287 -236 -424 -349 -137 -113 -301 -248 -364 -300 -64 -53 -172 -142 -241
-199 -69 -57 -168 -138 -220 -181 -52 -43 -154 -127 -227 -186 -72 -60 -292
-242 -488 -404 -197 -162 -388 -320 -425 -350 -37 -30 -127 -104 -200 -165
-74 -60 -161 -132 -195 -160 -34 -27 -238 -196 -455 -375 -216 -179 -552 -455
-745 -615 -194 -159 -567 -467 -829 -683 -332 -274 -481 -391 -489 -385 -7 5
-113 93 -236 194 -123 101 -254 209 -291 239 -67 54 -364 299 -800 660 -245
202 -569 470 -685 565 -106 86 -421 347 -965 795 -261 216 -518 427 -570 470
-52 43 -149 122 -215 177 -66 54 -250 206 -410 338 -159 131 -348 287 -420
346 -71 59 -355 293 -630 520 -275 226 -572 471 -659 543 -343 283 -594 490
-844 696 l-261 215 42 36 c23 20 197 164 387 320 190 156 522 430 738 609 217
179 424 350 461 380 182 148 496 407 1365 1125 280 231 523 431 540 445 17 14
148 122 291 240 144 118 373 307 510 420 137 113 301 248 365 301 63 52 351
290 640 528 289 238 584 481 655 540 141 116 629 519 842 694 73 60 135 113
139 118 11 19 32 6 140 -84z"/>
<path d="M21730 40439 c0 -6 15 -28 34 -49 48 -54 81 -114 108 -200 20 -66 23
-95 23 -240 0 -145 -3 -174 -23 -240 -27 -86 -60 -146 -108 -200 -59 -66 -40
-83 23 -21 118 114 177 269 176 466 0 173 -49 316 -145 420 -54 60 -88 84 -88
64z"/>
<path d="M24186 40396 c-62 -65 -105 -142 -137 -246 -20 -62 -24 -97 -23 -200
0 -176 32 -280 121 -403 37 -50 99 -104 109 -94 4 3 -14 32 -39 64 -97 125
-130 236 -130 433 1 199 34 309 129 432 59 75 39 85 -30 14z"/>
<path d="M25470 40439 c0 -6 15 -28 34 -49 48 -54 81 -114 108 -200 20 -66 23
-95 23 -240 0 -145 -3 -174 -23 -240 -27 -86 -60 -146 -108 -200 -33 -37 -43
-60 -25 -60 5 0 35 28 67 63 107 114 156 253 157 437 0 123 -19 215 -65 308
-44 89 -168 223 -168 181z"/>
<path d="M21160 40390 c-125 -128 -187 -374 -146 -580 22 -115 82 -234 151
-306 70 -71 90 -62 31 14 -78 101 -110 185 -126 332 -22 204 25 412 118 522
55 65 56 68 38 68 -10 0 -39 -23 -66 -50z"/>
<path d="M20696 40370 c-39 -35 -58 -78 -76 -172 l-12 -68 -49 0 c-37 0 -49
-4 -49 -15 0 -11 12 -15 45 -15 25 0 45 -4 45 -8 0 -27 -93 -490 -104 -516
-18 -44 -40 -60 -73 -51 -24 6 -25 8 -10 16 45 25 43 79 -3 79 -33 0 -52 -21
-52 -57 0 -58 92 -85 146 -42 58 45 87 134 141 432 l27 147 59 0 c46 0 59 3
59 15 0 12 -13 15 -55 15 l-56 0 7 38 c3 20 12 68 20 105 8 38 14 70 14 72 0
14 52 36 70 30 l22 -7 -21 -15 c-25 -17 -29 -68 -6 -77 21 -8 61 9 69 29 11
29 7 45 -19 70 -36 37 -94 34 -139 -5z"/>
<path d="M23723 40378 c-38 -27 -66 -87 -83 -180 l-12 -68 -49 0 c-37 0 -49
-4 -49 -15 0 -11 12 -15 45 -15 25 0 45 -4 45 -8 0 -27 -93 -490 -104 -516
-18 -44 -40 -60 -73 -51 -24 6 -25 8 -10 16 45 25 43 79 -3 79 -33 0 -52 -21
-52 -57 0 -58 92 -85 146 -42 58 45 87 134 141 432 l27 147 59 0 c46 0 59 3
59 15 0 12 -13 15 -55 15 l-56 0 7 38 c32 186 49 220 100 208 l27 -7 -22 -15
c-25 -18 -29 -69 -5 -78 25 -9 33 -7 54 14 27 27 25 56 -5 85 -32 33 -88 33
-132 3z"/>
<path d="M26660 40297 c-58 -29 -189 -93 -292 -142 -133 -63 -188 -94 -188
-105 0 -20 583 -305 606 -296 8 3 14 10 14 16 0 6 -121 70 -270 143 -148 72
-270 134 -270 137 0 4 84 47 188 96 289 137 347 168 347 184 0 27 -29 20 -135
-33z"/>
<path d="M21491 40288 c-5 -18 -17 -61 -27 -95 l-17 -63 -58 0 c-46 0 -59 -3
-59 -15 0 -12 13 -15 55 -15 30 0 55 -2 55 -6 0 -3 -16 -68 -35 -144 -47 -187
-46 -218 6 -245 39 -21 76 -19 117 7 34 21 92 100 92 125 0 25 -20 13 -39 -24
-36 -72 -106 -116 -136 -87 -21 21 -20 23 26 209 l41 164 62 3 c76 4 76 22 1
26 -47 3 -55 6 -51 20 21 73 36 147 32 158 -3 8 -16 14 -30 14 -19 0 -27 -7
-35 -32z"/>
<path d="M24485 40124 c-16 -8 -38 -23 -49 -32 -19 -18 -56 -84 -56 -102 0
-22 21 -8 39 28 55 107 162 131 169 38 4 -49 -44 -250 -70 -293 -19 -33 -58
-51 -95 -45 -22 3 -22 3 -2 23 38 38 11 87 -38 68 -46 -17 -37 -90 13 -109 47
-18 83 -12 120 23 l36 33 33 -33 c40 -40 88 -44 144 -12 55 31 124 139 89 139
-7 0 -24 -21 -38 -47 -30 -57 -69 -86 -111 -86 -37 0 -59 24 -59 62 0 14 14
79 30 144 36 148 62 187 121 187 l40 0 -21 -28 c-34 -46 -1 -88 45 -58 36 24
38 55 5 87 -44 45 -125 34 -164 -22 l-14 -21 -11 21 c-25 47 -101 64 -156 35z"/>
<path d="M25023 40033 c-20 -7 -15 -23 6 -23 11 0 22 -4 25 -8 2 -4 -17 -96
-44 -202 -27 -107 -50 -200 -50 -206 0 -19 28 -24 43 -9 8 7 20 41 27 74 7 34
16 64 20 66 11 7 73 -13 82 -27 4 -7 8 -29 8 -49 0 -44 28 -72 70 -71 39 1 47
6 70 52 23 46 24 50 8 50 -7 0 -21 -18 -31 -40 -14 -31 -24 -40 -43 -40 -22 0
-24 4 -24 55 0 59 -13 75 -73 89 l-28 7 28 23 c51 43 106 76 125 76 17 0 17
-2 4 -23 -18 -26 -7 -51 19 -45 29 5 41 33 27 62 -23 51 -92 30 -192 -57 -18
-16 -36 -25 -37 -20 -2 6 10 65 27 131 16 67 30 126 30 131 0 11 -74 14 -97 4z"/>
<path d="M22380 39950 c0 -20 4 -20 308 -18 265 3 307 5 307 18 0 13 -42 15
-307 18 -304 2 -308 2 -308 -18z"/>
<path d="M26187 39583 c-4 -3 -7 -12 -7 -20 0 -11 55 -13 308 -11 265 3 307 5
307 18 0 13 -41 15 -301 18 -165 1 -303 -1 -307 -5z"/>
<path d="M27884 39116 c-44 -19 -76 -63 -72 -100 3 -27 7 -31 33 -31 24 0 31
5 33 23 2 13 -3 25 -12 28 -43 17 10 64 74 67 71 3 119 -55 106 -127 -8 -44
-51 -96 -153 -187 -46 -41 -83 -80 -83 -86 0 -10 35 -13 144 -13 l143 0 10 60
c7 46 7 60 -3 60 -7 0 -15 -13 -19 -30 l-7 -30 -94 0 c-52 0 -94 2 -94 4 0 2
43 37 95 77 135 105 162 169 103 245 -40 51 -136 69 -204 40z"/>
<path d="M23532 39008 c-15 -15 -17 -954 -2 -978 9 -13 12 -12 25 4 13 17 15
90 15 486 0 360 -3 470 -13 483 -10 14 -15 15 -25 5z"/>
<path d="M23735 39009 c-3 -8 -4 -232 -3 -499 3 -423 5 -485 18 -485 13 0 15
62 18 486 2 422 0 488 -13 499 -12 10 -16 10 -20 -1z"/>
<path d="M26910 39007 c0 -7 11 -24 25 -37 42 -39 86 -116 113 -198 24 -71 26
-90 26 -252 1 -166 -1 -179 -27 -255 -30 -85 -71 -156 -112 -195 -23 -21 -34
-50 -19 -50 14 0 71 56 108 104 80 106 119 236 119 396 0 121 -20 214 -63 306
-43 89 -170 225 -170 181z"/>
<path d="M27392 39008 c-9 -9 -12 -123 -12 -489 0 -401 2 -478 14 -488 33 -27
36 20 36 491 0 358 -3 468 -13 481 -10 14 -15 15 -25 5z"/>
<path d="M27597 39013 c-9 -8 -9 -977 -1 -986 3 -3 12 -3 20 0 20 8 21 965 1
982 -8 6 -17 8 -20 4z"/>
<path d="M25632 38962 c-164 -169 -210 -497 -101 -732 35 -76 96 -159 138
-189 45 -32 45 -10 0 45 -94 113 -131 235 -131 434 0 199 32 308 129 433 56
72 33 79 -35 9z"/>
<path d="M22420 38967 c-34 -17 -62 -74 -54 -112 3 -16 17 -54 30 -84 13 -29
24 -57 24 -61 0 -5 -16 -14 -35 -20 -19 -6 -57 -32 -84 -58 -147 -138 -120
-354 47 -370 101 -9 187 80 214 225 21 111 9 140 -123 322 -80 111 -32 168 91
106 53 -27 76 -25 86 7 8 26 -1 33 -58 47 -61 14 -107 14 -138 -2z m60 -376
c23 -69 22 -105 -6 -193 -29 -89 -78 -128 -139 -108 -20 7 -39 23 -50 44 -50
92 34 302 135 338 23 8 36 -10 60 -81z"/>
<path d="M25163 38948 c-38 -27 -66 -87 -83 -180 l-12 -68 -49 0 c-37 0 -49
-4 -49 -15 0 -11 12 -15 45 -15 25 0 45 -3 45 -6 0 -26 -94 -494 -104 -518
-18 -44 -40 -60 -73 -51 -24 6 -25 8 -10 16 46 26 41 79 -8 79 -29 0 -47 -23
-47 -57 0 -61 94 -85 150 -38 46 39 78 126 115 315 19 96 38 194 42 218 l7 42
59 0 c46 0 59 3 59 15 0 12 -13 15 -55 15 l-56 0 7 38 c3 20 12 68 20 105 8
38 14 70 14 72 0 14 52 36 70 30 l22 -7 -21 -15 c-41 -28 -16 -92 29 -78 19 6
40 41 40 66 0 5 -11 21 -25 34 -32 33 -88 33 -132 3z"/>
<path d="M23960 38943 c0 -5 80 -163 178 -353 135 -264 182 -346 197 -348 16
-2 30 18 77 110 31 62 111 218 178 346 66 129 120 238 120 243 0 5 -156 9
-375 9 -206 0 -375 -3 -375 -7z m680 -71 c0 -7 -245 -490 -265 -522 -4 -7 -20
12 -39 47 -40 72 -246 474 -246 479 0 2 124 4 275 4 151 0 275 -4 275 -8z"/>
<path d="M19343 38777 c-205 -99 -293 -146 -293 -158 0 -19 584 -303 606 -295
17 7 18 22 2 33 -7 4 -132 65 -277 135 l-264 127 209 100 c304 146 339 164
339 181 0 8 -7 16 -15 17 -8 1 -147 -62 -307 -140z"/>
<path d="M21001 38699 c-62 -25 -141 -115 -141 -161 0 -28 16 -21 39 17 42 72
129 100 206 66 39 -17 50 -28 71 -76 42 -90 43 -176 5 -316 -32 -121 -38 -169
-20 -169 16 0 36 58 59 171 22 105 83 275 139 387 33 65 37 82 21 82 -11 0
-76 -127 -111 -217 -13 -35 -27 -63 -30 -63 -3 0 -9 25 -13 55 -20 173 -115
268 -225 224z"/>
<path d="M25930 38699 c-35 -14 -69 -48 -91 -91 -22 -44 -24 -58 -6 -58 7 0
19 15 25 34 18 49 75 96 115 96 73 0 76 -53 15 -265 -31 -108 -67 -144 -129
-128 -20 5 -20 6 1 25 39 37 12 86 -37 67 -46 -17 -37 -90 13 -109 47 -18 83
-12 120 23 l36 33 33 -33 c40 -40 91 -44 145 -12 40 25 53 39 80 91 24 44 24
48 7 48 -8 0 -22 -18 -32 -39 -31 -69 -93 -108 -142 -90 -37 14 -38 51 -3 195
38 160 59 194 121 194 l40 0 -21 -28 c-32 -43 -4 -85 41 -61 45 23 40 86 -8
108 -50 23 -101 10 -139 -36 l-22 -26 -11 22 c-24 43 -95 62 -151 40z"/>
<path d="M26468 38603 c-24 -6 -23 -23 1 -23 11 0 22 -4 25 -8 2 -4 -18 -97
-45 -207 -47 -188 -52 -225 -30 -225 21 0 39 31 51 89 7 34 16 64 20 66 11 7
73 -13 82 -27 4 -7 8 -29 8 -49 0 -36 17 -60 53 -72 30 -11 65 11 87 52 24 48
24 51 5 51 -8 0 -15 -6 -15 -14 0 -22 -40 -66 -61 -66 -16 0 -19 7 -19 55 0
59 -13 75 -74 89 l-28 7 63 49 c37 29 74 50 89 50 19 0 21 -3 12 -12 -7 -7
-12 -23 -12 -36 0 -18 5 -23 21 -20 32 5 45 31 31 62 -23 51 -92 30 -192 -57
-18 -16 -36 -25 -37 -20 -2 6 10 65 27 131 16 67 30 126 30 131 0 11 -58 13
-92 4z"/>
<path d="M21750 38551 c-23 -44 -5 -81 40 -81 14 0 31 5 38 12 7 7 12 24 12
38 0 14 -5 31 -12 38 -19 19 -66 15 -78 -7z"/>
<path d="M22978 38545 c-17 -37 3 -75 40 -75 35 0 52 16 52 50 0 34 -17 50
-52 50 -21 0 -32 -7 -40 -25z"/>
<path d="M20130 38520 c0 -20 4 -20 308 -18 265 3 307 5 307 18 0 13 -42 15
-307 18 -304 2 -308 2 -308 -18z"/>
<path d="M27884 38506 c-41 -18 -74 -62 -74 -97 0 -33 26 -52 52 -38 22 12 24
47 3 55 -25 10 -17 32 16 50 99 51 191 -22 160 -126 -11 -36 -89 -122 -198
-216 -57 -50 -48 -54 111 -54 l143 0 10 60 c7 46 7 60 -3 60 -7 0 -15 -13 -19
-30 l-7 -30 -94 0 c-52 0 -94 2 -94 4 0 2 35 31 79 64 139 108 169 159 134
229 -10 20 -30 46 -45 57 -35 25 -130 32 -174 12z"/>
<path d="M19057 38153 c-4 -3 -7 -12 -7 -20 0 -11 55 -13 308 -11 265 3 307 5
307 18 0 13 -41 15 -301 18 -165 1 -303 -1 -307 -5z"/>
<path d="M33270 39556 c0 -11 14 -16 48 -18 l47 -3 3 -284 c3 -316 3 -314 -64
-327 -19 -3 -34 -12 -34 -20 0 -11 24 -14 115 -14 91 0 115 3 115 14 0 8 -15
17 -34 20 -67 13 -67 13 -64 311 l3 268 48 -69 c27 -38 122 -175 212 -304 90
-129 169 -235 177 -235 10 0 14 60 18 307 3 168 7 308 10 311 14 13 51 27 69
27 12 0 21 7 21 15 0 12 -20 15 -120 15 -95 0 -118 -3 -114 -13 3 -8 21 -18
42 -23 58 -14 62 -31 62 -272 0 -125 -4 -211 -9 -208 -5 3 -89 121 -186 261
l-178 255 -93 0 c-75 0 -94 -3 -94 -14z"/>
<path d="M34211 39329 c-137 -26 -220 -187 -162 -314 25 -56 76 -102 134 -121
194 -64 362 131 271 315 -29 58 -86 106 -137 116 -18 4 -39 8 -47 10 -8 1 -35
-1 -59 -6z m117 -39 c47 -29 65 -78 65 -180 0 -102 -18 -151 -65 -180 -69 -42
-158 -16 -193 56 -27 57 -27 195 1 249 36 70 125 96 192 55z"/>
<path d="M22830 30515 c0 -10 10 -15 33 -15 18 0 42 -7 53 -14 12 -8 71 -93
132 -189 l112 -174 0 -111 c0 -123 -5 -132 -69 -132 -21 0 -31 -5 -31 -15 0
-13 23 -15 145 -15 122 0 145 2 145 15 0 10 -10 15 -34 15 -66 0 -66 0 -66
129 l0 116 95 150 c112 177 140 210 189 219 22 4 36 13 36 21 0 12 -20 15
-105 15 -83 0 -105 -3 -105 -14 0 -8 11 -17 24 -20 48 -12 41 -38 -45 -173
-44 -70 -87 -134 -93 -141 -10 -10 -31 16 -107 134 -52 81 -96 152 -98 157 -5
13 19 27 47 27 13 0 22 6 22 15 0 13 -22 15 -140 15 -118 0 -140 -2 -140 -15z"/>
<path d="M23693 30289 c-58 -14 -127 -77 -147 -136 -32 -94 -14 -174 54 -244
63 -65 149 -86 223 -55 39 16 97 79 97 106 0 30 -13 24 -35 -17 -25 -46 -69
-73 -121 -73 -80 0 -139 65 -146 160 l-3 45 153 3 c151 3 155 3 154 37 -4 125
-104 201 -229 174z m105 -35 c30 -21 50 -62 54 -110 l3 -39 -117 -3 -118 -3 0
25 c0 45 32 107 64 127 38 23 84 24 114 3z"/>
<path d="M24108 30291 c-52 -11 -87 -37 -104 -78 -28 -65 14 -131 95 -153 152
-40 150 -40 167 -71 27 -54 3 -100 -64 -118 -77 -22 -149 25 -172 110 -17 64
-35 43 -38 -46 -3 -89 9 -114 36 -77 l17 22 40 -20 c134 -68 293 50 229 169
-26 49 -71 76 -158 95 -85 19 -109 39 -104 87 4 42 34 59 104 59 64 0 99 -25
114 -81 17 -60 30 -46 30 31 0 69 -10 86 -36 60 -6 -6 -24 -4 -49 5 -44 16
-53 16 -107 6z"/>
<path d="M23550 28330 c0 -528 -2 -960 -6 -960 -3 0 -37 24 -77 53 -40 29 -78
57 -85 61 -7 4 37 -92 98 -213 60 -121 110 -223 110 -226 0 -3 -1426 -5 -3170
-5 l-3170 0 0 -1620 0 -1620 3150 0 3150 0 0 -1290 0 -1290 -80 0 c-44 0 -80
-2 -80 -4 0 -1 24 -54 54 -117 51 -107 125 -314 144 -404 l9 -40 7 30 c24 100
104 326 151 423 l54 112 -85 0 -84 0 0 1290 0 1290 3150 0 3150 0 0 1620 0
1620 -3170 0 -3170 0 111 221 c60 122 109 223 107 224 -2 2 -41 -25 -88 -60
l-85 -64 -3 965 -2 964 -45 0 -45 0 0 -960z m6300 -2910 l0 -1530 -6255 0
-6255 0 0 1530 0 1530 6255 0 6255 0 0 -1530z"/>
<path d="M27217 25866 c-62 -64 -106 -141 -138 -246 -31 -97 -33 -289 -5 -390
25 -93 82 -195 143 -257 56 -58 94 -65 48 -10 -112 137 -149 254 -148 467 1
183 37 303 121 410 54 69 54 68 43 74 -6 4 -34 -18 -64 -48z"/>
<path d="M28500 25907 c0 -8 11 -24 25 -37 43 -40 86 -116 112 -198 21 -62 27
-104 31 -213 7 -215 -33 -363 -128 -471 -38 -44 -50 -68 -32 -68 4 0 27 19 51
43 119 117 175 264 174 462 0 180 -50 318 -155 430 -60 65 -78 77 -78 52z"/>
<path d="M26754 25850 c-38 -24 -66 -87 -84 -182 l-12 -68 -49 0 c-37 0 -49
-4 -49 -15 0 -11 12 -15 45 -15 25 0 45 -3 45 -8 0 -20 -82 -443 -95 -488 -18
-64 -44 -89 -82 -79 -24 6 -25 8 -10 16 45 25 43 79 -3 79 -33 0 -52 -21 -52
-57 0 -61 94 -85 150 -38 46 39 78 126 115 315 19 96 38 194 42 218 l7 42 59
0 c46 0 59 3 59 15 0 12 -13 15 -55 15 l-56 0 7 38 c3 20 12 68 20 105 8 38
14 70 14 72 0 14 52 36 70 30 l22 -7 -21 -15 c-25 -17 -29 -68 -6 -77 21 -8
61 9 69 29 11 29 7 45 -19 70 -30 31 -87 33 -131 5z"/>
<path d="M25545 25833 c24 -64 351 -686 362 -690 8 -3 20 1 27 8 16 17 356
676 356 689 0 6 -138 10 -376 10 -354 0 -376 -1 -369 -17z m675 -62 c0 -10
-258 -512 -269 -524 -6 -6 -257 466 -279 524 -2 5 120 9 272 9 152 0 276 -4
276 -9z"/>
<path d="M18515 25594 c-43 -22 -64 -44 -86 -86 -22 -44 -24 -58 -6 -58 7 0
19 15 25 34 18 49 75 96 115 96 44 0 57 -15 57 -66 0 -47 -43 -221 -67 -272
-18 -38 -61 -62 -98 -54 -23 4 -23 4 -4 23 38 38 11 87 -38 68 -46 -17 -37
-90 13 -109 47 -18 83 -12 120 23 l36 33 33 -33 c40 -40 91 -44 145 -12 40 25
53 39 80 91 24 44 24 48 7 48 -8 0 -22 -18 -32 -39 -31 -69 -93 -108 -142 -90
-38 14 -39 53 -3 197 39 159 60 192 121 192 l40 0 -21 -28 c-32 -43 -4 -85 41
-61 45 23 40 86 -8 108 -49 22 -115 5 -147 -40 l-14 -21 -11 21 c-25 47 -101
64 -156 35z"/>
<path d="M21995 25594 c-43 -22 -64 -44 -86 -86 -23 -44 -24 -58 -5 -58 8 0
17 11 20 25 9 34 61 91 95 103 46 16 75 -4 79 -55 3 -45 -38 -224 -65 -280
-19 -40 -58 -63 -95 -56 -26 5 -26 5 -7 24 38 38 14 88 -35 70 -49 -19 -43
-91 10 -111 48 -19 83 -12 121 23 l36 34 26 -29 c48 -54 133 -47 192 15 19 20
59 89 59 102 0 16 -30 2 -35 -17 -22 -70 -100 -127 -149 -108 -41 15 -42 49
-6 196 38 160 59 194 121 194 l40 0 -21 -28 c-34 -46 -1 -88 46 -57 37 24 33
80 -6 100 -54 28 -105 16 -146 -32 l-22 -26 -11 22 c-25 47 -101 64 -156 35z"/>
<path d="M24331 25600 c-63 -27 -141 -116 -141 -162 0 -28 16 -21 38 16 59
100 208 109 266 17 53 -83 58 -192 16 -346 -33 -122 -37 -165 -16 -165 14 0
45 100 65 210 12 69 55 187 115 315 48 103 52 115 36 115 -11 0 -76 -127 -111
-217 -27 -71 -39 -79 -39 -29 0 62 -39 166 -79 208 -30 33 -45 41 -81 44 -25
2 -56 -1 -69 -6z"/>
<path d="M27515 25594 c-43 -22 -64 -44 -86 -86 -23 -44 -24 -58 -5 -58 8 0
17 11 20 25 9 34 61 91 95 103 46 16 75 -4 79 -55 3 -45 -38 -224 -65 -280
-19 -40 -58 -63 -95 -56 -26 5 -26 5 -7 24 38 38 14 88 -35 70 -49 -19 -43
-91 10 -111 48 -19 83 -12 121 23 l36 34 26 -29 c48 -54 133 -47 192 15 19 20
59 89 59 102 0 16 -30 2 -35 -17 -22 -70 -100 -127 -149 -108 -41 15 -42 49
-6 196 38 160 59 194 121 194 l40 0 -21 -28 c-34 -46 -1 -88 46 -57 37 24 33
80 -6 100 -54 28 -105 16 -146 -32 l-22 -26 -11 22 c-25 47 -101 64 -156 35z"/>
<path d="M20810 25520 c0 -20 4 -20 338 -18 292 3 337 5 337 18 0 13 -45 15
-337 18 -334 2 -338 2 -338 -18z"/>
<path d="M19058 25513 c-24 -6 -23 -23 1 -23 11 0 22 -4 25 -8 2 -4 -17 -96
-44 -202 -27 -107 -50 -200 -50 -206 0 -19 28 -24 43 -9 8 7 20 41 27 75 7 34
18 64 25 66 15 6 67 -14 77 -29 4 -7 8 -28 8 -48 0 -36 17 -60 53 -72 30 -11
65 11 87 52 23 47 24 51 8 51 -7 0 -21 -18 -31 -40 -14 -31 -24 -40 -43 -40
-22 0 -24 4 -24 55 0 59 -14 76 -72 90 l-27 7 41 35 c48 40 90 63 115 63 13 0
14 -3 5 -12 -7 -7 -12 -23 -12 -36 0 -18 5 -23 21 -20 32 5 45 31 31 62 -23
51 -92 30 -192 -57 -18 -16 -36 -25 -37 -20 -2 6 10 65 27 131 16 67 30 126
30 131 0 11 -58 13 -92 4z"/>
<path d="M22538 25513 c-24 -6 -23 -23 1 -23 11 0 22 -4 25 -8 2 -4 -18 -97
-45 -207 -47 -188 -52 -225 -30 -225 21 0 39 31 51 89 7 34 17 64 22 67 4 3
24 0 43 -6 35 -12 43 -25 43 -78 1 -48 54 -80 98 -60 14 7 34 29 45 50 22 44
23 48 7 48 -7 0 -21 -18 -31 -40 -14 -31 -24 -40 -43 -40 -22 0 -24 4 -24 46
0 61 -13 81 -61 94 l-40 11 42 35 c48 40 91 64 114 64 14 0 15 -2 1 -21 -17
-25 -11 -49 14 -49 47 0 51 74 5 86 -39 10 -67 -2 -136 -57 -35 -28 -65 -46
-67 -41 -1 5 11 64 28 130 16 67 30 126 30 131 0 11 -58 13 -92 4z"/>
<path d="M28058 25513 c-24 -6 -23 -23 1 -23 11 0 22 -4 25 -8 2 -4 -18 -97
-45 -207 -47 -188 -52 -225 -30 -225 21 0 39 31 51 89 7 34 17 64 22 67 4 3
24 0 43 -6 35 -12 43 -25 43 -78 1 -48 54 -80 98 -60 14 7 34 29 45 50 22 44
23 48 7 48 -7 0 -21 -18 -31 -40 -14 -31 -24 -40 -43 -40 -22 0 -24 4 -24 46
0 61 -13 81 -61 94 l-40 11 42 35 c48 40 91 64 114 64 14 0 15 -2 1 -21 -17
-25 -11 -49 14 -49 47 0 51 74 5 86 -39 10 -67 -2 -136 -57 -35 -28 -65 -46
-67 -41 -1 5 11 64 28 130 16 67 30 126 30 131 0 11 -58 13 -92 4z"/>
<path d="M20175 25479 c-22 -10 -52 -19 -67 -19 -19 0 -28 -5 -28 -16 0 -15
22 -15 83 2 16 5 17 -8 17 -175 l0 -180 -47 -3 c-26 -2 -48 -9 -51 -15 -3 -10
27 -13 128 -13 101 0 131 3 128 13 -3 6 -25 13 -51 15 l-47 3 0 205 c0 157 -3
204 -12 203 -7 0 -31 -9 -53 -20z"/>
<path d="M19677 25474 c-4 -4 -7 -58 -7 -120 l0 -113 -115 -3 c-152 -4 -152
-22 0 -26 l114 -3 3 -117 c2 -96 6 -117 18 -117 12 0 16 21 18 117 l3 117 116
3 c82 2 118 7 121 16 3 9 -25 12 -117 12 l-120 0 -3 117 c-3 108 -11 137 -31
117z"/>
<path d="M25082 25458 c-7 -7 -12 -24 -12 -38 0 -14 5 -31 12 -38 7 -7 24 -12
38 -12 14 0 31 5 38 12 7 7 12 24 12 38 0 14 -5 31 -12 38 -7 7 -24 12 -38 12
-14 0 -31 -5 -38 -12z"/>
<path d="M23230 25420 c0 -20 4 -20 308 -18 265 3 307 5 307 18 0 13 -42 15
-307 18 -304 2 -308 2 -308 -18z"/>
<path d="M20817 25333 c-4 -3 -7 -12 -7 -20 0 -11 60 -13 338 -11 292 3 337 5
337 18 0 13 -45 15 -331 18 -182 1 -333 -1 -337 -5z"/>
<path d="M23520 20577 c-41 -40 -196 -187 -345 -327 -148 -139 -311 -292 -360
-339 -139 -132 -247 -233 -410 -386 -82 -77 -190 -178 -239 -225 -49 -47 -94
-90 -100 -95 -51 -48 -609 -573 -791 -745 -94 -89 -281 -266 -525 -495 -254
-238 -802 -755 -875 -824 -44 -42 -156 -148 -250 -236 -93 -87 -206 -193 -250
-235 -86 -81 -145 -137 -440 -415 -104 -98 -231 -217 -280 -264 -216 -205
-532 -501 -580 -545 -24 -23 -31 -25 -33 -12 -3 15 -93 16 -983 16 l-979 0 0
-40 0 -40 979 0 c925 0 980 1 983 18 3 16 98 -69 453 -408 44 -42 199 -189
345 -325 146 -137 306 -287 355 -334 130 -125 436 -413 535 -505 80 -75 141
-133 355 -336 50 -47 157 -148 240 -225 82 -77 190 -179 240 -226 91 -87 513
-484 705 -664 58 -54 148 -139 200 -189 53 -50 134 -127 181 -171 47 -44 156
-147 244 -230 88 -82 193 -182 235 -221 219 -205 454 -427 525 -494 44 -42
199 -189 345 -326 561 -526 594 -559 571 -562 l-21 -3 0 -1130 0 -1129 45 0
45 0 0 1130 0 1130 -22 0 c-25 0 -34 -9 167 180 293 274 524 492 735 691 96
91 299 282 450 424 151 142 347 327 435 409 87 83 195 185 239 226 99 92 242
227 361 341 49 47 173 164 275 259 102 96 252 237 334 314 82 78 160 152 175
165 45 41 311 292 405 381 49 47 94 90 100 95 44 40 371 348 456 429 119 114
197 188 425 401 88 82 196 184 240 226 185 174 450 425 588 554 81 77 147 142
147 146 0 3 -26 30 -57 59 -54 50 -127 119 -323 305 -41 39 -192 181 -335 315
-143 134 -296 278 -340 320 -44 42 -120 114 -170 160 -49 47 -126 119 -170
161 -44 41 -123 115 -175 164 -52 49 -131 124 -175 166 -44 41 -201 190 -350
329 -148 139 -315 296 -370 348 -113 108 -142 135 -495 467 -140 132 -289 271
-330 310 -41 40 -118 112 -170 161 -52 49 -138 130 -190 179 -52 50 -133 126
-180 170 -47 43 -128 120 -180 170 -52 49 -131 124 -175 165 -81 76 -217 204
-355 335 -41 39 -192 181 -335 315 -143 134 -262 247 -265 250 -3 3 -46 43
-95 90 -50 46 -128 120 -175 165 -47 44 -99 92 -115 107 l-30 27 -75 -72z
m237 -202 c206 -196 345 -327 433 -409 41 -39 156 -147 255 -241 99 -93 254
-239 345 -324 91 -86 201 -190 245 -231 44 -42 114 -107 155 -146 92 -87 235
-221 355 -335 49 -47 128 -121 175 -165 157 -147 594 -558 700 -659 58 -55
146 -138 195 -184 50 -47 131 -123 180 -170 50 -47 158 -149 240 -226 82 -77
188 -176 234 -220 47 -44 124 -116 171 -161 47 -44 128 -121 180 -170 131
-123 224 -210 450 -425 454 -428 533 -503 700 -659 96 -90 193 -181 215 -202
l40 -39 -55 -51 c-75 -70 -343 -322 -465 -438 -139 -132 -220 -208 -535 -505
-151 -142 -345 -324 -430 -404 -85 -80 -190 -180 -234 -221 -115 -108 -245
-230 -366 -345 -116 -109 -221 -208 -350 -330 -47 -43 -128 -120 -180 -170
-53 -49 -165 -155 -250 -235 -85 -80 -198 -186 -250 -235 -52 -50 -140 -133
-195 -185 -55 -52 -138 -130 -185 -174 -47 -44 -123 -117 -170 -161 -47 -44
-126 -118 -175 -165 -50 -47 -158 -148 -240 -225 -82 -77 -188 -176 -235 -221
-47 -44 -125 -118 -175 -165 -49 -46 -132 -125 -185 -175 -82 -78 -444 -419
-678 -639 l-72 -68 -23 19 c-12 11 -94 87 -182 170 -88 83 -207 195 -265 249
-58 54 -148 139 -200 189 -53 50 -134 127 -181 171 -47 44 -156 148 -244 230
-88 83 -193 182 -235 221 -219 205 -454 427 -525 494 -44 42 -199 189 -345
325 -146 137 -305 287 -355 334 -130 125 -436 413 -535 505 -80 75 -141 133
-355 336 -49 47 -157 148 -240 225 -82 77 -190 179 -240 226 -91 87 -513 484
-705 664 -58 54 -148 139 -200 189 -53 50 -134 127 -181 171 -46 44 -154 145
-238 225 -84 80 -160 149 -168 153 -19 12 -25 6 267 280 135 126 286 269 335
316 50 48 167 158 260 246 94 87 211 198 260 245 50 48 171 163 270 255 99 93
261 245 360 339 99 93 212 199 250 235 312 293 506 476 660 622 55 52 181 171
280 264 99 93 221 207 270 254 102 97 177 168 420 396 94 88 202 190 240 226
85 80 227 214 354 334 53 50 134 126 181 170 46 44 87 82 90 85 3 3 43 41 90
85 47 43 128 120 180 170 53 49 165 155 250 235 85 80 193 182 240 227 113
108 154 143 162 140 4 -1 73 -65 155 -142z"/>
<path d="M19862 16488 c-15 -15 -17 -954 -2 -978 9 -13 12 -12 25 4 13 17 15
90 15 486 0 360 -3 470 -13 483 -10 14 -15 15 -25 5z"/>
<path d="M20067 16493 c-4 -3 -7 -226 -7 -494 0 -479 3 -531 31 -488 5 8 9
228 9 490 0 387 -3 479 -13 488 -8 6 -17 8 -20 4z"/>
<path d="M21954 16443 c-107 -111 -159 -258 -158 -448 1 -190 50 -326 160
-441 69 -71 89 -62 30 14 -77 100 -109 183 -126 330 -13 109 -3 246 26 342 19
65 71 162 114 209 26 29 32 51 14 51 -3 0 -30 -25 -60 -57z"/>
<path d="M24310 16489 c0 -6 15 -28 34 -49 48 -54 81 -114 108 -200 20 -66 23
-95 23 -240 0 -145 -3 -174 -23 -240 -27 -86 -60 -146 -108 -200 -53 -59 -44
-81 12 -32 120 103 187 276 187 477 0 123 -17 203 -64 302 -41 85 -169 224
-169 182z"/>
<path d="M24792 16488 c-9 -9 -12 -123 -12 -489 0 -415 2 -478 15 -489 9 -7
19 -10 23 -6 4 4 8 222 9 485 2 370 0 481 -10 495 -10 13 -15 14 -25 4z"/>
<path d="M24997 16493 c-4 -3 -7 -226 -7 -494 0 -479 3 -531 31 -488 5 8 9
228 9 490 0 387 -3 479 -13 488 -8 6 -17 8 -20 4z"/>
<path d="M21493 16428 c-38 -27 -66 -87 -83 -180 l-12 -68 -49 0 c-37 0 -49
-4 -49 -15 0 -11 12 -15 45 -15 25 0 45 -3 45 -6 0 -19 -83 -448 -95 -490 -18
-64 -44 -89 -82 -79 -24 6 -25 8 -10 16 45 25 43 79 -3 79 -52 0 -74 -57 -36
-95 32 -32 92 -34 129 -4 58 45 108 211 162 537 l7 42 59 0 c46 0 59 3 59 15
0 12 -13 15 -55 15 -30 0 -55 4 -55 9 0 5 9 53 20 106 11 53 20 99 20 101 0
13 52 35 70 29 l22 -7 -21 -15 c-43 -30 -17 -92 31 -74 71 27 32 121 -49 121
-24 0 -51 -9 -70 -22z"/>
<path d="M20290 16417 c0 -7 4 -17 9 -22 5 -6 84 -158 176 -338 92 -181 174
-331 182 -334 8 -3 20 1 27 8 8 8 62 109 121 224 59 116 136 264 171 331 35
67 64 126 64 133 0 8 -101 11 -375 11 -301 0 -375 -3 -375 -13z m680 -66 c0
-10 -258 -512 -269 -524 -8 -8 -280 513 -274 526 6 10 543 9 543 -2z"/>
<path d="M26293 16157 c-207 -99 -293 -145 -293 -157 0 -19 584 -304 606 -296
8 3 14 10 14 16 0 6 -121 70 -270 143 -148 72 -270 134 -270 137 0 4 116 62
258 129 141 68 263 129 271 136 15 14 7 36 -12 34 -7 0 -144 -64 -304 -142z"/>
<path d="M27190 16180 c-97 -33 -145 -110 -104 -168 15 -21 14 -24 -15 -51
-51 -48 -64 -107 -35 -162 29 -57 134 -84 227 -58 42 11 107 63 107 85 0 20
-13 17 -27 -5 -22 -34 -135 -52 -221 -35 -78 16 -97 91 -39 149 l33 33 80 -5
c65 -5 82 -3 93 11 25 30 6 46 -53 46 -30 0 -66 -4 -80 -10 -21 -8 -28 -5 -45
16 -34 43 -5 86 72 109 64 19 134 19 171 0 36 -19 62 -19 69 -1 12 31 -61 66
-138 66 -22 -1 -65 -9 -95 -20z m55 -190 c-28 -12 -45 -12 -45 0 0 6 15 10 33
9 27 0 29 -2 12 -9z"/>
<path d="M22120 16165 c0 -22 4 -25 38 -25 35 0 43 -6 114 -89 l77 -89 -77
-81 c-70 -73 -81 -81 -114 -81 -34 0 -38 -3 -38 -25 0 -25 0 -25 95 -25 95 0
95 0 95 25 0 16 -6 25 -15 25 -23 0 -18 11 36 70 l51 55 53 -60 c37 -41 49
-61 39 -63 -7 -2 -14 -14 -14 -28 l0 -24 115 0 115 0 0 25 c0 22 -4 25 -37 25
-35 0 -44 7 -121 95 l-83 96 30 37 c62 78 104 111 146 114 33 2 41 7 43 26 3
22 1 22 -97 22 l-101 0 0 -25 c0 -16 6 -25 15 -25 24 0 18 -13 -30 -60 l-45
-44 -44 49 c-29 34 -39 51 -30 53 8 2 14 14 14 28 l0 24 -115 0 -115 0 0 -25z"/>
<path d="M22838 16093 c-24 -6 -23 -23 1 -23 11 0 22 -4 25 -8 2 -4 -17 -96
-44 -202 -27 -107 -50 -200 -50 -206 0 -19 28 -24 43 -9 8 7 20 41 27 74 7 34
17 64 22 67 4 3 24 0 43 -6 35 -12 43 -25 43 -78 1 -46 52 -79 97 -62 13 5 33
27 45 49 23 47 24 51 8 51 -7 0 -21 -18 -31 -40 -14 -31 -24 -40 -43 -40 -22
0 -24 4 -24 55 0 59 -13 75 -73 89 l-27 6 32 28 c57 49 95 72 119 72 18 0 20
-3 11 -12 -7 -7 -12 -23 -12 -36 0 -18 5 -23 21 -20 57 8 46 88 -11 88 -39 0
-60 -11 -130 -68 -30 -24 -56 -40 -58 -34 -1 5 11 64 28 130 16 67 30 126 30
131 0 11 -58 13 -92 4z"/>
<path d="M23965 16059 c-22 -10 -52 -19 -67 -19 -19 0 -28 -5 -28 -16 0 -15
22 -15 83 2 16 5 17 -8 17 -175 l0 -180 -47 -3 c-26 -2 -48 -9 -51 -15 -3 -10
27 -13 128 -13 101 0 131 3 128 13 -3 6 -25 13 -51 15 l-47 3 0 205 c0 157 -3
204 -12 203 -7 0 -31 -9 -53 -20z"/>
<path d="M25284 16066 c-44 -20 -76 -64 -72 -100 3 -27 7 -31 33 -31 24 0 31
5 33 23 2 13 -3 25 -12 28 -26 10 -18 32 15 50 91 47 180 -10 165 -105 -7 -48
-37 -86 -141 -180 -49 -45 -91 -89 -93 -97 -3 -12 21 -14 141 -14 l144 0 10
60 c11 66 -4 84 -24 30 l-11 -30 -91 0 c-50 0 -91 2 -91 3 0 2 43 37 95 78
115 90 145 137 126 200 -17 57 -68 92 -139 96 -34 2 -69 -2 -88 -11z"/>
<path d="M23467 16054 c-4 -4 -7 -58 -7 -120 l0 -113 -115 -3 c-152 -4 -152
-22 0 -26 l114 -3 3 -117 c2 -96 6 -117 18 -117 12 0 16 21 18 117 l3 117 114
3 c68 2 115 7 115 13 0 6 -47 11 -115 13 l-114 3 -3 116 c-3 108 -11 137 -31
117z"/>
<path d="M21065 15161 c-39 -8 -35 -25 7 -31 27 -4 33 -9 31 -27 -1 -12 -34
-149 -73 -304 -39 -155 -70 -292 -68 -303 4 -27 43 -34 56 -9 5 10 19 61 32
113 13 52 24 98 26 101 7 12 83 -13 100 -33 14 -15 18 -33 16 -79 -2 -55 0
-63 27 -89 36 -36 77 -39 116 -8 29 22 64 89 65 121 0 34 -21 12 -43 -43 -22
-55 -55 -84 -84 -73 -11 4 -13 24 -11 85 3 77 2 81 -25 104 -16 13 -48 29 -72
35 l-43 11 81 74 c76 69 125 97 153 87 7 -3 2 -14 -12 -28 -28 -28 -30 -38 -8
-59 26 -26 52 -19 73 21 16 31 14 41 -14 68 -48 48 -101 28 -223 -86 -56 -53
-82 -70 -82 -53 0 3 23 92 50 198 28 106 50 198 50 204 0 13 -72 14 -125 3z"/>
<path d="M24755 15161 c-39 -8 -35 -25 7 -31 41 -6 44 18 -43 -335 -39 -153
-69 -288 -67 -300 4 -27 43 -32 57 -7 5 10 20 62 32 115 21 92 24 97 48 97 34
0 91 -35 92 -57 1 -10 1 -39 -1 -65 -2 -41 2 -52 28 -78 37 -36 78 -39 117 -8
29 22 64 89 65 121 0 33 -22 13 -40 -36 -24 -64 -37 -77 -71 -77 l-29 0 2 82
c1 77 0 82 -26 104 -15 13 -47 29 -71 35 l-43 11 81 74 c76 69 125 97 153 87
7 -3 2 -14 -12 -28 -13 -13 -24 -28 -24 -34 0 -17 32 -42 47 -37 8 3 18 6 22
6 4 0 13 11 19 25 21 46 -14 95 -68 95 -35 0 -78 -28 -156 -101 -66 -60 -94
-80 -94 -65 0 3 23 92 50 199 28 107 50 199 50 206 0 12 -73 13 -125 2z"/>
<path d="M22943 15114 c-23 -14 -65 -27 -92 -31 -36 -4 -51 -10 -51 -21 0 -12
9 -14 48 -9 26 4 57 9 70 13 l22 6 0 -263 c0 -145 -4 -270 -9 -278 -5 -8 -32
-16 -65 -19 -39 -3 -56 -9 -56 -18 0 -11 32 -14 165 -14 140 0 165 2 165 15 0
11 -12 15 -49 15 -84 0 -81 -11 -81 331 0 233 -3 299 -12 298 -7 -1 -32 -12
-55 -25z"/>
<path d="M23602 15110 c2 -16 63 -49 270 -148 148 -70 268 -129 268 -132 0 -3
-121 -63 -270 -134 -207 -100 -270 -134 -270 -148 0 -10 6 -18 14 -18 12 0
502 232 579 274 15 8 27 20 27 26 0 14 -583 300 -611 300 -6 0 -9 -9 -7 -20z"/>
<path d="M22070 14911 l0 -161 -160 0 c-153 0 -160 -1 -160 -20 0 -19 7 -20
160 -20 l160 0 0 -161 c0 -147 1 -160 18 -157 15 3 17 20 20 160 l3 157 157 3
c132 3 157 5 157 18 0 13 -25 15 -157 18 l-157 3 -3 157 c-3 140 -5 157 -20
160 -17 3 -18 -10 -18 -157z"/>
<path d="M19681 14919 c-152 -44 -215 -219 -125 -350 47 -70 155 -104 274 -88
74 11 108 27 149 75 42 47 53 77 53 144 0 69 -19 117 -66 162 -61 59 -188 84
-285 57z m153 -39 c48 -18 66 -64 66 -170 0 -145 -31 -190 -132 -190 -39 0
-54 6 -80 29 l-33 29 0 125 c0 111 2 127 20 147 11 12 29 26 40 31 28 11 89
11 119 -1z"/>
<path d="M20158 14923 c-43 -4 -48 -7 -48 -28 0 -19 6 -24 33 -27 l32 -3 3
-167 2 -168 -35 0 c-31 0 -35 -3 -35 -25 l0 -25 130 0 130 0 0 25 c0 23 -4 25
-40 25 l-40 0 0 109 c0 150 25 217 89 239 27 10 28 9 27 -31 -1 -34 3 -43 27
-56 24 -14 30 -14 55 -1 40 23 43 80 7 109 -61 48 -147 31 -192 -38 l-23 -34
0 52 0 51 -37 -2 c-21 -1 -59 -3 -85 -5z"/>
<path d="M25920 14663 c-58 -11 -83 -78 -30 -78 20 0 25 5 25 25 0 19 6 26 25
30 55 12 110 -20 110 -64 0 -21 -6 -24 -52 -30 -112 -15 -179 -67 -161 -123
12 -35 52 -55 114 -56 35 -1 57 5 77 20 28 20 29 21 40 2 16 -25 73 -25 95 -1
18 20 23 82 7 82 -5 0 -10 -9 -10 -19 0 -32 -11 -51 -30 -51 -15 0 -18 12 -22
99 -4 102 -14 127 -58 151 -21 11 -100 19 -130 13z m130 -180 c0 -62 -28 -93
-83 -93 -68 0 -97 44 -59 89 18 23 82 50 120 51 20 0 22 -5 22 -47z"/>
<path d="M25167 14653 c-13 -12 -7 -22 16 -25 21 -3 22 -7 25 -115 3 -108 2
-112 -19 -115 -13 -2 -24 -9 -27 -15 -3 -10 17 -13 77 -13 65 0 81 3 81 15 0
9 -9 15 -25 15 -25 0 -25 1 -25 79 0 44 4 91 10 105 16 43 92 70 130 46 12 -7
15 -32 15 -117 0 -104 -1 -108 -22 -111 -13 -2 -23 -10 -23 -18 0 -11 17 -14
81 -14 60 0 80 3 77 13 -3 6 -14 13 -26 15 -28 4 -36 36 -29 120 4 58 9 70 36
94 38 34 95 39 111 9 5 -11 10 -65 10 -120 l0 -101 -25 0 c-16 0 -25 -6 -25
-15 0 -12 16 -15 80 -15 64 0 80 3 80 15 0 9 -9 15 -25 15 -25 0 -25 0 -25 95
0 106 -14 148 -52 159 -47 12 -95 6 -130 -18 l-34 -23 -28 23 c-20 18 -39 24
-73 24 -42 0 -103 -25 -103 -42 0 -4 -5 -8 -10 -8 -6 0 -10 6 -9 13 4 32 -2
37 -44 37 -24 0 -47 -3 -50 -7z"/>
<path d="M26220 14643 c0 -7 11 -13 24 -13 15 0 41 -18 75 -54 28 -30 51 -59
51 -63 0 -19 -93 -103 -122 -111 -59 -15 -45 -32 27 -32 l67 0 -7 28 c-4 22 1
33 28 60 l33 32 33 -34 c26 -27 31 -38 25 -60 l-6 -26 71 0 c56 0 71 3 71 15
0 9 -9 15 -23 15 -16 0 -43 20 -81 60 -48 50 -55 63 -47 78 17 32 81 82 112
89 52 10 33 28 -30 28 -66 0 -80 -7 -62 -29 10 -12 6 -21 -18 -48 l-30 -33
-31 30 c-23 23 -29 35 -25 55 5 25 5 25 -65 25 -49 0 -70 -4 -70 -12z"/>
<path d="M23607 14363 c-4 -3 -7 -12 -7 -20 0 -10 58 -13 311 -13 290 0 310 1
307 18 -3 16 -27 17 -304 20 -165 1 -303 -1 -307 -5z"/>
<path d="M14290 15746 c0 -11 14 -16 48 -18 l47 -3 3 -284 c3 -316 3 -314 -64
-327 -19 -3 -34 -12 -34 -20 0 -11 24 -14 115 -14 87 0 115 3 115 13 0 7 -20
18 -45 25 -33 9 -46 18 -50 34 -3 13 -4 140 -3 283 l3 260 214 -308 c117 -169
218 -306 225 -304 8 3 12 95 16 311 5 336 2 319 68 332 18 3 32 12 32 20 0 11
-24 14 -120 14 -98 0 -118 -2 -114 -14 3 -8 21 -17 39 -20 62 -12 65 -25 65
-269 0 -128 -4 -216 -9 -213 -5 4 -89 121 -186 261 l-177 255 -94 0 c-75 0
-94 -3 -94 -14z"/>
<path d="M11973 15527 c-123 -61 -223 -114 -223 -117 0 -3 102 -56 227 -119
125 -62 222 -107 217 -99 -6 7 -39 50 -73 96 l-62 82 821 0 820 0 0 40 0 40
-815 0 c-448 0 -815 3 -815 7 0 4 26 41 57 82 31 42 61 82 66 89 5 6 8 12 6
11 -2 0 -104 -50 -226 -112z"/>
<path d="M15217 15519 c-175 -41 -235 -263 -106 -386 141 -134 378 -34 379
160 0 145 -136 258 -273 226z m128 -43 c44 -29 59 -72 59 -171 0 -107 -18
-155 -66 -185 -69 -42 -153 -17 -191 55 -28 56 -29 196 -1 250 37 71 132 95
199 51z"/>
<path d="M22830 7355 c0 -10 10 -15 33 -15 18 0 42 -7 53 -14 12 -8 71 -93
132 -189 l112 -174 0 -111 c0 -123 -5 -132 -69 -132 -21 0 -31 -5 -31 -15 0
-13 23 -15 145 -15 122 0 145 2 145 15 0 10 -10 15 -34 15 -66 0 -66 0 -66
129 l0 118 95 149 c112 176 142 211 190 220 20 3 35 12 35 20 0 11 -22 14
-105 14 -83 0 -105 -3 -105 -14 0 -8 11 -17 24 -20 37 -9 39 -34 9 -85 -69
-118 -155 -243 -162 -235 -5 5 -50 74 -100 153 -73 114 -89 146 -80 157 6 8
22 14 35 14 15 0 24 6 24 15 0 13 -22 15 -140 15 -118 0 -140 -2 -140 -15z"/>
<path d="M23692 7128 c-57 -12 -136 -87 -151 -143 -26 -94 -8 -168 57 -235 53
-54 109 -75 180 -67 68 7 142 71 142 121 0 26 -14 18 -34 -19 -29 -53 -76 -78
-137 -73 -80 8 -123 61 -131 163 l-3 40 153 3 c111 2 152 6 153 15 12 134 -94
224 -229 195z m106 -34 c28 -20 48 -58 57 -111 l7 -43 -121 0 -121 0 0 25 c0
44 32 106 64 126 38 23 84 24 114 3z"/>
<path d="M24108 7131 c-52 -11 -87 -37 -105 -78 -30 -74 25 -141 135 -163 115
-24 158 -66 132 -129 -12 -30 -21 -36 -74 -52 -69 -20 -144 30 -166 112 -17
64 -35 43 -38 -46 -3 -89 9 -114 36 -77 l17 22 40 -20 c104 -53 228 1 241 106
10 78 -48 131 -171 159 -88 19 -110 39 -106 97 3 46 136 66 184 27 15 -11 31
-38 37 -60 16 -60 30 -47 30 29 0 76 -6 89 -30 67 -14 -12 -21 -12 -55 0 -44
16 -53 16 -107 6z"/>
<path d="M23548 5164 l-3 -966 -85 65 c-47 36 -86 64 -87 63 -2 -1 47 -101
107 -222 61 -120 110 -222 110 -226 0 -4 -496 -9 -1102 -11 l-1103 -3 -100
-23 c-549 -124 -974 -474 -1176 -971 -87 -213 -119 -378 -119 -622 0 -338 87
-624 278 -909 211 -314 551 -555 917 -650 214 -56 68 -52 2325 -56 1433 -3
2124 -1 2210 7 730 62 1321 592 1460 1306 111 574 -101 1171 -547 1544 -215
179 -443 290 -728 352 -99 22 -113 22 -1202 25 -607 2 -1103 5 -1103 7 0 1 50
101 110 221 61 120 108 220 106 223 -3 2 -41 -23 -85 -57 -44 -34 -82 -61 -85
-61 -3 0 -6 434 -6 965 l0 965 -45 0 -45 0 -2 -966z m2347 -1411 c214 -50 379
-120 549 -233 576 -385 818 -1113 590 -1771 -117 -338 -364 -638 -678 -821
-173 -102 -407 -177 -616 -198 -83 -8 -691 -10 -2215 -8 l-2100 3 -108 23
c-493 105 -889 413 -1096 853 -262 558 -169 1201 242 1669 230 263 571 446
933 499 33 5 1038 8 2234 7 2171 -2 2175 -2 2265 -23z"/>
<path d="M21970 2653 c0 -65 -59 -158 -102 -165 -41 -6 -31 -27 14 -30 l43 -3
5 -173 5 -174 28 -23 c15 -13 43 -27 64 -31 78 -15 124 30 131 126 4 50 2 60
-12 60 -13 0 -16 -11 -16 -50 0 -83 -33 -123 -88 -106 -34 11 -42 50 -42 216
l0 160 70 0 c56 0 70 3 70 15 0 12 -14 15 -70 15 l-70 0 0 90 c0 73 -3 90 -15
90 -8 0 -15 -8 -15 -17z"/>
<path d="M21565 2498 c-56 -11 -113 -61 -141 -122 -44 -95 -24 -198 53 -266
75 -66 176 -78 248 -29 50 34 88 109 56 109 -4 0 -15 -16 -25 -35 -39 -73
-130 -97 -197 -52 -41 27 -67 77 -71 137 l-3 45 153 3 152 3 0 39 c0 120 -100
195 -225 168z m103 -34 c28 -20 48 -58 57 -111 l7 -43 -121 0 -121 0 0 25 c0
44 32 106 64 126 38 23 84 24 114 3z"/>
<path d="M21038 2493 c-43 -5 -55 -33 -14 -33 51 0 56 -18 56 -189 0 -170 -3
-181 -52 -181 -18 0 -28 -5 -28 -15 0 -12 20 -15 120 -15 100 0 120 3 120 15
0 10 -10 15 -29 15 -61 0 -61 1 -61 139 0 138 15 193 61 225 32 22 52 21 44
-3 -4 -13 1 -27 14 -40 25 -25 35 -26 55 -5 22 22 20 50 -6 74 -42 39 -117 18
-154 -44 l-19 -31 -3 48 c-3 52 0 51 -104 40z"/>
<path d="M22297 2491 c-45 -7 -46 -22 -3 -36 l31 -10 5 -161 c4 -144 7 -164
25 -184 27 -31 76 -50 125 -50 47 0 73 11 113 48 l27 26 0 -39 0 -38 68 7 c70
7 99 21 66 31 -70 23 -64 4 -64 221 l0 197 -52 -7 c-29 -3 -63 -6 -75 -6 -37
0 -27 -27 12 -34 l35 -7 0 -142 c0 -125 -3 -146 -20 -175 -28 -46 -79 -66
-130 -52 -22 6 -41 12 -42 13 -1 1 -4 92 -7 202 l-6 200 -35 1 c-19 1 -52 -1
-73 -5z"/>
<path d="M22858 2493 c-43 -5 -55 -33 -14 -33 51 0 56 -18 56 -189 0 -170 -3
-181 -52 -181 -18 0 -28 -5 -28 -15 0 -12 20 -15 120 -15 100 0 120 3 120 15
0 10 -10 15 -29 15 -61 0 -61 1 -61 139 0 138 15 193 61 225 32 22 52 21 44
-3 -6 -20 24 -61 44 -61 16 0 41 31 41 50 0 26 -38 60 -67 60 -42 0 -91 -27
-110 -62 l-18 -33 -3 48 c-3 52 0 51 -104 40z"/>
<path d="M23263 2493 c-29 -3 -43 -9 -43 -19 0 -8 9 -14 21 -14 11 0 29 -5 40
-10 18 -10 19 -23 19 -180 l0 -170 -27 -6 c-47 -10 -54 -14 -48 -24 4 -6 53
-10 116 -10 90 0 109 3 109 15 0 8 -9 15 -19 15 -50 0 -51 4 -51 149 0 148 10
181 63 216 38 25 97 23 119 -4 16 -20 18 -43 18 -186 0 -174 0 -175 -51 -175
-10 0 -19 -7 -19 -15 0 -12 19 -15 110 -15 91 0 110 3 110 15 0 9 -9 15 -22
15 -44 0 -46 8 -50 177 l-3 162 -29 30 c-56 59 -167 52 -225 -14 l-31 -36 0
46 c0 50 7 48 -107 38z"/>
<path d="M24265 2484 c-16 -8 -38 -23 -49 -32 -19 -18 -56 -84 -56 -102 0 -23
21 -8 39 29 28 53 75 91 115 91 42 0 56 -16 56 -64 -1 -54 -52 -255 -74 -288
-20 -30 -61 -47 -94 -39 l-23 6 21 17 c40 35 15 87 -32 69 -42 -16 -51 -66
-18 -96 10 -9 39 -20 63 -22 40 -5 49 -2 82 29 l37 34 33 -33 c40 -40 91 -44
145 -12 40 25 53 39 80 91 24 44 24 48 7 48 -8 0 -22 -18 -32 -39 -31 -69 -93
-108 -142 -90 -38 14 -39 53 -3 197 41 168 63 198 143 193 16 -1 16 -3 -3 -29
-32 -43 -4 -85 41 -61 45 23 40 86 -8 108 -49 22 -115 5 -147 -40 l-14 -21
-11 21 c-25 47 -101 64 -156 35z"/>
<path d="M24808 2393 c-26 -7 -22 -20 8 -27 18 -5 24 -12 20 -24 -12 -39 -96
-382 -96 -391 0 -16 29 -21 43 -6 8 7 20 41 27 74 7 34 16 64 20 66 11 7 73
-13 82 -27 4 -7 8 -29 8 -49 0 -87 99 -100 141 -17 22 44 23 48 7 48 -7 0 -21
-18 -30 -40 -13 -32 -22 -40 -42 -40 -25 0 -26 3 -26 55 0 59 -13 75 -73 89
l-28 7 42 35 c49 41 91 64 116 64 13 0 14 -3 5 -12 -19 -19 -15 -58 7 -58 48
0 53 74 6 86 -39 10 -67 -2 -136 -57 -35 -28 -65 -46 -67 -41 -1 5 11 64 28
130 16 67 30 126 30 131 0 11 -58 13 -92 4z"/>
<path d="M25935 2359 c-22 -10 -52 -19 -67 -19 -19 0 -28 -5 -28 -16 0 -15 22
-15 83 2 16 5 17 -8 17 -175 l0 -180 -47 -3 c-26 -2 -48 -9 -51 -15 -3 -10 27
-13 128 -13 101 0 131 3 128 13 -3 6 -25 13 -51 15 l-47 3 0 205 c0 157 -3
204 -12 203 -7 0 -31 -9 -53 -20z"/>
<path d="M25427 2354 c-4 -4 -7 -58 -7 -120 l0 -113 -115 -3 c-152 -4 -152
-22 0 -26 l114 -3 3 -117 c2 -96 6 -117 18 -117 12 0 16 21 18 117 l3 117 114
3 c68 2 115 7 115 13 0 6 -47 11 -115 13 l-114 3 -3 116 c-3 108 -11 137 -31
117z"/>
</g>
</svg>
