<svg xmlns="http://www.w3.org/2000/svg" version="1.0" preserveAspectRatio="xMidYMid meet" viewBox="435.15 574.63 1124.69 1077.37">

<g transform="translate(0.000000,2048.000000) scale(0.100000,-0.100000)" fill="#000000" stroke="none">
<path d="M8020 14729 c-591 -21 -980 -119 -1275 -319 -291 -198 -415 -460 -383 -807 8 -88 41 -249 53 -261 8 -9 6 19 -11 129 -56 364 79 658 388 848 194 120 535 216 938 266 94 12 248 19 506 22 386 6 560 0 1324 -42 707 -39 1601 -82 2390 -115 135 -6 349 -15 475 -20 127 -5 455 -17 730 -25 967 -29 1256 -53 1549 -130 214 -56 346 -123 457 -234 120 -120 156 -216 146 -396 -10 -167 -53 -306 -167 -535 -137 -277 -293 -518 -992 -1535 -234 -341 -459 -668 -499 -727 -41 -59 -211 -307 -379 -550 -312 -452 -396 -576 -675 -988 -958 -1418 -1819 -2576 -2323 -3125 -161 -175 -149 -181 18 -9 160 165 357 406 865 1059 137 176 281 361 320 410 268 337 679 900 1122 1535 309 444 459 664 982 1435 232 342 358 528 795 1170 625 917 767 1147 904 1471 74 174 102 285 109 424 6 131 -8 202 -58 306 -114 232 -382 372 -859 448 -225 36 -563 57 -1200 76 -908 27 -2308 91 -3720 170 -927 52 -1213 61 -1530 49z"/>
<path d="M5285 13114 c-413 -42 -565 -87 -722 -214 -64 -52 -135 -149 -171 -236 -69 -164 -49 -425 53 -729 87 -256 210 -512 565 -1175 443 -829 911 -1728 1418 -2725 788 -1553 847 -1665 1009 -1925 326 -524 603 -814 930 -979 121 -60 238 -92 365 -98 195 -10 357 40 536 167 78 55 216 180 207 188 -2 3 -37 -22 -77 -55 -101 -82 -158 -119 -241 -158 -239 -110 -497 -94 -739 47 -240 138 -535 442 -774 798 -220 327 -365 590 -819 1485 -228 449 -415 816 -505 990 -37 72 -101 195 -143 275 -41 80 -136 264 -212 410 -75 146 -161 310 -190 365 -29 55 -85 163 -125 240 -117 225 -331 629 -485 915 -240 448 -273 510 -355 671 -297 585 -398 971 -326 1236 75 275 335 413 840 444 285 18 628 0 1771 -91 66 -6 347 -28 625 -50 278 -22 649 -51 825 -65 653 -52 831 -65 1310 -100 523 -38 1350 -105 1593 -131 667 -69 941 -101 1412 -169 469 -67 696 -107 973 -172 92 -21 95 -11 5 16 -195 57 -449 103 -1063 191 -1442 206 -1780 245 -2910 340 -433 36 -805 64 -2110 160 -225 16 -619 45 -875 64 -836 63 -901 67 -1230 70 -179 2 -343 2 -365 0z"/>
<path d="M6656 12380 c20 -143 126 -439 409 -1145 552 -1374 628 -1548 1215 -2795 105 -223 411 -860 555 -1155 64 -132 261 -539 437 -905 715 -1485 828 -1700 1044 -1990 227 -303 419 -430 652 -430 112 0 172 14 277 66 245 120 478 369 803 861 78 118 123 188 524 833 352 566 1282 2019 1663 2600 311 474 404 615 470 718 338 519 509 812 639 1092 200 431 265 686 253 1008 -6 176 -26 264 -94 402 -79 162 -244 308 -445 392 -74 31 -238 81 -245 74 -2 -2 29 -16 69 -31 295 -109 455 -244 549 -465 49 -115 62 -190 63 -345 0 -164 -21 -284 -89 -519 -125 -432 -362 -882 -890 -1691 -130 -200 -243 -372 -347 -530 -47 -71 -136 -209 -198 -305 -62 -96 -136 -211 -165 -255 -28 -44 -78 -122 -111 -173 -32 -51 -112 -174 -176 -275 -64 -100 -141 -220 -171 -267 -29 -47 -154 -242 -277 -435 -123 -192 -300 -471 -393 -620 -153 -243 -210 -335 -412 -665 -213 -347 -464 -722 -587 -877 -88 -110 -251 -276 -333 -338 -146 -109 -319 -173 -440 -162 -139 13 -290 101 -432 251 -215 228 -406 569 -921 1651 -835 1754 -1084 2276 -1307 2735 -570 1174 -919 1948 -1235 2740 -152 381 -230 594 -297 805 -61 191 -64 200 -57 145z"/>
<path d="M11510 10990 c-22 -30 -71 -144 -140 -325 -160 -418 -229 -555 -338 -669 -146 -151 -301 -154 -453 -9 -77 74 -123 143 -252 383 -121 227 -157 288 -206 350 -118 150 -245 221 -396 221 -298 0 -533 -257 -577 -631 -20 -173 20 -402 88 -503 26 -38 29 -40 32 -20 2 13 -7 73 -19 135 -30 148 -32 358 -5 463 46 176 177 345 321 416 64 31 77 34 160 34 82 0 95 -3 153 -33 125 -65 220 -186 380 -483 228 -426 343 -544 562 -579 156 -26 339 75 460 255 123 182 176 348 251 785 28 162 30 222 9 235 -5 3 -18 -8 -30 -25z"/>
</g>
</svg>